<svg width="25" height="24" viewBox="0 0 25 24" fill="none" xmlns="http://www.w3.org/2000/svg">
<g clip-path="url(#clip0_6724_986)">
<path d="M12.6765 0.223633C6.18844 0.223633 0.928711 5.48336 0.928711 11.9714C0.928711 17.4807 4.72185 22.1037 9.83872 23.3734V15.5616H7.41633V11.9714H9.83872V10.4245C9.83872 6.42601 11.6484 4.57267 15.574 4.57267C16.3184 4.57267 17.6026 4.71882 18.128 4.86449V8.11864C17.8507 8.0895 17.3691 8.07493 16.7709 8.07493C14.8447 8.07493 14.1004 8.80471 14.1004 10.7017V11.9714H17.9377L17.2784 15.5616H14.1004V23.6333C19.9174 22.9308 24.4248 17.9779 24.4248 11.9714C24.4243 5.48336 19.1646 0.223633 12.6765 0.223633Z" fill="white"/>
</g>
<defs>
<clipPath id="clip0_6724_986">
<rect width="23.4956" height="23.4956" fill="white" transform="translate(0.928711 0.223633)"/>
</clipPath>
</defs>
</svg>
