<svg width="24" height="24" viewBox="0 0 24 24" fill="none" xmlns="http://www.w3.org/2000/svg">
<g clip-path="url(#clip0_6724_1072)">
<path d="M11.991 2.33916C15.1299 2.33916 15.5016 2.35292 16.736 2.40799C17.8832 2.45847 18.5028 2.65121 18.9158 2.81182C19.4619 3.02292 19.8565 3.2799 20.2649 3.68832C20.6779 4.10133 20.9303 4.49139 21.1414 5.03748C21.302 5.45049 21.4948 6.0746 21.5453 7.21725C21.6003 8.45628 21.6141 8.82799 21.6141 11.9623C21.6141 15.1011 21.6003 15.4728 21.5453 16.7073C21.4948 17.8545 21.302 18.474 21.1414 18.8871C20.9303 19.4331 20.6734 19.8278 20.2649 20.2362C19.8519 20.6492 19.4619 20.9016 18.9158 21.1127C18.5028 21.2733 17.8787 21.4661 16.736 21.5165C15.497 21.5716 15.1253 21.5854 11.991 21.5854C8.85211 21.5854 8.4804 21.5716 7.24596 21.5165C6.09872 21.4661 5.4792 21.2733 5.06619 21.1127C4.5201 20.9016 4.12545 20.6446 3.71703 20.2362C3.30402 19.8232 3.05163 19.4331 2.84053 18.8871C2.67992 18.474 2.48718 17.8499 2.4367 16.7073C2.38163 15.4683 2.36787 15.0966 2.36787 11.9623C2.36787 8.8234 2.38163 8.45169 2.4367 7.21725C2.48718 6.07001 2.67992 5.45049 2.84053 5.03748C3.05163 4.49139 3.30861 4.09674 3.71703 3.68832C4.13004 3.27531 4.5201 3.02292 5.06619 2.81182C5.4792 2.65121 6.10331 2.45847 7.24596 2.40799C8.4804 2.35292 8.85211 2.33916 11.991 2.33916ZM11.991 0.223633C8.80163 0.223633 8.40239 0.2374 7.1496 0.292468C5.90139 0.347536 5.04325 0.549451 4.29983 0.838557C3.52429 1.14143 2.86807 1.54067 2.21643 2.1969C1.5602 2.84854 1.16096 3.50476 0.858089 4.27571C0.568982 5.02372 0.367067 5.87727 0.311999 7.12547C0.256931 8.38286 0.243164 8.7821 0.243164 11.9714C0.243164 15.1608 0.256931 15.56 0.311999 16.8128C0.367067 18.061 0.568982 18.9192 0.858089 19.6626C1.16096 20.4381 1.5602 21.0944 2.21643 21.746C2.86807 22.3976 3.52429 22.8015 4.29524 23.0997C5.04325 23.3889 5.8968 23.5908 7.14501 23.6458C8.3978 23.7009 8.79704 23.7147 11.9864 23.7147C15.1757 23.7147 15.575 23.7009 16.8278 23.6458C18.076 23.5908 18.9341 23.3889 19.6775 23.0997C20.4485 22.8015 21.1047 22.3976 21.7564 21.746C22.408 21.0944 22.8118 20.4381 23.1101 19.6672C23.3992 18.9192 23.6011 18.0656 23.6562 16.8174C23.7113 15.5646 23.725 15.1654 23.725 11.976C23.725 8.78669 23.7113 8.38745 23.6562 7.13465C23.6011 5.88645 23.3992 5.02831 23.1101 4.28489C22.821 3.50476 22.4218 2.84854 21.7655 2.1969C21.1139 1.54526 20.4577 1.14143 19.6867 0.843147C18.9387 0.55404 18.0852 0.352125 16.837 0.297057C15.5796 0.2374 15.1803 0.223633 11.991 0.223633Z" fill="white"/>
<path d="M11.9916 5.9375C8.65995 5.9375 5.95703 8.64042 5.95703 11.972C5.95703 15.3036 8.65995 18.0065 11.9916 18.0065C15.3232 18.0065 18.0261 15.3036 18.0261 11.972C18.0261 8.64042 15.3232 5.9375 11.9916 5.9375ZM11.9916 15.8864C9.83014 15.8864 8.07714 14.1334 8.07714 11.972C8.07714 9.81061 9.83014 8.05761 11.9916 8.05761C14.153 8.05761 15.906 9.81061 15.906 11.972C15.906 14.1334 14.153 15.8864 11.9916 15.8864Z" fill="white"/>
<path d="M19.6731 5.69837C19.6731 6.4785 19.0398 7.1072 18.2643 7.1072C17.4842 7.1072 16.8555 6.47391 16.8555 5.69837C16.8555 4.91824 17.4887 4.28955 18.2643 4.28955C19.0398 4.28955 19.6731 4.92283 19.6731 5.69837Z" fill="white"/>
</g>
<defs>
<clipPath id="clip0_6724_1072">
<rect width="23.4956" height="23.4956" fill="white" transform="translate(0.243164 0.223633)"/>
</clipPath>
</defs>
</svg>
