<svg width="24" height="24" viewBox="0 0 24 24" fill="none" xmlns="http://www.w3.org/2000/svg">
<g clip-path="url(#clip0_6724_978)">
<path d="M22.2437 0.223633H2.22194C1.26284 0.223633 0.487305 0.980816 0.487305 1.91697V22.0213C0.487305 22.9575 1.26284 23.7193 2.22194 23.7193H22.2437C23.2028 23.7193 23.9829 22.9575 23.9829 22.0259V1.91697C23.9829 0.980816 23.2028 0.223633 22.2437 0.223633ZM7.45798 20.2454H3.97035V9.02991H7.45798V20.2454ZM5.71417 7.50177C4.59445 7.50177 3.69042 6.59774 3.69042 5.48262C3.69042 4.36749 4.59445 3.46346 5.71417 3.46346C6.82929 3.46346 7.73332 4.36749 7.73332 5.48262C7.73332 6.59315 6.82929 7.50177 5.71417 7.50177ZM20.5091 20.2454H17.026V14.7937C17.026 13.495 17.0031 11.82 15.2134 11.82C13.4007 11.82 13.1254 13.238 13.1254 14.7019V20.2454H9.64693V9.02991H12.9877V10.5626H13.0336C13.4971 9.68154 14.6352 8.74998 16.3285 8.74998C19.8574 8.74998 20.5091 11.072 20.5091 14.0916V20.2454V20.2454Z" fill="white"/>
</g>
<defs>
<clipPath id="clip0_6724_978">
<rect width="23.4956" height="23.4956" fill="white" transform="translate(0.487305 0.223633)"/>
</clipPath>
</defs>
</svg>
