<svg width="24" height="24" viewBox="0 0 24 24" fill="none" xmlns="http://www.w3.org/2000/svg">
<g clip-path="url(#clip0_6724_1045)">
<path d="M17.7637 11.1134C17.6624 11.0649 17.5597 11.0182 17.4555 10.9735C17.2742 7.63188 15.4482 5.7188 12.3823 5.69922C12.3684 5.69913 12.3546 5.69913 12.3407 5.69913C10.5069 5.69913 8.98168 6.4819 8.04294 7.9063L9.72912 9.06298C10.4304 7.99901 11.531 7.77219 12.3415 7.77219C12.3509 7.77219 12.3603 7.77219 12.3695 7.77228C13.379 7.77872 14.1408 8.07223 14.6338 8.64462C14.9926 9.06133 15.2326 9.63718 15.3514 10.3639C14.4564 10.2118 13.4884 10.165 12.4536 10.2244C9.53867 10.3923 7.6647 12.0923 7.79056 14.4546C7.85443 15.6529 8.45139 16.6838 9.4714 17.3572C10.3338 17.9265 11.4445 18.2049 12.5989 18.1419C14.1234 18.0583 15.3194 17.4766 16.1537 16.4131C16.7874 15.6054 17.1881 14.5588 17.3651 13.24C18.0916 13.6784 18.6301 14.2554 18.9274 14.949C19.4331 16.1281 19.4626 18.0656 17.8816 19.6452C16.4965 21.029 14.8315 21.6277 12.3152 21.6461C9.52393 21.6255 7.41294 20.7303 6.04044 18.9855C4.75521 17.3517 4.09099 14.9919 4.06621 11.9715C4.09099 8.95101 4.75521 6.59115 6.04044 4.95735C7.41294 3.21258 9.52389 2.31744 12.3151 2.29669C15.1266 2.3176 17.2744 3.21705 18.6994 4.97024C19.3982 5.82998 19.925 6.91118 20.2723 8.1718L22.2483 7.64461C21.8273 6.09292 21.1649 4.75581 20.2635 3.6469C18.4366 1.39923 15.7647 0.247514 12.322 0.223633H12.3082C8.87258 0.247431 6.23061 1.40353 4.45574 3.65978C2.87634 5.66757 2.06164 8.46126 2.03427 11.9632L2.03418 11.9715L2.03427 11.9797C2.06164 15.4816 2.87634 18.2754 4.45574 20.2832C6.23061 22.5393 8.87258 23.6955 12.3082 23.7193H12.322C15.3765 23.6981 17.5296 22.8984 19.3032 21.1263C21.6238 18.8079 21.5539 15.902 20.7891 14.118C20.2404 12.8387 19.1942 11.7997 17.7637 11.1134ZM12.4898 16.0718C11.2122 16.1438 9.88495 15.5703 9.81951 14.3421C9.771 13.4314 10.4676 12.4152 12.5682 12.2941C12.8088 12.2802 13.0448 12.2735 13.2767 12.2735C14.0397 12.2735 14.7535 12.3476 15.4025 12.4895C15.1604 15.5123 13.7406 16.0032 12.4898 16.0718Z" fill="white"/>
</g>
<defs>
<clipPath id="clip0_6724_1045">
<rect width="23.4956" height="23.4956" fill="white" transform="translate(0.442383 0.223633)"/>
</clipPath>
</defs>
</svg>
