<svg width="25" height="24" viewBox="0 0 25 24" fill="none" xmlns="http://www.w3.org/2000/svg">
<g clip-path="url(#clip0_6724_970)">
<path d="M23.9471 7.27219C23.9471 7.27219 23.7177 5.65228 23.011 4.94098C22.1161 4.00483 21.1157 4.00024 20.6568 3.94517C17.3711 3.70654 12.438 3.70654 12.438 3.70654H12.4288C12.4288 3.70654 7.49561 3.70654 4.20989 3.94517C3.75099 4.00024 2.75059 4.00483 1.85574 4.94098C1.14904 5.65228 0.924174 7.27219 0.924174 7.27219C0.924174 7.27219 0.685547 9.17662 0.685547 11.0765V12.857C0.685547 14.7568 0.919585 16.6613 0.919585 16.6613C0.919585 16.6613 1.14903 18.2812 1.85115 18.9925C2.746 19.9286 3.92079 19.8965 4.44393 19.9975C6.32542 20.1764 12.4334 20.2315 12.4334 20.2315C12.4334 20.2315 17.3711 20.2223 20.6568 19.9883C21.1157 19.9332 22.1161 19.9286 23.011 18.9925C23.7177 18.2812 23.9471 16.6613 23.9471 16.6613C23.9471 16.6613 24.1812 14.7614 24.1812 12.857V11.0765C24.1812 9.17662 23.9471 7.27219 23.9471 7.27219ZM10.0058 15.0184V8.41485L16.3524 11.7281L10.0058 15.0184Z" fill="white"/>
</g>
<defs>
<clipPath id="clip0_6724_970">
<rect width="23.4956" height="23.4956" fill="white" transform="translate(0.685547 0.223633)"/>
</clipPath>
</defs>
</svg>
