<svg width="90" height="78" viewBox="0 0 90 78" fill="none" xmlns="http://www.w3.org/2000/svg">
<path d="M23.6084 66.5767C36.1069 63.4272 44.0046 74.7803 55.5947 73.8638C60.4283 73.482 64.4434 70.4229 69.4893 70.5923C72.9164 70.7086 75.7253 72.3817 78.9688 73.0513C79.2096 73.2697 77.1724 75.5053 76.7988 75.6646C74.9169 75.2461 72.9652 74.1539 71.0547 73.9253C64.7454 73.1682 60.2237 77.0563 54.1797 77.144C44.0614 77.2908 36.5946 68.2996 26.4131 69.1772C21.3896 69.61 17.0474 73.3497 11.9219 73.4722C9.81763 73.523 9.48252 71.3313 8.1416 70.0923C8.30694 69.7534 8.74009 70.1938 8.85645 70.1938C10.2403 70.1939 12.0281 70.3428 13.3467 70.1938H13.3447C16.4964 69.8387 20.3138 67.4074 23.6084 66.5767ZM1.06055 53.0825C-4.80771 20.5309 24.6315 -6.69135 56.6055 1.82471C84.8625 9.35283 97.7549 41.4641 83.6396 66.896H83.6377C77.9916 66.8858 73.5396 63.2666 67.8486 63.6626C63.9582 63.932 60.6677 66.1158 57.0059 66.6997C45.7627 68.496 37.2136 57.272 25.209 58.9907C19.3322 59.8317 15.1557 63.773 8.85645 63.4546C8.09909 63.4158 4.67775 62.9381 4.17969 62.6196C3.16923 61.9778 1.33202 54.5868 1.06055 53.0825ZM80.3018 56.5122C75.854 56.9061 70.5486 56.0019 66.207 56.5122C64.1275 56.7574 64.1376 59.1332 66.207 59.3804C70.6855 58.9578 76.1528 59.9272 80.5088 59.3843C80.8191 59.3454 81.3757 59.1372 81.5615 58.9087L81.5635 58.9067C82.3718 57.9024 81.5061 56.5408 80.3018 56.5122ZM48.3447 20.7065C43.5008 11.7271 31.6755 8.9146 23.8555 15.9937C20.5324 19.0024 18.6324 22.5054 18.7549 27.1206C14.1947 27.3002 9.67317 30.8256 7.90137 34.9448C3.99268 44.0242 10.4958 53.3623 20.0732 53.8726C33.1759 53.2112 47.0929 54.7196 60.0996 53.8726C65.5211 53.5194 70.3262 49.7231 71.3633 44.3159C72.539 38.1902 68.5835 31.6028 62.0312 31.4087L62.0293 31.4067C63.3437 24.1605 55.1624 17.7266 48.3447 20.7065ZM81.5273 48.9595C79.9903 48.788 75.0297 48.7454 73.5723 48.9761C71.9148 49.2394 71.6004 51.5212 73.3682 51.811C74.6869 52.0274 80.58 52.0172 81.917 51.811C83.0926 51.6293 83.6065 50.2517 82.79 49.4312L82.793 49.4292C82.5705 49.2047 81.8643 48.9963 81.5273 48.9595ZM52.0293 40.3892C53.0948 36.0535 60.0961 37.776 57.7119 42.2974C57.0179 43.6139 55.495 44.2527 54.6826 45.4937H58.1533V47.1274H52.0293C52.0681 46.6009 51.9053 46.0028 52.1338 45.4966C52.2726 45.1904 55.0462 42.9566 55.6055 42.2319C57.0506 40.3663 55.6409 38.8464 54.2773 39.8853C53.3261 40.6099 53.9154 41.0995 52.0293 40.3892ZM28.0996 29.4263C30.4224 29.159 32.9003 29.9569 34.4658 31.7163L32.5039 33.4214C31.8774 33.3498 31.559 32.786 31.0059 32.5288C28.0522 31.1593 24.9963 33.0211 24.6758 36.2095C24.1799 41.1716 28.4345 43.7554 32.3291 40.5874L34.4678 42.3306C30.7201 46.5294 23.2859 44.9745 21.9121 39.3774C20.7853 34.7969 23.1537 29.9978 28.0996 29.4263ZM42.3857 29.4263C53.2493 28.1791 54.0967 45.6398 42.5371 44.6743C33.8253 43.9475 33.6129 30.4329 42.3857 29.4263ZM42.4229 41.9331C49.5509 43.3007 49.7303 31.0468 42.5859 32.0776C37.7729 32.7719 37.6567 41.0186 42.4229 41.9331Z" fill="url(#paint0_linear_4505_598)"/>
<defs>
<linearGradient id="paint0_linear_4505_598" x1="32.0086" y1="-5.36244" x2="62.1807" y2="79.7116" gradientUnits="userSpaceOnUse">
<stop stop-color="#00FFFF"/>
<stop offset="1" stop-color="#009999"/>
</linearGradient>
</defs>
</svg>
