<svg width="89" height="87" viewBox="0 0 89 87" fill="none" xmlns="http://www.w3.org/2000/svg">
<path d="M57.7637 84.7256C56.0218 85.5476 53.4213 85.9723 51.4551 86.2236V86.2256C46.6534 86.8396 42.1776 86.6464 37.4355 85.8926C38.2417 85.5881 38.8921 85.9708 39.6475 86.0391C43.0612 86.3469 48.0676 86.3518 51.4551 85.8926V85.8906C53.6561 85.5927 55.6976 84.8654 57.7637 84.7256ZM39.0117 0.521484C42.1347 0.196977 45.4278 0.100457 48.5596 0.358398C49.3447 0.423326 50.0388 0.827673 50.8379 0.521484L51.0195 0.856445C50.7603 1.02778 50.4991 1.20381 50.2275 1.35352C50.1891 1.1229 50.0851 0.981247 49.9385 0.891602L49.9365 0.890625C50.0831 0.980262 50.1874 1.1219 50.2266 1.35254C46.6795 3.32454 45.7434 4.04691 43.041 7.01074C38.949 11.5006 39.8356 19.8681 39.5342 25.5645C39.4956 26.3082 39.3859 27.107 39.3613 27.8125C39.3578 27.9239 39.3631 28.0341 39.3613 28.1455C38.8794 29.0075 38.8144 30.0427 38.6006 31.0029C38.5463 31.2459 38.3273 31.6452 38.6602 31.8066C34.4508 45.7399 19.9914 48.9154 16.4033 61.4268L16.4053 61.4277L15.8809 63.5889C14.2726 57.3884 13.691 50.6158 14.8271 44.292C14.8267 44.2907 14.8266 44.2894 14.8262 44.2881C15.429 40.9365 16.4966 37.8904 18.54 35.083C21.0478 31.6335 24.4864 28.9279 28.1455 26.6465C28.1893 26.332 27.8175 26.5468 27.6562 26.5967C26.412 26.9811 25.0311 27.7214 23.8867 28.3438C21.6646 29.5552 19.3287 31.0714 17.543 32.8037C17.6271 31.3626 18.3956 29.7481 19.002 28.3652C20.6861 24.5294 23.0455 20.9933 25.5498 17.6084L30.5986 11.5039C30.4329 11.3519 28.9019 12.5677 28.6689 12.749C25.0456 15.5692 23.2006 18.6242 20.2627 21.8203L20.2578 21.8252V21.8242C16.919 25.4555 14.6455 31.4732 13.5557 36.5059C13.4471 37.0097 13.0181 37.5638 13.25 38.2969H13.2529C13.0198 37.563 13.449 37.0098 13.5576 36.5039C14.6472 31.4724 16.922 25.4585 20.2578 21.8252C16.565 27.5038 14.0188 33.81 13.0762 40.46C12.6136 40.5099 12.7988 40.4517 12.7236 40.2139C12.3206 38.9475 11.7943 37.4694 11.1494 36.2979C11.1803 36.243 11.2091 36.2007 11.2354 36.1689C11.2085 36.2008 11.1792 36.2437 11.1475 36.2998C10.5113 35.1449 9.05857 33.045 8.16309 32.0615C7.91954 31.7937 7.63726 31.5625 7.37793 31.3096C7.24305 31.2846 7.27328 31.462 7.28906 31.5586C7.46957 32.582 9.14421 35.4697 9.61914 36.8359C10.4375 39.1923 10.8861 41.3355 11.1455 43.79C11.5293 47.4029 11.4559 50.8983 11.5312 54.5244C11.5488 55.3997 11.7351 56.593 12.0225 57.4365C12.0242 57.4913 12.0207 57.5478 12.0225 57.6025C12.04 58.0434 11.9875 58.496 12.0225 58.9336C12.1416 60.4213 12.6123 61.8596 13.0732 63.2607C13.4202 64.3205 13.8628 65.5646 14.3008 66.5879L14.7197 67.5332C15.7526 69.7779 17.1529 72.2532 18.6816 74.0762L17.8701 73.5166C16.689 71.4617 15.1071 69.608 14.2939 67.3418C14.2409 67.1931 14.1083 66.9598 14.1377 66.7822V66.7832C14.108 66.9607 14.2399 67.1939 14.293 67.3428C15.1061 69.6093 16.6889 71.4633 17.8701 73.5186L18.6816 74.0771C21.4453 77.3721 25.3794 80.0518 29.3838 81.8125C29.6391 81.9237 30.002 81.7763 29.8975 82.2285L29.9004 82.2295C30.3788 82.2162 30.9418 82.223 31.3027 82.5625C30.1145 82.4077 28.6818 82.4026 27.4463 82.2295C27.4054 82.2237 27.3628 82.2223 27.3193 82.2227C27.3628 82.2224 27.4054 82.2247 27.4463 82.2305H27.4453C28.6807 82.4035 30.1127 82.4088 31.3008 82.5635C32.7097 82.7465 34.0892 83.0721 35.5068 83.2285H35.5078C34.8543 82.4155 34.8579 81.6005 34.6338 80.7344C34.896 80.5758 34.8419 80.0207 34.8086 79.7363C35.4954 79.8178 35.0666 78.5786 35.084 78.2139C35.2557 74.5879 35.8878 73.3278 37.2861 70.1846C37.6542 69.3558 37.7 67.9774 38.082 67.1221C38.1485 66.9742 38.6537 66.2273 38.6621 66.1572C38.8672 64.092 39.3211 62.3127 39.8906 60.5986H40.0645C39.5336 63.4436 39.1072 66.0557 38.1436 68.8408C37.6389 70.2985 36.841 71.6882 36.3818 73.1592C35.3884 76.3352 35.3229 79.9592 35.6836 83.2285C35.9501 83.2573 36.2076 83.3165 36.4697 83.3594L36.7344 83.3955C36.9634 83.4185 37.2046 83.3757 37.4336 83.3955C37.5281 82.537 37.2178 81.5021 37.6084 80.7334L37.6221 81.0391C37.6795 81.7501 37.895 82.4327 37.6084 83.2275C39.7814 83.2581 41.9535 83.4393 44.1309 83.4219C41.9531 83.4403 39.7829 83.2586 37.6104 83.2266C37.938 82.3196 37.6086 81.5559 37.6104 80.7305C37.6349 71.5446 46.2819 66.11 55.3965 66.7539C60.3893 67.1067 64.4133 69.9406 69.6006 69.5879C72.0392 69.4217 74.2731 68.4156 76.334 67.2539C76.3354 67.2522 76.3375 67.2507 76.3389 67.249C76.4685 67.0943 76.5633 66.908 76.6895 66.75L76.6914 66.749C78.9822 63.9016 80.5196 61.4288 81.9473 57.9346L82.2559 57.1543C83.7531 53.2372 84.5702 49.1183 84.9268 44.9541C85.1 44.9936 85.0883 45.1438 85.1016 45.2822V45.2744C85.0895 45.1383 85.0976 44.9928 84.9277 44.9541C85.2799 40.8405 84.9104 35.7036 84.0518 31.6416L83.9043 31.3623C83.899 31.3441 83.8806 31.3284 83.876 31.3076C83.8537 31.2079 83.8987 31.0751 83.876 30.9756H84.0508L84.0498 30.9746H83.875C83.437 29.1413 82.6456 26.574 81.9482 24.8184H81.9473C81.9121 24.7303 81.8267 24.6207 81.7725 24.4863H81.7734V24.4844C81.2722 23.2463 80.5404 22.059 80.0234 20.8242C80.4245 20.7681 80.649 21.3307 80.8662 21.6035C81.4374 22.3141 81.8162 23.0715 82.2998 23.8203V23.8232C84.966 27.9506 87.5051 32.6082 87.9053 37.4639H87.9072C87.9125 37.5188 87.902 37.5759 87.9072 37.6309C88.0404 39.0504 87.9247 40.9695 88.0771 42.1826C88.0795 42.1993 88.0873 42.2118 88.0986 42.2227C88.0886 42.2121 88.082 42.1995 88.0801 42.1836C87.9276 40.9704 88.0434 39.0513 87.9102 37.6318C88.2816 37.9181 88.3131 38.5041 88.3867 38.9268C89.0035 42.4595 88.7317 45.325 88.4355 48.7812H88.4336L88.4326 48.7822L88.3428 49.7158C87.3162 59.3137 83.2182 67.5022 75.9893 74.4102V74.4082H75.8145C75.8131 74.4076 75.8118 74.4068 75.8105 74.4062C74.7816 74.6371 74.2689 75.8629 73.7051 76.3154C73.4983 76.4818 73.0417 76.4453 72.8262 76.6533C72.6618 76.8115 72.7036 77.1356 72.623 77.2021C72.5038 77.3002 72.1324 77.1894 71.9502 77.3125C71.7823 77.4258 71.8484 77.7395 71.7295 77.8594C71.4544 78.1389 67.7534 80.3371 67.1572 80.6602C64.1394 82.2927 60.8111 83.2848 57.7617 84.7227C55.6957 84.8625 53.6541 85.5898 51.4531 85.8877C48.0655 86.347 43.0584 86.342 39.6445 86.0342C38.8893 85.9659 38.237 85.5832 37.4326 85.8877C36.8303 85.7912 36.2787 85.6761 35.6816 85.5547C35.6817 85.5563 35.6826 85.5579 35.6826 85.5596C35.5775 85.5379 35.4372 85.5812 35.332 85.5596V85.5576C32.7754 85.0135 30.138 84.3633 27.7969 83.2285H27.6211C27.733 82.6948 27.0869 82.8291 26.7451 82.7295C26.7043 82.717 26.6541 82.7329 26.6104 82.7344L26.5693 82.7295C26.1417 82.5864 25.8488 82.3719 25.5176 82.2305L26.1133 82.0576L26.334 82.3936L26.5693 82.3965V82.3955L26.335 82.3926L26.1143 82.0566L25.5186 82.2295C24.5985 81.8368 23.7571 81.3794 22.8896 80.8984L22.8877 80.9004C18.2401 78.326 14.8053 75.4435 11.3213 71.5811L11.3232 71.5791C9.8403 69.9351 8.31164 68.2119 7.29883 66.2666C7.29585 66.2633 7.29302 66.2592 7.29004 66.2559C6.63485 65.5205 6.37574 64.913 5.88867 64.0928C5.91076 64.0865 5.92954 64.0779 5.94629 64.0693C5.93009 64.0773 5.91167 64.0849 5.89062 64.0908C3.62826 60.2917 2.07221 56.2274 1.15918 51.9424H1.15625C0.353622 48.1731 0.148837 44.8098 0.280273 40.959H0.28418C0.408362 37.3201 0.951097 33.6144 2.2041 30.1621C2.20519 30.1562 2.20692 30.1504 2.20801 30.1445C2.22728 30.0414 2.19401 29.918 2.20801 29.8115C2.34653 29.8391 2.43427 29.8292 2.49316 29.7949C2.43412 29.8275 2.34696 29.8367 2.21094 29.8096C2.5052 27.6973 4.74644 23.906 5.88965 21.9912V21.9893C7.93129 18.5728 9.73961 16.3376 12.5488 13.502H12.5508L13.251 12.8369C13.3683 12.7239 13.4825 12.6163 13.6016 12.5049L13.7764 12.3379C14.076 12.0617 14.3335 11.787 14.6523 11.5059C14.8226 11.4996 15.0217 11.4494 15.0811 11.3633C15.0208 11.4487 14.8229 11.4986 14.6533 11.5049C14.762 11.41 14.862 11.295 15.0039 11.1719C18.6786 8.00712 22.5344 5.57319 27.0957 3.68457L29.2383 3.30859C32.1386 2.13208 35.5335 1.23824 38.8369 0.855469L38.8359 0.854492C35.533 1.23733 32.1409 2.13127 29.2393 3.30762L27.0957 3.68359C30.8437 2.13119 34.921 0.946008 39.0107 0.521484H39.0117ZM34.3252 84.8311C34.3693 84.9167 34.4627 84.9936 34.6318 85.0596C34.6878 85.0695 34.749 85.053 34.8066 85.0596L34.8076 85.0605C35.1735 85.1011 35.5459 84.9873 35.6514 85.3311C35.5486 84.9809 35.1726 85.0967 34.8047 85.0557C34.7469 85.049 34.685 85.0657 34.6289 85.0557C34.4622 84.9908 34.3702 84.9151 34.3252 84.8311ZM75.9893 74.4102C72.1582 78.0696 63.1806 84.3597 57.7637 84.7275V84.7266C60.813 83.2887 64.1431 82.2949 67.1592 80.6641C67.7578 80.3406 71.4564 78.1411 71.7314 77.8633C71.8503 77.7416 71.7841 77.4279 71.9521 77.3164C72.1344 77.1949 72.5058 77.3042 72.625 77.2061C72.7072 77.1394 72.6654 76.8153 72.8281 76.6572C73.0419 76.4509 73.4992 76.4872 73.7061 76.3193C74.2686 75.8667 74.784 74.6398 75.8145 74.4102H75.9893ZM32.916 84.5732C32.9589 84.5898 33.008 84.6157 33.0615 84.6465C33.008 84.6157 32.959 84.5899 32.916 84.5732ZM33.5586 84.2881C33.642 84.3535 33.7001 84.4317 33.7148 84.5244L33.6924 84.4482C33.6655 84.3874 33.6184 84.3349 33.5586 84.2881ZM31.4756 84.2266C31.4388 84.213 31.3903 84.2273 31.3447 84.2295C31.3908 84.2276 31.4404 84.2137 31.4775 84.2275H31.4785C31.5797 84.2557 31.6645 84.2635 31.7354 84.2559C31.6639 84.2635 31.5779 84.2551 31.4756 84.2266ZM33.3027 84.1533C33.3639 84.1752 33.4212 84.2009 33.4727 84.2305C33.4211 84.201 33.364 84.1751 33.3027 84.1533ZM30.9775 84.1152C31.0489 84.2218 31.1868 84.1956 31.3018 84.2275C31.3145 84.2309 31.3281 84.2299 31.3418 84.2295C31.3276 84.23 31.3139 84.23 31.3008 84.2266L31.2998 84.2256C31.2677 84.2169 31.2338 84.2129 31.2002 84.209C31.1654 84.2049 31.1309 84.2014 31.0986 84.1934C31.0508 84.1815 31.0082 84.1605 30.9775 84.1152ZM32.9199 84.0693C32.9343 84.0707 32.9485 84.0744 32.9629 84.0762C32.9488 84.0745 32.935 84.0707 32.9209 84.0693L32.7031 84.0625L32.9199 84.0693ZM28.9463 83.2568C29.4689 83.4086 30.1962 83.8224 30.8604 84.0303C30.1964 83.8227 29.4692 83.4091 28.9463 83.2568ZM33.5811 83.6436L34.4551 83.8955V83.8926L33.582 83.6406L33.5811 83.6436ZM45.3867 83.5791C45.1303 83.6004 44.8757 83.6193 44.6221 83.6338C44.8757 83.6193 45.1303 83.6004 45.3867 83.5791ZM50.0127 82.9434C49.8536 83.1028 49.5516 83.0889 49.2793 83.0723L49.002 83.0615C47.6718 83.0915 46.3483 83.3531 45.0654 83.4014C44.7609 83.413 44.4565 83.4191 44.1523 83.4219C44.4559 83.4193 44.7596 83.4137 45.0635 83.4023C46.3444 83.3542 47.666 83.0941 48.9941 83.0635C48.9962 83.0631 48.9989 83.0629 49.001 83.0625C49.3118 83.0564 49.7964 83.1626 50.0127 82.9434ZM26.7432 82.7295C27.0849 82.8293 27.7323 82.6943 27.6201 83.2285C27.3625 83.1819 26.9359 82.9242 26.7432 82.7295ZM31.834 83.0215C31.8669 83.0297 31.8901 83.0371 31.9004 83.0439C31.89 83.037 31.8672 83.0297 31.834 83.0215ZM50.0518 82.8965C50.0801 82.8923 50.1105 82.8942 50.1406 82.8965C50.111 82.8942 50.0806 82.8914 50.0527 82.8955L50.0518 82.8965ZM54.5312 81.8838C53.2548 82.2618 51.8676 82.5936 50.2295 82.8945L50.2285 82.8955C50.2004 82.9005 50.1705 82.8988 50.1406 82.8965C50.1701 82.8987 50.1998 82.9014 50.2275 82.8965C51.8666 82.5954 53.2542 82.262 54.5312 81.8838ZM30.6416 82.8604C30.6725 82.8636 30.7035 82.8668 30.7344 82.8701C30.7035 82.8668 30.6725 82.8636 30.6416 82.8604ZM26.9209 82.2295C26.751 82.2112 26.5878 82.2345 26.5703 82.2295C26.5909 82.2338 26.7484 82.2124 26.9199 82.2305C26.9261 82.2931 26.9609 82.3399 27.0098 82.3711C26.9611 82.3399 26.9271 82.293 26.9209 82.2305C26.9631 82.235 27.0067 82.2353 27.0508 82.2344C27.0067 82.2353 26.9631 82.234 26.9209 82.2295ZM53.0752 82.0801C52.7015 82.1718 52.3288 82.2661 51.958 82.3652C52.3288 82.2661 52.7015 82.1718 53.0752 82.0801ZM25.127 81.5996C25.5594 81.793 26.0386 82.0296 26.3818 82.1631L26.5703 82.2295C26.1761 82.1085 25.4439 81.7284 24.875 81.4902L25.127 81.5996ZM33.6484 48.3418C34.4252 47.1241 36.5745 48.8445 37.2549 49.6104C37.2564 49.61 37.2582 49.6107 37.2598 49.6104C37.3106 49.6669 37.3952 49.7124 37.4355 49.7773V49.7783C37.6731 49.8148 38.0378 49.872 38.1338 50.1094H38.1367C38.1371 50.1104 38.1363 50.1122 38.1367 50.1133C39.2076 50.1562 40.5664 50.0962 41.4561 50.7734C41.46 50.7738 41.4638 50.775 41.4678 50.7754C41.5256 50.7804 41.5857 50.7754 41.6436 50.7754C41.6435 50.7767 41.6427 50.778 41.6426 50.7793C41.9328 50.7901 42.8749 51.2558 43.1318 51.4434C43.6098 51.7914 44.3217 52.5872 44.4424 53.1016C44.4441 53.1026 44.4455 53.1044 44.4473 53.1055C44.4476 53.107 44.4469 53.1088 44.4473 53.1104C45.1756 53.5629 47.3255 55.2413 47.9443 55.9326C47.947 55.9332 47.9495 55.934 47.9521 55.9346C47.9871 55.9746 48.0223 56.1387 48.127 56.2666C48.3736 55.8943 49.3771 56.8146 49.4365 56.9375C49.9219 57.9426 49.214 57.8793 49.002 58.1006H49.001C48.9502 58.1538 48.9951 58.3901 48.7217 58.5781C47.472 59.4399 44.004 58.636 42.4355 58.5928C41.7871 58.5745 40.8689 58.4867 40.543 59.1406C40.3344 59.5567 40.1449 60.154 40.0625 60.5967H39.8877C39.3186 62.3115 38.8633 64.0883 38.6602 66.1523C38.652 66.2237 38.1466 66.9692 38.0801 67.1172C37.698 67.9726 37.6549 69.3509 37.2852 70.1797C35.8867 73.3232 35.2538 74.5829 35.082 78.209C35.0646 78.5736 35.4935 79.813 34.8066 79.7314C34.5981 77.9792 34.3182 75.5646 34.001 73.9404C33.7364 72.5908 33.0767 71.4475 32.8594 70.0996L32.1797 70.0791L32.1777 70.0811L32.8574 70.1006C33.0747 71.4467 33.7334 72.5919 33.998 73.9414C34.3153 75.5656 34.5969 77.9811 34.8037 79.7334C34.837 80.0181 34.8916 80.5734 34.6289 80.7314C34.14 78.8427 34.0486 77.2386 33.7227 75.3516C33.437 73.6908 32.9884 72.0709 32.6992 70.415L32.3516 72.2461C32.3533 75.3896 31.6841 78.7541 33.0527 81.7295C32.8091 81.9026 30.3321 80.7778 29.8975 80.5664V80.5645C28.1796 79.7294 27.1192 78.87 25.6934 77.7373C26.1662 77.6292 26.2367 77.9326 26.459 78.0908C27.5227 78.8396 28.8475 79.6193 30.0742 80.2334H30.0732C30.6918 80.5429 31.3872 80.9163 32.1758 81.0645C32.1751 81.0632 32.1745 81.0618 32.1738 81.0605C31.3879 80.9117 30.6941 80.5395 30.0771 80.2324C28.8504 79.6184 27.5247 78.8397 26.4609 78.0908C26.2385 77.9327 26.1666 77.6282 25.6953 77.7363C25.6322 77.6847 25.5818 77.6193 25.5205 77.5693C25.4744 77.2062 25.2511 76.9675 24.9775 76.7803C25.2505 76.9672 25.4725 77.2058 25.5186 77.5684C23.5401 75.9459 21.9803 74.4133 20.4697 72.2949C19.8476 71.423 17.3611 67.3753 17.5303 66.584C17.7546 65.539 19.3371 64.3042 20.2607 63.7549H20.2617C21.3712 63.0974 22.4345 62.7077 23.7227 62.4717L30.4219 61.9277H30.4238C28.186 62.7147 26.0165 62.2602 23.8838 62.7627C23.7436 62.796 23.7709 63.0787 23.6465 63.0986C23.3714 63.1433 23.0575 62.9522 22.7002 62.9971C22.1738 63.0637 21.1 63.6318 20.6113 63.9219V63.9248C20.4173 64.0405 19.2028 64.8693 19.0869 64.9727C18.6874 65.3254 18.626 66.1208 17.9727 66.3672C17.9481 66.5136 17.9862 66.6503 18.0195 66.79C18.5943 69.1863 20.4098 71.6642 21.8994 73.5996C22.3463 74.1804 23.3302 75.62 23.9365 76.1592C24.0485 76.2588 24.1966 76.3448 24.3574 76.4307C24.197 76.3451 24.0492 76.2592 23.9375 76.1602C23.3311 75.6209 22.3482 74.1813 21.9014 73.6006C20.4118 71.6652 18.5963 69.1873 18.0215 66.791C17.9882 66.6513 17.9473 66.5129 17.9736 66.3682C18.6273 66.1219 18.691 65.3264 19.0889 64.9736C19.2083 64.8692 20.4223 64.0406 20.6133 63.9258C21.1005 63.6346 22.1786 63.0639 22.7061 62.999C23.0634 62.9542 23.3773 63.1455 23.6523 63.1006C23.7765 63.0803 23.7468 62.7969 23.8887 62.7637C26.0213 62.2612 28.1909 62.7157 30.4287 61.9287C31.2103 61.6541 31.5262 61.6625 32.1816 61.0967C32.914 61.2762 33.1756 60.7266 33.2334 60.0977C33.3574 59.9518 33.5402 59.8192 33.583 59.7656C34.1105 59.8438 34.0096 59.7736 34.1953 59.4375C34.8191 58.3127 36.1644 54.8935 36.1543 53.8213C36.1543 53.6882 36.0389 53.6277 36.0371 53.6094L36.0342 53.6074C36.0417 53.6275 36.1486 53.6896 36.1504 53.8174C36.1609 54.8889 34.8154 58.3081 34.1914 59.4336C34.0056 59.7697 34.1066 59.8399 33.5791 59.7617C34.777 58.2135 35.2734 55.4407 35.8564 53.6084L35.835 53.5117C35.6782 53.0433 34.8007 52.8071 34.3701 52.4404C33.1855 51.4303 32.8021 49.6664 33.6484 48.3418ZM24.1162 81.2314H24.2871C24.2233 81.1971 24.2115 81.1066 24.1162 81.2314ZM59.6289 79.9863C59.3967 80.0863 59.1675 80.1838 58.9404 80.2793C59.6533 79.9797 60.3868 79.6586 61.1689 79.3125L59.6289 79.9863ZM66.3447 76.5713C66.176 76.5618 66.1107 76.6343 66.0039 76.7344H66.0068C66.1119 76.6357 66.1772 76.564 66.3428 76.5723L66.3447 76.5713ZM75.917 73.9521C75.7631 74.0434 75.5582 74.1586 75.6436 74.2861C75.5611 74.159 75.7634 74.0427 75.917 73.9521ZM83.126 64.833C82.6639 65.6461 82.1879 66.4383 81.7061 67.1924C81.6199 67.3274 80.9107 67.9794 80.8965 68.0361C80.8474 68.2441 80.9718 68.617 80.8701 68.7285C80.8186 68.7847 80.4826 68.7285 80.29 68.918C80.0974 69.1077 80.0047 69.7001 79.833 69.9414C78.8902 71.2693 77.3359 72.7305 76.0391 73.8721C76.0297 73.8804 76.0168 73.8875 76.0039 73.8965C76.0169 73.8876 76.0305 73.8823 76.04 73.874C77.3369 72.7308 78.8911 71.2697 79.834 69.9434C80.0057 69.7021 80.1045 69.1063 80.292 68.9199C80.4796 68.7338 80.8213 68.787 80.8721 68.7305C80.9735 68.6189 80.8494 68.246 80.8984 68.0381C80.9123 67.9819 81.6205 67.329 81.708 67.1943C82.1873 66.4451 82.6631 65.6497 83.126 64.833ZM71.4316 72.4121C71.5001 72.5058 71.5299 72.5874 71.5322 72.6592C71.531 72.587 71.5011 72.5056 71.4326 72.4111L71.4316 72.4121ZM11.4395 71.5186C11.4161 71.5376 11.3848 71.555 11.3438 71.5713C11.3849 71.5549 11.4164 71.5378 11.4395 71.5186ZM72.1328 38.6299C74.0062 44.9702 81.1419 50.695 80.7197 57.6826C80.1922 66.4193 68.0721 68.9906 64.248 60.9297C62.9898 58.2771 62.9649 55.075 64.4229 52.4424C64.4368 52.3909 64.4091 52.3279 64.4229 52.2764C64.896 52.3712 64.7651 52.0496 64.8545 51.7783C64.9255 51.5645 64.9972 51.3713 65.0713 51.1895V51.1885C64.9971 51.3703 64.9249 51.5635 64.8535 51.7773C64.7642 52.0485 64.8957 52.3701 64.4229 52.2754C64.6822 51.3684 65.1092 50.3129 65.8242 49.6123C65.6306 50.0041 65.4593 50.3317 65.3008 50.668C65.4595 50.3319 65.6317 50.0048 65.8252 49.6133C65.8477 49.5685 65.8021 49.4922 65.8242 49.4473H65.8232C66.6206 47.8647 67.7236 46.4685 68.6279 44.9541L68.2627 45.9863C68.0299 46.1965 67.8371 46.4307 67.668 46.6777C67.8373 46.4303 68.031 46.1958 68.2646 45.9854L68.6289 44.9541C69.3562 43.7343 70.0749 42.5057 70.8232 41.2959L72.1328 38.6299ZM12.374 58.9326L13.0752 63.2598C12.6431 61.9461 12.2015 60.5999 12.0498 59.2109L12.0234 58.9326C11.9884 58.495 12.0409 58.0425 12.0234 57.6016L12.374 58.9326ZM66.4189 58.4287C66.4141 60.7668 68.1236 63.1384 70.7324 63.2578L70.7305 63.2559C68.1232 63.1339 66.4146 60.7656 66.4189 58.4287ZM15.8809 62.2578H15.8828V61.9287H16.0527V61.9268H15.8809V62.2578ZM33.2285 60.0967C33.1707 60.7257 32.9092 61.2744 32.1768 61.0947C32.3839 60.9163 33.0866 60.2647 33.2285 60.0967ZM86.5195 57.292C86.328 57.8945 86.1334 58.463 85.9375 58.9766C85.6862 59.6355 85.4065 60.3016 85.1055 60.9678C85.4108 60.2943 85.6911 59.6273 85.9385 58.9785C86.1317 58.4719 86.3267 57.9019 86.5195 57.292ZM40.0664 60.5986H40.0645V60.5967L40.0664 60.5986ZM39.8877 59.9297C39.8672 59.9946 39.7009 60.0763 39.7178 60.209C39.7035 60.0776 39.8669 59.9962 39.8867 59.9316L39.8877 59.9307V59.9297ZM40.9893 58.3594C40.8745 58.4947 40.7508 58.6432 40.6895 58.6973C40.6074 58.7695 40.3949 58.7463 40.248 58.8711C40.3952 58.7481 40.6089 58.7716 40.6885 58.6992C40.7499 58.645 40.8736 58.4968 40.9883 58.3613L40.9893 58.3594ZM49.002 58.0967C48.3509 57.8229 48.0706 58.4096 48.0068 58.4268C46.9415 58.6714 45.4939 58.4135 44.5195 58.2637C44.0446 58.1904 43.6288 58.4751 43.3291 58.4385C43.2136 58.4251 43.2344 58.1316 43.1016 58.0996C43.0104 58.078 41.3993 58.0777 41.2363 58.0977C41.223 58.0998 41.1902 58.1312 41.1465 58.1787L41.2021 58.123C41.2174 58.1092 41.2288 58.1012 41.2354 58.1006C41.3988 58.0823 43.0065 58.0826 43.0996 58.1025C43.2328 58.1342 43.2125 58.4281 43.3281 58.4414C43.6277 58.4777 44.0411 58.1935 44.5176 58.2666C45.4902 58.4164 46.9394 58.6742 48.0049 58.4297C48.068 58.4147 48.3485 57.8246 49.002 58.1006C49.0022 58.0994 49.0017 58.0978 49.002 58.0967ZM11.1484 43.7891C11.3903 43.9871 11.4357 44.2754 11.4795 44.5566C12.1489 48.7435 11.8852 53.2353 12.0254 57.4355C11.738 56.5918 11.5535 55.3978 11.5342 54.5225C11.4588 50.8964 11.534 47.4018 11.1484 43.7891ZM63.585 56.458V56.459V56.458ZM33.7725 49.5586C33.7131 50.1601 33.798 50.8216 33.9248 51.2021C34.0039 51.4387 35.2434 52.8343 35.3818 52.8926C35.6111 52.9871 35.9866 52.9098 36.0312 52.9443C36.0368 52.9487 36.0414 52.9599 36.0439 52.9766C36.0414 52.9589 36.0369 52.9471 36.0312 52.9424C35.9866 52.9062 35.6094 52.9852 35.3818 52.8906C35.2434 52.8324 34.0043 51.4371 33.9248 51.2002C33.7981 50.8201 33.7135 50.1595 33.7725 49.5586ZM88.3418 42.3281C88.4001 42.3649 88.4472 42.4233 88.4521 42.5332C88.5328 44.2905 88.3575 47.2449 88.2559 48.9473C88.2296 49.3926 88.1789 49.8753 88.1113 50.3838C88.1796 49.8747 88.2307 49.3924 88.2568 48.9492L88.2588 48.9473C88.3587 47.2447 88.5357 44.2896 88.4551 42.5342C88.45 42.4227 88.4016 42.3646 88.3418 42.3281ZM37.4404 49.8125C37.4392 49.8429 37.4309 49.8854 37.4248 49.9287C37.4311 49.8852 37.4397 49.8426 37.4404 49.8125ZM61.6846 4.41211C64.6777 3.08096 67.1193 3.27735 70.2158 4.01953L70.207 4.0166H70.3818L70.5488 4.06445C71.4196 4.35523 72.8056 5.36923 73.8867 5.84668V6.01367L74.2764 6.16602C74.8462 6.40063 75.8179 6.82185 75.9375 6.89551C75.9799 6.92247 76.6247 7.50526 76.6504 7.54785C76.7729 7.74731 76.6947 8.4266 77.042 8.75488H77.0459C76.6972 8.42543 76.7742 7.74668 76.6533 7.54688C76.627 7.50527 75.9815 6.92116 75.9395 6.89453C75.7787 6.79422 74.1083 6.08156 73.8896 6.0127V5.84668C74.0049 5.89549 74.2953 5.87372 74.5322 5.97461C76.1954 6.68686 77.2457 7.40924 77.3877 9.25977C77.1546 9.56421 76.7983 9.03277 76.6914 9.00781V8.8418H76.6904V9.00781C76.4135 8.94293 75.8231 8.8967 75.4639 8.8418C75.4764 8.80799 75.4908 8.77693 75.5068 8.74902L75.5059 8.75C75.4898 8.77794 75.4755 8.80891 75.4629 8.84277C75.2 8.80283 74.8681 8.86274 74.5859 8.84277L74.585 8.8418C73.7669 8.93233 73.1686 9.28176 72.4863 9.67383C72.5319 9.59728 72.3986 9.30768 72.5195 9.20117C72.8436 9.12779 73.1105 8.95127 73.4004 8.81934C73.1095 8.95109 72.8417 9.12756 72.5166 9.20215C72.3958 9.30871 72.529 9.59827 72.4834 9.6748C72.3701 9.8651 72.1704 9.95189 72.1338 10.0068L71.998 10.2266C70.6558 12.4696 71.1532 13.9785 71.2568 16.4961H71.2578C71.2736 16.8787 71.4125 17.3331 71.4336 17.8271C71.4181 17.8333 71.4034 17.8415 71.3896 17.8506C71.4031 17.8418 71.4176 17.8341 71.4326 17.8281C71.4448 18.104 71.4274 18.3833 71.4326 18.6592L71.4336 18.6602C71.4424 19.1559 71.4511 19.6615 71.4336 20.1572C71.4268 20.1589 71.4205 20.1618 71.4141 20.1641C71.4198 20.1621 71.4256 20.1597 71.4316 20.1582C71.4229 20.379 71.4454 20.6031 71.4316 20.8223L71.4336 20.8232C71.2706 23.3904 70.5453 26.2668 69.1562 28.4766V28.4785C69.0826 29.4437 66.7356 32.4964 65.9697 33.3584C65.7701 33.583 65.6887 33.8137 65.2998 33.8037C66.5211 31.9269 68.2123 29.8889 69.1553 27.9805V27.9785C70.8567 24.5324 71.3055 20.5073 71.083 16.4971H71.082C70.9867 14.7819 70.3858 13.1529 70.9072 11.4922C70.3855 13.1533 70.9857 14.7832 71.0811 16.4971C71.3036 20.5076 70.855 24.534 69.1533 27.9805C68.2104 29.8891 66.5193 31.9277 65.2979 33.8047C65.2718 33.8446 65.3221 33.9274 65.2979 33.9707L64.8359 34.4092H64.8369L64.7734 34.4697L64.7725 34.4707C64.3927 34.9094 64.1361 35.1016 63.7217 35.4668L63.7227 35.4678C63.1426 35.9787 62.5481 36.3638 61.9697 36.7998C62.0713 36.3324 62.6492 35.8279 63.0312 35.5615C63.0523 35.5467 63.0798 35.5278 63.1104 35.5068C63.0792 35.528 63.0516 35.5467 63.0303 35.5615C62.6501 35.8277 62.0706 36.3323 61.9688 36.7998C61.9078 36.8461 61.8598 36.9166 61.7939 36.9648L61.7949 36.9658C61.4024 37.2554 61.059 37.6637 60.5684 37.9648L60.5957 37.4873H60.5947L60.5664 37.9648C60.5122 37.998 60.4683 38.0956 60.3916 38.1309C59.412 40.354 58.2239 45.3203 60.6523 46.9531C61.1062 47.2577 61.3628 47.1046 61.7939 47.6172L61.792 47.6182C62.5041 48.4645 62.2636 48.6902 61.1748 48.7783C60.3021 48.8499 58.6481 48.9061 58.0137 48.2871C57.7053 47.9876 57.8341 47.8897 57.7588 47.6152C57.7006 47.584 57.461 47.6945 57.3945 47.5117C56.4832 46.0121 54.8691 40.3905 53.0781 39.9961C52.4404 39.8547 51.6463 39.956 51.0996 40.292C51.0686 40.2746 51.0435 40.2566 51.0234 40.2383C51.0449 40.2585 51.0719 40.2788 51.1064 40.2979C51.0854 40.3112 50.8034 40.5808 50.7559 40.6309C50.7529 40.6326 50.7491 40.6331 50.7461 40.6348C49.2902 42.1965 49.2246 45.6859 49.7021 47.6162H49.5273L49.1807 47.4961C49.1808 47.4974 49.1815 47.4987 49.1816 47.5L49.5264 47.6191V47.6182H49.7012C49.7415 47.7812 50.2879 48.7023 50.2266 48.7822C46.5083 49.9898 46.217 45.7492 45.0938 43.4229C44.5398 42.2764 42.9875 41.068 44.7939 40.2959C45.0339 39.8401 45.0278 39.6535 45.6709 39.4639C45.4939 40.3542 45.2671 40.0945 44.7939 40.2959C44.7618 40.3571 44.7335 40.4177 44.7041 40.4756C44.7336 40.4177 44.7646 40.3582 44.7969 40.2969C45.2701 40.0955 45.4968 40.3542 45.6738 39.4639C45.7263 39.4492 45.7944 39.4788 45.8486 39.4639C46.1886 39.3673 49.0926 38.0211 49.4062 37.7998C49.6111 37.6534 49.4538 37.4027 49.6465 37.2979C51.4024 36.3477 53.1445 36.1096 54.6113 34.6387C57.354 33.4821 59.6482 32.0225 61.4463 29.8125C61.5024 29.7443 61.579 29.6971 61.6211 29.6455C62.3116 29.6389 62.4328 28.9304 62.6729 28.6475C64.0065 27.0832 64.4023 26.6202 64.9648 24.6133C65.0018 24.4806 65.2935 24.4903 65.2979 24.3877C65.3557 23.0932 65.1542 21.705 65.1191 20.4287L65.1172 20.4268C65.1524 21.7026 65.3536 23.0881 65.2959 24.3838C65.2906 24.4869 65.001 24.4775 64.9639 24.6104C64.4031 26.6173 64.0046 27.0802 62.6709 28.6445H62.6699C62.4298 28.9274 62.3087 29.6359 61.6182 29.6426C61.867 29.3381 62.3469 28.8476 62.4941 28.6445H62.4961C64.8947 25.367 66.1912 22.1542 63.374 18.6621C63.3267 18.6023 63.2473 18.5576 63.1982 18.4961C63.1336 18.4144 63.1821 18.1798 62.9492 17.9902C62.8638 17.9211 62.7471 17.8522 62.6201 17.7949C62.7458 17.8522 62.8616 17.9204 62.9463 17.9893C63.1763 18.1749 63.1312 18.4062 63.1924 18.4922L62.2305 17.9961L62.1445 18.3271C62.1144 18.3102 62.0356 18.3331 61.959 18.3379C62.0366 18.3334 62.1173 18.3108 62.1484 18.3281C62.2173 18.369 62.2616 18.4413 62.3213 18.4912L62.4248 18.583C63.4705 19.5807 63.5713 22.0622 63.3252 23.3555C62.9551 25.2966 61.8887 26.6924 60.583 28.126L60.5732 28.1465C60.2473 28.5042 60.0319 28.6724 59.6973 28.9785L59.3467 29.3115C59.2853 29.3631 59.234 29.426 59.1709 29.4775L59.165 29.4766C58.5665 29.9703 58.7512 29.9318 57.9482 30.3027C57.9466 30.3048 57.9459 30.3075 57.9443 30.3096C57.9409 30.3112 57.937 30.3119 57.9336 30.3135C57.2489 31.1738 57.3922 30.8744 56.5469 31.3018C56.5454 31.3039 56.5445 31.3064 56.543 31.3086C56.5389 31.3107 56.5343 31.3124 56.5303 31.3145C55.883 32.2493 55.6628 32.0536 54.793 32.4678C54.792 32.4696 54.7911 32.4718 54.79 32.4736C54.7875 32.4748 54.7847 32.4754 54.7822 32.4766C54.7578 32.5347 54.8563 32.6509 54.6719 32.8164C54.2425 33.2008 53.0913 33.5494 52.5918 33.9688C52.4508 33.9836 52.477 33.7221 52.5049 33.6387C52.4584 33.6554 52.3806 33.616 52.3369 33.6377C52.3349 33.6387 52.3321 33.6396 52.3301 33.6406L52.0371 34.3145C45.7386 37.3598 39.8659 41.1258 33.8408 44.6172L37.4355 39.9609C37.3935 40.0741 37.4615 40.4069 37.3896 40.6582C37.2512 41.1441 36.7136 41.469 37.0869 42.123C37.0881 42.1224 37.0887 42.1208 37.0898 42.1201C36.7226 41.4698 37.2566 41.1456 37.3965 40.6611C37.4683 40.4083 37.4004 40.0772 37.4424 39.9639C40.015 37.1731 41.2393 33.1651 41.8877 29.2627C42.0593 28.2331 41.911 28.0516 41.9775 27.2266C42.0021 26.9204 42.3142 27.0063 42.3457 26.8682C42.4016 26.622 42.2915 26.3327 42.3457 26.1016C42.3667 26.0067 43.3108 25.4957 43.085 24.8418L43.5508 24.8018C43.3808 23.8516 44.7022 23.4952 45.0791 23.001C45.3315 22.6681 45.2883 22.2773 45.3672 22.1924C45.441 22.1143 45.7576 22.1688 45.9346 21.9893C46.1238 21.7962 46.1235 21.393 46.5459 21.0635C46.779 20.8821 47.1732 20.8489 47.2275 20.7939C47.345 20.6708 47.2175 20.3947 47.2578 20.3281C48.5703 19.2465 49.867 18.2497 51.1689 17.2197C51.5317 16.9318 52.4106 16.5876 52.6787 16.4062C52.8594 16.2844 53.3271 15.5975 53.4375 15.5459C53.6442 15.448 53.9693 15.5619 54.0693 15.4756C54.1341 15.4191 54.0472 15.1502 54.1309 15.0518C54.1852 14.9902 54.9265 14.7666 55.2314 14.502C55.4873 14.2806 55.5455 13.956 55.6699 13.8379C55.7276 13.7831 55.7888 13.7283 55.8447 13.6719C56.0393 13.6153 56.0989 13.4853 56.1953 13.3389C56.8419 12.7298 56.9191 12.8946 57.3975 11.9014C58.3981 9.82292 58.6195 8.3036 59.876 6.18359C60.2106 5.6196 60.1494 5.96855 60.5889 5.61621C60.9954 5.29004 61.0326 4.70167 61.6846 4.41211ZM67.0215 47.8555C66.8767 48.1567 66.7338 48.456 66.5752 48.7402C66.568 48.7535 66.5379 48.7967 66.4941 48.8564C66.5384 48.7963 66.5698 48.7533 66.5771 48.7402C66.7357 48.4562 66.877 48.1565 67.0215 47.8555ZM48.4785 48.6191C48.9096 48.8252 48.8741 48.9022 49.3477 48.6191H49.3418C48.876 48.8971 48.9078 48.8224 48.4844 48.6191H48.4785ZM61.2676 48.4492L61.6094 48.6113H61.6143L61.2695 48.4473L61.2676 48.4492ZM44.9336 42.21C44.9735 42.2409 45.0061 42.2778 45.0254 42.3262C45.3987 43.2764 45.7389 43.8343 46.1455 44.7529C46.552 45.6714 46.8393 47.1139 47.251 47.8213C47.2654 47.8459 47.335 47.9002 47.4336 47.9697C47.3367 47.9011 47.2682 47.848 47.2539 47.8232C46.8422 47.116 46.5444 45.6468 46.1484 44.7549C45.7524 43.8629 45.4016 43.2783 45.0283 42.3281C45.0087 42.2786 44.9747 42.2414 44.9336 42.21ZM61.6221 47.9111C61.6166 47.8991 61.6095 47.8884 61.6025 47.8779C61.6098 47.8883 61.6163 47.8993 61.6221 47.9111ZM61.2676 47.6182C61.3612 47.7308 61.5206 47.7644 61.6006 47.875C61.5226 47.7614 61.3628 47.7283 61.2666 47.6172L61.2676 47.6182ZM55.3145 42.165C56.1048 43.5496 57.3435 46.0892 57.7588 47.6152L57.7617 47.6162C57.3458 46.0884 56.1074 43.5528 55.3174 42.1689C55.1598 41.8933 55.0326 41.6472 54.9111 41.4238L55.3145 42.165ZM58.9766 41.2568C58.8549 42.1561 58.7801 43.1565 58.8174 43.7041C58.8857 44.7076 59.1118 46.1307 59.9512 46.7881C60.2911 47.0543 60.9776 47.1447 61.2266 47.3311C61.273 47.366 61.2778 47.4305 61.2734 47.4902L61.2646 47.5703C61.2719 47.5018 61.2972 47.3815 61.2275 47.3291C60.9803 47.1429 60.2921 47.0531 59.9521 46.7871C59.1127 46.1298 58.8867 44.7066 58.8184 43.7031C58.781 43.1557 58.8549 42.156 58.9766 41.2568ZM67.4629 47.0029C67.3864 47.1334 67.315 47.2664 67.2461 47.4004C67.3149 47.2663 67.3864 47.1334 67.4629 47.0029ZM44.6748 40.5332C44.4476 40.9908 44.3302 41.3663 44.5645 41.9238C44.5957 41.9976 44.6572 42.0419 44.7236 42.082C44.6583 42.0423 44.5982 41.998 44.5674 41.9258C44.333 41.3679 44.4466 40.992 44.6748 40.5332ZM59.4863 39.1436C59.3732 39.4464 59.2741 39.7197 59.252 39.7969C59.1876 40.0188 59.1249 40.3179 59.0674 40.6553C59.125 40.3176 59.1885 40.0184 59.2529 39.7959C59.2749 39.7191 59.3733 39.4462 59.4863 39.1436ZM47.248 20.3242C47.2077 20.3908 47.3334 20.6679 47.2178 20.791C47.1636 20.8457 46.7686 20.8796 46.5361 21.0605C46.1142 21.39 46.114 21.7924 45.9248 21.9854C45.748 22.1666 45.4314 22.1106 45.3574 22.1885C45.2786 22.2733 45.3217 22.6659 45.0693 22.9971C44.6925 23.493 43.371 23.8476 43.541 24.7979L43.0752 24.8379C43.3011 25.4918 42.3587 26.0028 42.3359 26.0977C42.2817 26.3288 42.3935 26.6181 42.3359 26.8643C42.3044 27.0007 41.9923 26.9165 41.9678 27.2227C41.9012 28.0479 42.0479 28.2297 41.8779 29.2598C41.2295 33.1603 40.0051 37.1693 37.4326 39.96C38.1967 37.9298 39.6873 35.9841 40.4619 33.7676C41.275 31.4345 41.3348 29.752 41.6572 27.4141C41.9692 25.1493 45.4287 21.8227 47.2461 20.3232L47.248 20.3242ZM53.1807 39.5176C53.2076 39.5649 53.2215 39.6505 53.2588 39.7168C53.2226 39.6507 53.2099 39.5668 53.1836 39.5205L53.1807 39.5176ZM54.6074 34.6357C53.1407 36.1067 51.3985 36.3448 49.6426 37.2949C49.4498 37.3997 49.6073 37.6531 49.4023 37.7979C49.0904 38.0192 46.1849 39.3653 45.8447 39.4619C45.9658 38.9462 46.9958 38.5364 47.4795 38.2686C49.777 36.9922 52.2118 35.6475 54.6074 34.6357ZM59.7998 38.333C59.7724 38.3989 59.7417 38.4793 59.707 38.5674C59.7417 38.4794 59.7724 38.399 59.7998 38.333ZM61.6797 36.9502C61.1853 36.9188 61.1807 37.475 60.7041 37.4912C61.1823 37.4768 61.1868 36.9207 61.6797 36.9502ZM87.8066 37.4746C87.7685 37.4777 87.7363 37.4785 87.709 37.4775C87.7363 37.4786 87.7685 37.4777 87.8066 37.4746ZM61.4443 29.8096C59.6463 32.0194 57.3528 33.4792 54.6104 34.6357C55.406 33.8387 56.6748 33.4103 57.5703 32.7031L61.4443 29.8096ZM65.2988 33.9707C65.1362 34.2453 64.9654 34.3036 64.8369 34.4092L65.2988 33.9707ZM52.5938 33.4766L52.6787 33.6357C52.6355 33.6579 52.5574 33.6171 52.5117 33.6348V33.6357C52.5583 33.6185 52.6369 33.659 52.6807 33.6367C52.6823 33.6359 52.6839 33.6346 52.6855 33.6338L52.5996 33.4746C52.5977 33.4751 52.5956 33.476 52.5938 33.4766ZM39.3643 28.1455C39.3414 29.4434 39.0574 30.5021 38.6631 31.8066C38.3303 31.6453 38.5491 31.2459 38.6035 31.0029C38.8173 30.0427 38.8841 29.0075 39.3643 28.1455ZM43.0439 7.01172C42.5252 8.10323 41.8957 9.11813 41.4629 10.2529C39.4633 15.4983 40.179 21.6177 39.627 27.1426C39.6008 27.4054 39.7355 27.6238 39.3643 27.8135C39.3888 27.1079 39.4986 26.3083 39.5371 25.5645C39.8385 19.8682 38.9523 11.5016 43.0439 7.01172ZM82.3145 25.0986C82.3917 25.3554 82.6208 25.5512 82.7207 25.8008C82.7955 25.9886 82.8646 26.1748 82.9297 26.3594C82.8643 26.1736 82.7949 25.986 82.7197 25.7969C82.6364 25.5888 82.4633 25.4185 82.3633 25.2188L82.3145 25.0986ZM55.6602 13.834C55.5376 13.9522 55.4783 14.2768 55.2227 14.498C54.9183 14.7622 54.1788 14.9832 54.1221 15.0469C54.0379 15.1434 54.1254 15.4151 54.0605 15.4717C53.9607 15.5582 53.6345 15.4438 53.4277 15.542C53.3168 15.5964 52.8493 16.281 52.6689 16.4023C52.4005 16.5838 51.5228 16.928 51.1602 17.2158C49.8564 18.2458 48.5615 19.2426 47.249 20.3242C47.6768 19.6104 49.0885 18.5655 49.793 17.998C51.6488 16.5054 53.6694 15.1586 55.6602 13.834ZM63.1963 18.4941L63.1943 18.4951C63.1936 18.4942 63.1931 18.4931 63.1924 18.4922L63.1963 18.4941ZM71.3223 17.916C71.3032 17.941 71.2868 17.9691 71.2734 18C71.2868 17.969 71.3031 17.9409 71.3223 17.916ZM59.5156 6.17969C61.7378 3.21086 65.8374 2.32989 69.4248 3.50977C69.7348 3.61286 70.0641 3.68974 70.2061 4.01562C67.1094 3.27343 64.6698 3.07697 61.6748 4.4082C61.0229 4.69776 60.9857 5.28682 60.5791 5.61133C60.1375 5.96413 60.2009 5.61554 59.8662 6.17969L59.6426 6.57031C58.5793 8.49175 58.3267 9.94898 57.3887 11.8975C56.9102 12.8909 56.8332 12.7269 56.1865 13.3359C56.0902 13.4825 56.0306 13.6123 55.8359 13.6689C55.9569 13.5458 56.0639 13.4507 56.1865 13.3359L56.4648 12.8887C57.7317 10.7207 57.9003 8.47941 59.3604 6.39453L59.5156 6.17969ZM72.1025 10.0205C71.8273 10.1399 71.5131 10.2482 71.3525 10.5146C71.3145 10.5771 71.2792 10.6399 71.2451 10.7021C71.2793 10.6397 71.3154 10.5772 71.3535 10.5146C71.5156 10.2484 71.829 10.1397 72.1025 10.0205ZM73.583 8.74609C73.5757 8.74868 73.5688 8.75221 73.5615 8.75488C73.5697 8.75184 73.5777 8.74805 73.5859 8.74512L73.583 8.74609ZM71.6279 5.1709C71.9536 5.36707 72.2819 5.53948 72.5342 5.68359C72.2737 5.53471 71.9482 5.36326 71.6279 5.1709Z" fill="url(#paint0_linear_4505_361)"/>
<defs>
<linearGradient id="paint0_linear_4505_361" x1="31.7377" y1="-6.09072" x2="68.9003" y2="86.5912" gradientUnits="userSpaceOnUse">
<stop stop-color="#00FFFF"/>
<stop offset="1" stop-color="#009999"/>
</linearGradient>
</defs>
</svg>
