<svg width="485" height="91" viewBox="0 0 485 91" fill="none" xmlns="http://www.w3.org/2000/svg">
<path d="M23.0193 74.7386C11.2993 63.4486 8.08928 49.3385 6.68928 39.7485L6.31928 36.8586C5.61928 30.7386 5.68929 19.5586 5.72929 15.8586L6.22929 15.7986C18.4593 14.1786 28.6593 10.8686 37.4093 5.65855C45.9693 10.7486 56.5793 14.1586 68.9593 15.7986L69.4593 15.8586C69.4993 19.4386 69.5493 30.9086 68.8293 37.0986L68.3893 40.3986C66.0793 55.3786 60.9293 66.2886 52.1693 74.7286C47.7793 78.9586 39.9093 83.5085 37.5993 84.8085C35.5793 83.6785 27.4293 78.9886 23.0293 74.7286L23.0193 74.7386Z" fill="white"/>
<path d="M63.9897 19.4186L63.2897 19.3186C60.7297 18.9786 58.2598 18.5486 55.8898 18.0186C55.8398 18.0086 55.7897 17.9986 55.7397 17.9886V40.7785L55.7197 35.0585V64.9586C56.6497 63.5386 57.4797 62.0986 58.2197 60.6386C58.2897 60.4986 58.3597 60.3686 58.4197 60.2286C58.6397 59.7886 58.8397 59.3586 59.0397 58.9186C59.2097 58.5386 59.3797 58.1586 59.5497 57.7686C59.6297 57.5786 59.7098 57.3886 59.7798 57.1986C59.9898 56.6986 60.1898 56.1886 60.3798 55.6786C60.4098 55.5986 60.4397 55.5186 60.4697 55.4286C60.6897 54.8186 60.9098 54.1986 61.1198 53.5686C61.1198 53.5686 61.1198 53.5685 61.1198 53.5585C62.0098 50.8385 62.7398 47.9186 63.3098 44.7986C63.3098 44.7786 63.3098 44.7586 63.3198 44.7286C63.4598 43.9586 63.5897 43.1686 63.7197 42.3686L64.0997 39.5386C64.1797 38.8486 64.4097 35.5086 64.4097 35.5086C64.7697 28.6886 64.6298 19.4986 64.6298 19.4986L63.9797 19.4086L63.9897 19.4186Z" fill="#B01F28"/>
<path d="M9.50988 19.4186L8.86986 19.5086C8.86986 19.5086 8.71985 28.8986 9.07985 35.6586L9.16988 37.1486C9.21988 37.9286 9.28985 38.6686 9.35985 39.3186L9.66988 41.7886C9.66988 41.7886 9.67987 41.8686 9.68987 41.9086C9.72987 42.1786 9.76987 42.4486 9.80987 42.7186C9.80987 42.7486 9.80987 42.7686 9.81987 42.7886C10.7999 49.1386 12.5699 55.8686 16.0799 62.1786C16.0899 62.2086 16.1099 62.2286 16.1199 62.2586C16.2499 62.4986 16.3899 62.7285 16.5299 62.9686C16.5899 63.0686 16.6499 63.1786 16.7099 63.2785C16.8199 63.4585 16.9299 63.6386 17.0399 63.8286C17.1399 63.9786 17.2299 64.1386 17.3299 64.2886C17.3299 64.2986 17.3399 64.3086 17.3499 64.3186V37.0786C17.3499 37.0786 17.3599 22.9886 17.3599 18.0486C15.0699 18.5586 12.6899 18.9786 10.1999 19.3186L9.49987 19.4086L9.50988 19.4186Z" fill="#B01F28"/>
<path d="M38.7997 89.7286C40.6397 88.7086 49.6597 83.6086 54.7397 78.7086C64.2897 69.5086 69.8797 57.7486 72.3597 41.6586L72.8097 38.2785C73.6697 30.8285 73.4797 16.8785 73.4597 15.3085L73.4097 12.3085L68.7597 11.6986C56.8597 10.1286 46.7397 6.84855 38.6897 1.96855L36.5497 0.65855L34.4197 1.95857C26.1797 6.94857 16.4697 10.1385 4.72973 11.6885L0.079709 12.2986L0.039731 15.2986C0.00973095 16.8586 -0.180284 30.6886 0.649716 38.0086L1.02972 40.9685C2.52972 51.2785 5.99973 66.3986 18.7597 78.6986C23.8697 83.6286 32.9497 88.7586 34.7297 89.7386L36.7597 90.8886L38.8197 89.7185L38.7997 89.7286ZM22.1697 75.3286C10.4497 64.0386 7.23972 49.9285 5.83972 40.3385L5.46972 37.4486C4.76972 31.3286 4.83973 20.1486 4.87973 16.4486L5.37973 16.3886C17.6097 14.7686 27.8097 11.4585 36.5597 6.24855C45.1197 11.3385 55.7297 14.7486 68.1097 16.3886L68.6097 16.4486C68.6497 20.0286 68.6997 31.4985 67.9797 37.6885L67.5397 40.9886C65.2297 55.9686 60.0797 66.8786 51.3197 75.3186C46.9297 79.5486 39.0597 84.0986 36.7497 85.3986C34.7297 84.2686 26.5797 79.5786 22.1797 75.3186L22.1697 75.3286Z" fill="black"/>
<path d="M42.4998 49.8085C42.0998 50.0985 38.9898 52.3586 36.5898 54.0986C36.7498 54.2086 36.8998 54.3285 37.0498 54.4385L42.8899 50.1486L42.6098 49.7886C42.5498 49.7986 42.4998 49.8186 42.4998 49.8186V49.8085Z" fill="black"/>
<path d="M34.8899 56.0285C34.7499 55.9185 34.5899 55.7886 34.4299 55.6686C34.2099 55.8286 34.0299 55.9586 33.9199 56.0386L34.2699 56.4886L34.8999 56.0285H34.8899Z" fill="black"/>
<path d="M50.2397 45.0086L43.4697 49.9186L44.3198 51.0086L50.8698 45.8186L50.2397 45.0086Z" fill="black"/>
<path d="M28.1196 60.9286L27.5996 61.3186L27.8996 61.7386L27.9796 61.7986L28.0596 61.8486L28.1396 61.9086L28.2196 61.9685L28.6996 62.3085C28.5896 62.1285 28.6196 61.9086 28.7596 61.7586L28.1096 60.9086L28.1196 60.9286Z" fill="black"/>
<path d="M30.02 62.3986L29.98 62.3686L30.01 62.3385L29.54 61.8486C29.66 62.0486 29.62 62.3086 29.42 62.4586C29.31 62.5486 29.17 62.5686 29.04 62.5386L29.59 62.9286L30.03 62.3886L30.02 62.3986Z" fill="black"/>
<path d="M30.4102 59.7086L30.2101 59.4486L28.5002 60.7185L28.4001 60.7886L28.3701 60.7386L28.1602 60.8986L28.8102 61.7286C28.8102 61.7286 28.8201 61.7186 28.8301 61.7086C28.9901 61.5886 29.2001 61.5886 29.3601 61.6686L28.7902 61.0885L28.7101 60.9985L28.8102 60.9286L30.4102 59.6986V59.7086Z" fill="black"/>
<path d="M28.7801 59.6786L28.7301 59.6086L28.4201 59.8586L28.1701 59.6586L28.0801 59.8085L28.3101 60.0486L28.2001 60.1486L28.2201 60.2986L28.4101 60.5885L28.4301 60.6386L30.1501 59.3686L30.1201 59.3286L29.8001 58.9186L28.7801 59.6786Z" fill="black"/>
<path d="M51.2194 45.4786C51.2194 45.4786 51.2494 45.4986 51.2594 45.5086L50.6394 44.7286L50.3594 44.9286L50.9494 45.6885L51.2194 45.4886V45.4786Z" fill="black"/>
<path d="M51.7599 43.0885L51.7998 43.0585L51.8699 43.1386L52.0998 43.4286L52.1299 43.4586V43.4786L52.2099 43.5686L52.4999 43.9286C52.6399 43.8286 52.8798 43.6486 52.9798 43.5786C53.0498 43.5286 53.0598 43.4486 53.0498 43.3886L53.0199 43.3486L52.6598 42.8786L52.6299 42.8385L52.3598 42.4886C52.1598 42.2586 51.9898 42.1686 51.6698 42.3986C51.4898 42.5286 51.5199 42.7186 51.5899 42.8886L51.7599 43.0986V43.0885ZM52.1999 42.5186C52.2999 42.6386 52.2699 42.8086 52.1499 42.9086C52.0299 43.0086 51.8499 42.9786 51.7499 42.8586C51.6599 42.7386 51.6799 42.5686 51.8099 42.4686C51.9299 42.3786 52.1099 42.3986 52.2099 42.5186H52.1999Z" fill="black"/>
<path d="M50.2895 44.8286L50.2995 44.8385L50.5695 44.6386V44.6286L50.5395 44.5885L50.2695 44.2586L50.0195 44.4786L50.2595 44.7886L50.2895 44.8286Z" fill="black"/>
<path d="M29.8597 63.1486C29.9197 63.2386 30.0397 63.4186 30.2097 63.5486C30.3697 63.6686 30.5697 63.7586 30.8197 63.7386C30.9797 63.7186 31.1497 63.6686 31.3497 63.5386C31.3897 63.5186 31.4297 63.4886 31.4697 63.4586C31.8997 63.1386 32.0497 62.7785 32.0897 62.5285L32.0097 62.3686L31.9497 62.2586L31.8897 62.1186L31.5197 61.3786L31.4297 61.4286L30.1997 62.3986L30.1197 62.4586L29.6797 63.0086L29.7097 63.0285L29.8697 63.1486H29.8597ZM30.2997 63.4886C29.9897 63.1186 30.1797 62.7485 30.1797 62.7485C30.1197 62.9185 30.2297 63.2386 30.2297 63.2386C30.5397 63.6786 30.8097 63.4786 30.8097 63.4786H30.7197C30.6397 63.4786 30.2397 63.1686 30.3597 62.9586C30.4797 62.7486 30.6497 62.2586 30.6497 62.2586C30.6497 62.2586 30.7197 62.1886 30.8297 62.1086C31.0597 61.9386 31.4597 61.7386 31.7397 62.0786C32.1497 62.5886 31.6197 63.1086 31.4097 63.3186C31.3797 63.3586 31.3297 63.3986 31.2797 63.4286C31.0197 63.6286 30.5597 63.8085 30.2997 63.4985V63.4886Z" fill="black"/>
<path d="M28.77 62.1885C28.77 62.1885 28.78 62.2186 28.79 62.2286C28.8 62.2586 28.81 62.2786 28.83 62.2986C28.95 62.4586 29.19 62.4886 29.35 62.3686C29.52 62.2486 29.55 62.0186 29.42 61.8586C29.3 61.6986 29.06 61.6686 28.9 61.7886C28.9 61.7886 28.9 61.7886 28.89 61.7986C28.87 61.8186 28.85 61.8386 28.83 61.8586C28.81 61.8786 28.8 61.8986 28.79 61.9186C28.79 61.9386 28.78 61.9485 28.77 61.9685C28.77 61.9985 28.76 62.0186 28.75 62.0386C28.75 62.0586 28.75 62.0785 28.75 62.0885C28.75 62.1185 28.75 62.1386 28.76 62.1686L28.77 62.1885Z" fill="black"/>
<path d="M43.3696 49.7886L43.3996 49.8286L50.1595 44.9186L50.1296 44.8786L49.8495 44.5186H49.7996C49.2896 44.8986 43.7296 48.9086 43.0596 49.3886L43.3696 49.7886Z" fill="black"/>
<path d="M43.6701 51.7686C43.6701 51.7686 43.8301 51.6586 43.9901 51.5486L43.0002 50.2785L42.9701 50.2386L37.1602 54.5086C37.1602 54.5086 37.1901 54.5286 37.2101 54.5386C37.7601 54.9386 38.2401 55.2886 38.5801 55.5386C40.4801 54.0486 43.2401 51.8686 43.2401 51.8686C43.3501 52.0086 43.6801 51.7785 43.6801 51.7785L43.6701 51.7686Z" fill="black"/>
<path d="M36.4196 57.2386C36.2996 57.1286 36.1796 57.0386 36.0796 56.9586C35.9696 56.8686 35.5696 56.5586 35.0296 56.1286C35.0196 56.1186 34.9996 56.1085 34.9896 56.0885L34.3096 56.5885L34.3396 56.6386L34.2996 56.6686L34.2496 56.7086L34.1096 56.8085L34.0196 56.8786L33.5396 57.2286L33.4596 57.5585V57.5986L33.4196 57.6186L30.9696 59.4985L30.8896 59.5585L30.6096 59.7686L30.5796 59.7986L30.5496 59.8286L30.5196 59.8486L30.4896 59.8085L28.8896 61.0386L30.1096 62.2886L30.1496 62.3286L30.1896 62.2986L31.0296 61.6286L30.8196 61.7286L31.5296 61.1686L31.9896 60.7986L32.0996 60.7086H32.1196L33.1096 59.9086L33.2096 59.8286L33.2396 59.8085L34.1096 59.1086L34.2096 59.0285L34.2396 59.0786H34.2496L35.2396 58.3286C35.5596 58.0386 36.0196 57.6085 36.4396 57.2485L36.4196 57.2386Z" fill="black"/>
<path d="M52.1299 43.6286L52.09 43.6586L51.6699 43.9486L52.27 44.7286C52.35 44.6786 52.4299 44.6186 52.4999 44.5686C52.7199 44.4086 52.6099 44.2286 52.6099 44.2286L52.4899 44.0686L52.4299 43.9886L52.14 43.6286H52.1299Z" fill="black"/>
<path d="M30.3596 58.5186L29.9296 58.8286L29.8896 58.8586L30.1996 59.2686L30.2296 59.3085L30.2696 59.3486L30.2996 59.3886L30.4996 59.6486L30.5296 59.6885L30.5796 59.6586L30.8096 59.4786L30.7796 59.4286L30.5196 59.1386L30.4996 59.1186L30.4896 59.0986L30.3596 58.6086L30.3396 58.5486L30.3596 58.5186Z" fill="black"/>
<path d="M31.2397 58.4985C30.9097 58.7485 30.6497 58.4385 30.6497 58.4385L30.5097 58.5386L30.4697 58.5786L30.6097 59.0686L30.8697 59.3686L30.9097 59.4086L30.9497 59.3686L33.3497 57.5285L33.4397 57.1586L33.8997 56.8186L33.8697 56.7785L33.6097 56.4486L33.0097 56.9286L31.4997 58.0885C31.4997 58.0885 31.5797 58.2486 31.2397 58.4886V58.4985Z" fill="black"/>
<path d="M42.79 49.7586L44.11 51.4586C44.16 51.4186 44.2201 51.3786 44.2501 51.3586C44.2901 51.3286 44.3101 51.2885 44.3101 51.2485L43.0101 49.5786L42.79 49.7586Z" fill="black"/>
<path d="M50.6201 44.5285L50.6501 44.5686L50.6801 44.6086L50.72 44.6486L51.3801 45.4786C51.3801 45.4786 51.4 45.4686 51.41 45.4586C51.41 45.4586 51.4201 45.4486 51.4301 45.4486C51.4801 45.4086 51.5201 45.3586 51.5201 45.3586C51.5201 45.3586 51.77 45.5986 51.97 45.4586C52.16 45.3186 51.91 44.9886 51.91 44.9886C51.91 44.9886 52.0101 44.9185 52.1301 44.8385C52.1401 44.8285 52.16 44.8185 52.17 44.8085L51.5701 44.0285L51.5301 44.0585L51.47 43.9685L51.4301 43.9286L51.22 43.6486L51.16 43.5686H51.17L51.0901 43.5585L50.3701 44.1186L50.3301 44.1486L50.6301 44.5386L50.6201 44.5285Z" fill="black"/>
<path d="M51.5398 43.8886L51.5498 43.9086V43.8986L51.5998 43.8686L52.0098 43.5786L52.0598 43.5486L52.0498 43.5386L52.0198 43.4985L51.7898 43.1986V43.2086L51.7398 43.2386L51.3398 43.5486L51.2998 43.5786L51.5098 43.8486L51.5398 43.8886Z" fill="black"/>
<path d="M32.1101 62.2785C32.1101 62.2785 32.1501 62.3786 32.2101 62.4286C32.2601 62.4586 32.3201 62.4885 32.4101 62.4985C32.5301 62.5085 32.6301 62.4686 32.7101 62.4086C32.8601 62.2986 32.9501 62.1186 32.9501 62.1186C32.9501 62.1186 34.0301 60.5786 34.2701 60.2086C34.5101 59.8386 34.2701 59.4186 34.2701 59.4186L34.1701 59.2386L34.1401 59.1885L33.2701 59.8886L33.3001 59.9385L33.7201 60.6586L33.5801 60.7286L33.1801 60.0285L33.1501 59.9786L32.1701 60.7586L32.1901 60.8085L32.8101 62.0086L32.6701 62.0786L32.0701 60.9086L32.0401 60.8586L31.6201 61.1885L31.5801 61.2286L31.6101 61.2785L32.0101 62.0986L32.0701 62.2185L32.1001 62.2686L32.1201 62.3085V62.2686L32.1101 62.2785Z" fill="black"/>
<path d="M33.7801 56.1286L33.6201 56.2785V56.2886L33.6301 56.3085L33.6701 56.3486L33.9601 56.7185L33.9901 56.7586V56.7686L34.0301 56.7286L34.1801 56.6286L34.1401 56.5786L33.7901 56.1286H33.7801Z" fill="black"/>
<path d="M30.3894 49.7785L30.1094 50.1386L35.9494 54.4286L35.9894 54.4685L36.0294 54.4985L36.4994 54.8385L36.5394 54.8786L36.5794 54.9086L36.6194 54.9486L37.9994 55.9586L38.0394 55.9886L38.0794 56.0285L38.7094 56.4886L39.0594 56.0386C38.9494 55.9586 38.7694 55.8286 38.5394 55.6686C38.5294 55.6586 38.5094 55.6386 38.4994 55.6286C38.4894 55.6186 38.4694 55.6086 38.4594 55.5986C38.0994 55.3386 37.6194 54.9886 37.0794 54.5986C37.0694 54.5886 37.0494 54.5786 37.0394 54.5686C37.0394 54.5686 37.0094 54.5486 36.9994 54.5386C36.9994 54.5386 36.9694 54.5085 36.9494 54.4985C36.7994 54.3885 36.6494 54.2786 36.4894 54.1586C36.4794 54.1586 36.4594 54.1386 36.4394 54.1286C36.4294 54.1186 36.4094 54.1086 36.3994 54.0986C34.0094 52.3586 30.8894 50.0985 30.4894 49.8085C30.4894 49.8085 30.4394 49.7885 30.3794 49.7785H30.3894Z" fill="black"/>
<path d="M29.5296 49.9186L22.7696 45.0086L22.1396 45.8186L28.6896 51.0086L29.5296 49.9186Z" fill="black"/>
<path d="M43.6398 61.6786C43.7998 61.5886 44.0098 61.5985 44.1698 61.7185C44.1698 61.7185 44.1798 61.7386 44.1898 61.7386L44.8398 60.9086L44.6298 60.7485L44.5998 60.7986L44.5098 60.7286L42.7898 59.4586L42.5898 59.7185L44.1898 60.9486L44.2798 61.0186L44.1998 61.1086L43.6298 61.6885L43.6398 61.6786Z" fill="black"/>
<path d="M43.9697 62.5486C43.8397 62.5686 43.6998 62.5485 43.5798 62.4685C43.3798 62.3185 43.3398 62.0586 43.4598 61.8586L42.9797 62.3486L43.0098 62.3786L42.9697 62.4086L43.4097 62.9486L43.9598 62.5585L43.9697 62.5486Z" fill="black"/>
<path d="M44.9398 61.8486L45.0198 61.7986L45.0997 61.7386L45.3998 61.3186L44.8798 60.9286L44.2197 61.7785C44.3597 61.9285 44.3897 62.1486 44.2897 62.3286L44.7698 61.9886L44.8497 61.9286L44.9398 61.8686V61.8486Z" fill="black"/>
<path d="M44.8294 59.6586L44.5894 59.8586L44.2794 59.6086L44.2194 59.6786L43.1994 58.9186L42.8894 59.3286L42.8594 59.3686L44.5694 60.6386L44.5994 60.5885L44.7794 60.2986L44.7994 60.1486L44.6994 60.0486L44.9294 59.8085L44.8294 59.6586Z" fill="black"/>
<path d="M21.75 45.4985C21.75 45.4985 21.78 45.4885 21.79 45.4685L22.06 45.6686L22.65 44.9086L22.38 44.7086L21.76 45.4886L21.75 45.4985Z" fill="black"/>
<path d="M19.9594 43.3786C19.9494 43.4386 19.9594 43.5186 20.0194 43.5786C20.1194 43.6486 20.3695 43.8386 20.5095 43.9386L20.7895 43.5786L20.8594 43.4886V43.4686L20.8994 43.4386L21.1295 43.1486L21.1995 43.0686L21.2394 43.0986L21.4095 42.8886C21.4795 42.7186 21.5094 42.5286 21.3294 42.3986C21.0094 42.1586 20.8395 42.2586 20.6295 42.4886L20.3694 42.8385L20.3294 42.8786L19.9695 43.3486L19.9395 43.3886L19.9594 43.3786ZM20.8094 42.5186C20.8994 42.3986 21.0794 42.3686 21.2094 42.4686C21.3394 42.5686 21.3595 42.7286 21.2595 42.8586C21.1595 42.9786 20.9894 43.0086 20.8594 42.9086C20.7394 42.8186 20.7094 42.6486 20.8094 42.5186Z" fill="black"/>
<path d="M22.4397 44.6286L22.4297 44.6386L22.7097 44.8385V44.8286L22.7397 44.7886L22.9897 44.4786L22.7297 44.2586L22.4697 44.5885L22.4397 44.6286Z" fill="black"/>
<path d="M43.3302 62.9985L42.8802 62.4486L42.8002 62.3886L41.5702 61.4186L41.4702 61.3686L41.1102 62.1086L41.0402 62.2485L40.9902 62.3586L40.9102 62.5186C40.9502 62.7686 41.1002 63.1386 41.5302 63.4486C41.5702 63.4786 41.6102 63.5085 41.6502 63.5285C41.8502 63.6585 42.0202 63.7086 42.1802 63.7286C42.4302 63.7486 42.6302 63.6586 42.7902 63.5386C42.9602 63.3986 43.0802 63.2286 43.1402 63.1386L43.3002 63.0186L43.3302 62.9886V62.9985ZM42.7102 63.4886C42.4502 63.7986 41.9902 63.6186 41.7302 63.4186C41.6802 63.3786 41.6302 63.3485 41.6002 63.3085C41.4002 63.0985 40.8602 62.5686 41.2702 62.0686C41.5502 61.7286 41.9502 61.9286 42.1802 62.0986C42.2902 62.1786 42.3602 62.2485 42.3602 62.2485C42.3602 62.2485 42.5302 62.7386 42.6502 62.9486C42.7702 63.1586 42.3802 63.4685 42.2902 63.4685H42.2002C42.2002 63.4685 42.4702 63.6686 42.7802 63.2286C42.7802 63.2286 42.9002 62.9086 42.8302 62.7386C42.8302 62.7386 43.0202 63.1086 42.7102 63.4786V63.4886Z" fill="black"/>
<path d="M44.2099 62.2286C44.2099 62.2286 44.2298 62.1985 44.2298 62.1885C44.2298 62.1585 44.2298 62.1386 44.2298 62.1086C44.2298 62.0986 44.2298 62.0785 44.2298 62.0585C44.2298 62.0385 44.2298 62.0086 44.2198 61.9886C44.2198 61.9686 44.2099 61.9585 44.1999 61.9385C44.1899 61.9185 44.1698 61.8985 44.1598 61.8785C44.1398 61.8585 44.1198 61.8286 44.0998 61.8186C44.0998 61.8186 44.0999 61.8085 44.0899 61.8085C43.9299 61.6885 43.6899 61.7185 43.5699 61.8785C43.4399 62.0385 43.4699 62.2686 43.6399 62.3886C43.7999 62.5086 44.0398 62.4786 44.1598 62.3186C44.1798 62.2986 44.1899 62.2685 44.1999 62.2485L44.2099 62.2286Z" fill="black"/>
<path d="M23.1498 44.5186L22.8698 44.8786L22.8398 44.9186L29.5999 49.8286L29.6299 49.7785L29.9398 49.3786C29.2599 48.8886 23.7099 44.8886 23.1999 44.5086H23.1498V44.5186Z" fill="black"/>
<path d="M36.5398 57.1986C36.5398 57.1986 36.5698 57.2286 36.5798 57.2386C36.9998 57.5986 37.4598 58.0286 37.7798 58.3186L38.7698 59.0686H38.7798L38.8098 59.0285L38.9098 59.1086L39.7898 59.8085L39.8098 59.8286L39.9098 59.9086L40.8998 60.6885H40.9198L41.0198 60.7886L41.4898 61.1586L42.1998 61.7185L41.9998 61.6186H41.9898L42.8298 62.2785L42.8698 62.3186L42.9098 62.2785L44.1298 61.0285L42.5298 59.7986L42.4998 59.8385L42.4798 59.8186L42.4498 59.7886L42.4198 59.7586L42.1398 59.5486L42.0598 59.4886L39.6098 57.6086L39.5798 57.5885V57.5486L39.4898 57.2185L39.0098 56.8686L38.9198 56.7986L38.7698 56.6986L38.7198 56.6586L38.6798 56.6286L38.7098 56.5885L38.0198 56.0786L37.9798 56.0486L37.9398 56.0186L36.5598 54.9985L36.5098 54.9685L36.4698 54.9385L36.4298 54.8986L35.9598 54.5585L35.9198 54.5186L35.8798 54.4886L30.0698 50.2185L30.0398 50.2686L29.0498 51.5386C29.1998 51.6486 29.3598 51.7586 29.3598 51.7586C29.3598 51.7586 29.6898 51.9786 29.7998 51.8486C29.7998 51.8486 32.5598 54.0286 34.4598 55.5186C34.4698 55.5286 34.4898 55.5385 34.4998 55.5585C34.5098 55.5685 34.5298 55.5785 34.5398 55.5885C34.6998 55.7185 34.8598 55.8386 34.9998 55.9486C35.0098 55.9586 35.0298 55.9786 35.0398 55.9886C35.0398 55.9886 35.0698 56.0085 35.0798 56.0285C35.0798 56.0285 35.1098 56.0486 35.1198 56.0686C35.6498 56.4786 36.0298 56.7886 36.1498 56.8786C36.2598 56.9686 36.3798 57.0686 36.4998 57.1686C36.5098 57.1786 36.5298 57.1886 36.5398 57.2086V57.1986Z" fill="black"/>
<path d="M20.5293 44.0786L20.4093 44.2386C20.4093 44.2386 20.2993 44.4086 20.5193 44.5786C20.5893 44.6286 20.6693 44.6886 20.7493 44.7386L21.3493 43.9586L20.9293 43.6686L20.8894 43.6386L20.5993 43.9985L20.5393 44.0885L20.5293 44.0786Z" fill="black"/>
<path d="M42.4694 59.6885L42.4995 59.6486L42.7095 59.3886L42.7294 59.3486L42.7695 59.3085L42.7994 59.2686L43.1194 58.8586H43.1094L43.0695 58.8286L42.6495 58.5186H42.6395L42.6694 58.5486L42.6495 58.6086L42.5095 59.0986L42.4995 59.1186L42.4894 59.1386L42.2294 59.4286L42.1895 59.4786L42.4294 59.6586L42.4694 59.6885Z" fill="black"/>
<path d="M39.5696 57.1686L39.6596 57.5386L42.0596 59.3786L42.0996 59.4186L42.1396 59.3786L42.3996 59.0786L42.5296 58.5885L42.4796 58.5486L42.3396 58.4486C42.3396 58.4486 42.0796 58.7486 41.7496 58.5086C41.4196 58.2586 41.4896 58.1086 41.4896 58.1086L39.9796 56.9486L39.3796 56.4685L39.1296 56.7986L39.0996 56.8385L39.5496 57.1786L39.5696 57.1686Z" fill="black"/>
<path d="M28.6895 51.2485C28.6895 51.2485 28.7095 51.3286 28.7495 51.3586C28.7795 51.3786 28.8295 51.4186 28.8895 51.4586L30.1995 49.7586L29.9795 49.5786L28.6895 51.2485Z" fill="black"/>
<path d="M21.5801 43.9086L21.5401 43.9586L21.4801 44.0486L21.4401 44.0186L20.8301 44.7986C20.8301 44.7986 20.8601 44.8186 20.8701 44.8286C20.9901 44.9186 21.0901 44.9786 21.0901 44.9786C21.0901 44.9786 20.8401 45.3086 21.0301 45.4486C21.2201 45.5886 21.4801 45.3486 21.4801 45.3486C21.4801 45.3486 21.5201 45.3985 21.5701 45.4385C21.5701 45.4385 21.5801 45.4486 21.5901 45.4486C21.5901 45.4486 21.6101 45.4585 21.6201 45.4685L22.2701 44.6386L22.3001 44.5986L22.3401 44.5585L22.3701 44.5186L22.6701 44.1386L22.6301 44.0986L21.9101 43.5386C21.9101 43.5386 21.8701 43.5386 21.8301 43.5386H21.8401L21.7701 43.6286L21.5601 43.8986L21.5801 43.9086Z" fill="black"/>
<path d="M21.2195 43.2086V43.1986L20.9894 43.4985L20.9495 43.5386L20.9395 43.5486H20.9495L20.9894 43.5786L21.4095 43.8686L21.4495 43.8986V43.9086L21.4594 43.8886L21.4995 43.8486L21.7094 43.5786L21.6595 43.5486L21.2595 43.2386L21.2195 43.2086Z" fill="black"/>
<path d="M40.8895 62.2886V62.3186L40.9095 62.2886L40.9395 62.2286L40.9995 62.1086L41.3995 61.2886L41.4295 61.2386L41.3895 61.1986L40.9695 60.8686L40.9495 60.9186L40.3495 62.0885L40.2095 62.0186L40.8195 60.8186L40.8495 60.7686L39.8695 59.9786L39.8395 60.0285L39.4295 60.7286L39.2895 60.6586L39.7095 59.9385L39.7395 59.8886L38.8695 59.1885L38.8395 59.2386L38.7395 59.4186C38.7395 59.4186 38.4995 59.8386 38.7395 60.2086C38.9795 60.5786 40.0595 62.1186 40.0595 62.1186C40.0595 62.1186 40.1495 62.2886 40.2995 62.4086C40.3795 62.4686 40.4795 62.5085 40.5995 62.4985C40.6995 62.4885 40.7595 62.4586 40.7995 62.4286C40.8595 62.3786 40.8895 62.3286 40.8995 62.2886H40.8895Z" fill="black"/>
<path d="M38.8301 56.6286L38.9701 56.7286L39.0101 56.7686H39.0201V56.7586L39.0501 56.7185L39.3401 56.3486L39.3801 56.3085L39.3901 56.2886V56.2785L39.2201 56.1286H39.2101L38.8601 56.5786L38.8301 56.6286Z" fill="black"/>
<path d="M37.94 82.7886C39.41 81.9686 46.96 77.6485 51.15 73.5585C59.01 65.8885 63.6199 56.0686 65.6699 42.6386L66.0499 39.7785C66.7899 33.3385 66.6 20.0486 66.59 19.4786L66.56 17.8486L63.56 17.4486C60.84 17.0886 58.24 16.6086 55.75 16.0386C55.17 15.9086 54.5999 15.7686 54.0399 15.6186C54.0399 16.1386 54.03 37.0986 54.03 37.0986V41.9985L53.9799 41.9685L52.7899 42.8486L53.08 43.2386L54.03 42.5285V67.3886C53.79 67.7086 53.54 68.0286 53.28 68.3486C53.1 68.5686 52.9199 68.7986 52.7399 69.0186C52.7099 69.0586 52.6199 69.1686 52.4699 69.3286C52.4699 69.3386 52.45 69.3586 52.44 69.3686C52.43 69.3786 52.4199 69.3986 52.4099 69.4086C51.6899 68.7085 50.5 67.6085 49.03 66.5285C46.59 64.7385 45.9899 64.2885 45.4699 62.9385C45.4699 62.9385 45.15 62.3186 44.93 62.0086L44.8499 62.0686L43.5 63.0285L43.4699 63.0486C43.6799 63.3086 44.34 64.1386 44.62 64.5186C44.96 64.9886 45.36 65.6586 45.02 66.1986C45.02 66.1986 45.27 66.6786 45.88 67.1586C46.49 67.6286 47.5599 69.5686 48.2399 70.6686L48.4099 70.9886C48.4099 70.9886 48.2899 71.2185 48.3599 71.3385C48.3599 71.3385 48.22 71.8286 48.27 71.9586C48.27 71.9586 48.3 72.0786 48.44 72.1786C48.51 72.2286 48.5999 72.2786 48.7299 72.2986C48.7299 72.2986 48.7699 72.2286 48.7999 72.1386C48.8299 72.0486 48.8599 71.9186 48.8499 71.7386C48.8499 71.7386 49.06 72.1886 49.34 72.5986C49.33 72.6086 49.3099 72.6186 49.2999 72.6386C49.2899 72.6486 49.27 72.6686 49.26 72.6786C49.02 72.9086 48.77 73.1386 48.52 73.3586C43.99 77.2586 37.02 81.1085 36.94 81.1586L36.75 81.2686H36.72L36.56 81.1586C36.49 81.1185 29.5899 77.2986 25.0499 73.4286C24.6499 73.0486 24.29 72.6886 23.94 72.3486C23.93 72.3386 23.91 72.3285 23.9 72.3085C23.8899 72.2985 23.8699 72.2786 23.8599 72.2686C24.0299 71.9786 24.14 71.7386 24.14 71.7386C24.14 71.9186 24.16 72.0486 24.19 72.1386C24.22 72.2286 24.25 72.2786 24.26 72.2886C24.39 72.2786 24.4799 72.2286 24.5499 72.1786C24.6899 72.0786 24.72 71.9586 24.72 71.9586C24.77 71.8286 24.64 71.3385 24.64 71.3385C24.7 71.2285 24.59 70.9886 24.59 70.9886L24.76 70.6686C25.44 69.5686 26.5 67.6286 27.12 67.1586C27.73 66.6786 27.98 66.1986 27.98 66.1986C27.64 65.6586 28.04 64.9786 28.38 64.5186C28.67 64.1286 29.32 63.3086 29.53 63.0486L29.5 63.0186L28.15 62.0585L28.07 61.9985C27.85 62.3185 27.53 62.9286 27.53 62.9286C27 64.2786 26.4 64.7186 23.97 66.5186C22.67 67.4786 21.5899 68.4486 20.8599 69.1386C20.8499 69.1286 20.8399 69.1086 20.8299 69.0986C20.8199 69.0886 20.81 69.0685 20.79 69.0585C20.64 68.8785 20.49 68.7085 20.35 68.5285C20.27 68.4185 20.18 68.3186 20.1 68.2086C19.93 67.9986 19.77 67.7886 19.6 67.5786C19.52 67.4686 19.44 67.3686 19.35 67.2586C19.24 67.1186 19.14 66.9686 19.03 66.8286C19.03 66.8286 19.03 54.9285 19.04 42.7185V42.5885L19.91 43.2286L20.2 42.8385L19.04 41.9886V41.8486C19.04 31.3686 19.04 16.2586 19.04 15.6986C18.48 15.8386 17.9099 15.9786 17.3299 16.1086C14.9599 16.6486 12.5 17.0985 9.90996 17.4385L6.90996 17.8385L6.87996 19.4685C6.87996 20.0285 6.67996 33.2185 7.37996 39.5285L7.69997 42.0285C8.70997 49.0885 10.82 58.8386 17.31 67.7586V67.7986H17.34C18.77 69.7686 20.42 71.6986 22.32 73.5486C26.52 77.6386 34.0599 81.9486 35.5499 82.7886L36.7099 83.4586L37.9 82.7785L37.94 82.7886ZM55.7299 35.0686L55.75 40.7886V17.9985C55.8 18.0085 55.85 18.0185 55.9 18.0285C58.27 18.5585 60.7399 18.9886 63.2999 19.3286L64 19.4286L64.65 19.5186C64.65 19.5186 64.79 28.6985 64.43 35.5285C64.43 35.5285 64.2 38.8785 64.12 39.5585L63.7399 42.3886C63.6199 43.1886 63.49 43.9785 63.34 44.7485C63.34 44.7685 63.34 44.7986 63.33 44.8186C62.76 47.9486 62.03 50.8586 61.14 53.5786C61.14 53.5786 61.14 53.5785 61.14 53.5885C60.94 54.2185 60.7199 54.8386 60.4899 55.4486C60.4599 55.5286 60.43 55.6086 60.4 55.6986C60.21 56.2086 60.0099 56.7185 59.7999 57.2185C59.7199 57.4085 59.65 57.6086 59.57 57.7886C59.41 58.1786 59.23 58.5585 59.06 58.9385C58.86 59.3785 58.65 59.8085 58.44 60.2485C58.37 60.3885 58.2999 60.5186 58.2399 60.6586C57.4999 62.1185 56.6599 63.5586 55.7399 64.9786V35.0786L55.7299 35.0686ZM48.4 71.6786L48.57 71.4786C48.61 71.5386 48.69 72.1186 48.69 72.1186L48.43 71.9186L48.4099 71.6686L48.4 71.6786ZM24.5799 71.9286L24.32 72.1286C24.32 72.1286 24.39 71.5486 24.44 71.4886L24.6099 71.6885L24.5799 71.9385V71.9286ZM9.80995 42.7185C9.76995 42.4485 9.72996 42.1786 9.68996 41.9086C9.68996 41.8685 9.67997 41.8286 9.66997 41.7886L9.35994 39.3186C9.28994 38.6686 9.21997 37.9286 9.16997 37.1486L9.07994 35.6586C8.72994 28.8986 8.86995 19.5086 8.86995 19.5086L9.50997 19.4186L10.2099 19.3286C12.6999 18.9986 15.08 18.5685 17.37 18.0585C17.37 23.0085 17.3599 37.0885 17.3599 37.0885V64.3286C17.3599 64.3286 17.35 64.3086 17.34 64.2986C17.24 64.1486 17.1499 63.9885 17.0499 63.8385C16.9399 63.6485 16.83 63.4686 16.72 63.2886C16.66 63.1886 16.6 63.0786 16.54 62.9786C16.4 62.7386 16.27 62.5086 16.13 62.2686C16.11 62.2386 16.1 62.2185 16.09 62.1885C12.58 55.8685 10.8099 49.1386 9.82994 42.7986C9.82994 42.7686 9.82996 42.7486 9.81996 42.7286L9.80995 42.7185Z" fill="black"/>
<path fill-rule="evenodd" clip-rule="evenodd" d="M51.9097 25.8486C50.9997 26.4786 51.3497 28.0085 51.4697 28.0285C51.5897 28.0385 52.2498 34.5286 51.5198 37.9486C52.4998 36.8386 52.7197 27.2686 51.9097 25.8486Z" fill="black"/>
<path fill-rule="evenodd" clip-rule="evenodd" d="M35.2403 34.1486C35.3003 34.1486 35.3603 34.1686 35.4003 34.1486C37.5503 32.8286 39.6202 31.3886 41.6702 29.9086C41.9402 29.7086 42.0703 29.4486 41.9603 28.9786C39.7703 30.4486 37.6603 31.8686 35.5503 33.2886C35.2303 33.5086 35.1303 33.7886 35.2503 34.1486H35.2403Z" fill="black"/>
<path fill-rule="evenodd" clip-rule="evenodd" d="M29.3901 21.4685C31.4401 20.1585 33.4501 18.7786 35.4201 17.3586C35.7501 17.1186 35.9901 16.8586 35.8001 16.3286C33.5701 17.8286 29.0101 20.9286 28.9501 21.0386C28.8501 21.2186 28.6801 21.4386 28.8801 21.6186C29.0601 21.7786 29.2301 21.5686 29.3801 21.4786L29.3901 21.4685Z" fill="black"/>
<path fill-rule="evenodd" clip-rule="evenodd" d="M30.1404 30.1186C30.6904 28.9786 32.4704 29.3886 32.6004 27.8886C32.1904 27.9986 31.8204 27.9386 31.4304 27.8386C30.2104 27.5186 29.4704 28.1086 29.4404 29.4186C29.8004 29.2186 29.9904 28.5686 30.6204 28.9986C30.5104 29.1486 30.4104 29.2886 30.3204 29.4286C30.2204 29.5686 30.0604 29.6886 30.1504 30.1186H30.1404Z" fill="black"/>
<path fill-rule="evenodd" clip-rule="evenodd" d="M38.71 18.7686L38.72 18.7586V18.7485L38.71 18.7686Z" fill="black"/>
<path fill-rule="evenodd" clip-rule="evenodd" d="M33.2495 20.1885C33.2495 20.1885 32.9995 20.2786 32.8695 20.3686C32.3795 20.7786 32.0195 21.2586 32.0295 21.9186C32.0295 22.2686 32.1695 22.5286 32.5695 22.5986C33.0595 22.6886 33.2495 22.1586 33.2495 22.1586C33.2495 22.1586 33.4695 21.6586 33.3395 21.3486C33.0595 21.4686 33.0395 21.9786 32.6395 21.7086C32.1495 21.1286 33.2595 20.1786 33.2595 20.1786L33.2495 20.1885Z" fill="black"/>
<path fill-rule="evenodd" clip-rule="evenodd" d="M48.18 33.0885C47.03 32.8285 45.91 32.4885 44.88 31.8085C45.6 31.4419 46.3267 31.3019 47.06 31.3886C48.91 31.6186 49.75 30.8686 49.69 29.0486C49.68 28.8186 49.46 27.4086 49.78 26.9486C50 26.6286 49.4 25.4786 49.02 25.4086C48.95 25.3986 48.83 25.4486 48.8 25.4986C48.61 25.8786 48.2 26.2286 48.38 26.6886C48.67 27.4386 48.73 28.2086 48.86 28.9786C48.93 29.3586 49.2 29.8486 48.81 30.1086C48.34 30.4286 47.74 30.6086 47.16 30.2386C47.4 29.7786 47.68 29.3586 47.84 28.8986C48.09 28.1886 47.51 27.8586 47.03 27.5186C46.76 27.3286 46.52 27.2486 46.25 27.5486C45.65 28.2086 45.2 28.9885 45.42 29.8385C45.6 30.5185 45.3 30.6185 44.83 30.8085C44.08 31.1185 43.21 31.2486 42.84 32.1286C42.68 32.4986 42.64 32.6686 43.11 32.7986C44.26 33.1286 45.4 33.5086 46.55 33.8786C46.38 34.2286 40.04 35.9086 37 35.6986C34.07 35.4986 31.72 34.0085 31.73 30.8385C31.73 30.6985 31.81 30.5186 31.65 30.4486C31.47 30.3586 31.32 30.4886 31.18 30.5986C30.81 30.8986 30.8 31.3786 30.55 31.7386C30.08 32.3886 29.77 32.4186 29.22 31.8286C29.11 31.7086 29.08 31.4986 28.8 31.4886C28.68 31.9586 28.45 32.3886 28.75 32.9386C29.27 33.9086 29.11 34.3986 28.16 34.9686C26.78 35.7986 25.26 36.2986 23.72 36.7486C22.82 37.0086 21.91 37.2186 21 37.4586C21.4 37.6186 21.78 37.6186 22.14 37.6986C24.52 38.1986 26.52 37.2986 28.42 36.0486C28.88 35.7486 29.24 35.2986 29.34 34.7986C29.54 33.7686 30.23 33.0886 30.98 32.3786C31.68 35.4386 33.88 36.5586 36.83 36.7986C38.99 36.9686 41.05 36.5386 43.08 35.9886C45.43 35.3486 47.75 34.5086 50.23 34.7186C51.04 34.7886 51.39 34.5186 51.59 33.8286C50.46 33.5786 49.33 33.3485 48.2 33.0885H48.18ZM46.35 28.6686C46.74 28.7086 46.88 29.0686 47.07 29.3486C47.06 29.6886 46.81 29.8986 46.58 29.8786C46.22 29.8386 46.12 29.4786 46.09 29.1686C46.07 28.9786 45.96 28.6286 46.35 28.6686Z" fill="black"/>
<path fill-rule="evenodd" clip-rule="evenodd" d="M34.4204 29.6486C34.4204 29.6486 34.1704 29.7386 34.0404 29.8286C33.5504 30.2386 33.1904 30.7186 33.1904 31.3786C33.1904 31.7286 33.3304 31.9885 33.7304 32.0585C34.2204 32.1585 34.4104 31.6286 34.4104 31.6286C34.4104 31.6286 34.6304 31.1186 34.5004 30.8186C34.2204 30.9386 34.1904 31.4486 33.8004 31.1786C33.3004 30.5986 34.4204 29.6486 34.4204 29.6486Z" fill="black"/>
<path fill-rule="evenodd" clip-rule="evenodd" d="M25.2702 20.4286L26.3502 21.2286L26.8202 20.1986L25.7402 19.4086L25.2602 20.3486L24.2102 19.5786L23.7002 20.5786L24.8202 21.3986L25.2702 20.4286Z" fill="black"/>
<path fill-rule="evenodd" clip-rule="evenodd" d="M25.9604 28.0086L27.0404 28.7986L27.5204 27.7785L26.4404 26.9786L25.9604 27.9286L24.9104 27.1586L24.4004 28.1586L25.5104 28.9786L25.9604 28.0086Z" fill="black"/>
<path fill-rule="evenodd" clip-rule="evenodd" d="M31.02 36.1986L29.97 35.4286L29.46 36.4286L30.58 37.2485L31.03 36.2886L32.1 37.0786L32.58 36.0486L31.5 35.2586L31.02 36.1986Z" fill="black"/>
<path fill-rule="evenodd" clip-rule="evenodd" d="M44.46 37.1186L45.58 37.9386L46.0599 36.9086L44.9799 36.1186L44.46 37.1186Z" fill="black"/>
<path fill-rule="evenodd" clip-rule="evenodd" d="M43.9697 27.1286L45.0898 27.9486L45.5698 26.9286L44.4897 26.1386L43.9697 27.1286Z" fill="black"/>
<path fill-rule="evenodd" clip-rule="evenodd" d="M34.4199 20.6285C34.8999 20.7585 35.2299 20.6085 35.5699 20.4385C36.2399 20.1085 36.7499 19.6086 37.2799 19.1086C37.4699 18.9286 37.5499 18.5186 37.9999 18.7686C38.1199 18.8386 38.3199 18.5985 38.2499 18.4785C38.0099 18.0785 38.2999 17.7686 38.3599 17.4186C38.3799 17.2786 38.3999 17.1185 38.2299 17.0285C38.0799 16.9485 37.9399 16.9985 37.8099 17.0985C37.4499 17.3685 37.1999 17.7286 37.3299 18.1786C37.4099 18.4686 37.3099 18.5885 37.1399 18.7585C36.3699 19.5185 35.4299 20.0685 34.4199 20.6285ZM37.9599 17.4085C37.9599 17.4085 38.2799 17.6686 37.6899 17.8686C37.6899 17.8686 37.5499 17.6085 37.9599 17.4085Z" fill="black"/>
<path fill-rule="evenodd" clip-rule="evenodd" d="M46.3799 21.3185C47.0299 21.4985 47.4998 21.2785 47.9698 21.0585C48.8798 20.6085 49.5899 19.9085 50.3199 19.2285C50.5799 18.9885 50.6999 18.4085 51.3199 18.7585C51.4799 18.8485 51.7599 18.5186 51.6599 18.3686C51.3299 17.8186 51.7299 17.3886 51.8099 16.8986C51.8399 16.6986 51.8599 16.4785 51.6299 16.3585C51.4099 16.2385 51.2199 16.3185 51.0499 16.4485C50.5499 16.8285 50.1999 17.3285 50.3899 17.9385C50.5099 18.3285 50.3599 18.5086 50.1299 18.7386C49.0599 19.7986 47.7699 20.5385 46.3799 21.3185ZM51.3399 16.7785C51.3399 16.7785 51.7798 17.1385 50.9698 17.4085C50.9698 17.4085 50.7899 17.0485 51.3399 16.7785Z" fill="black"/>
<path fill-rule="evenodd" clip-rule="evenodd" d="M46.1098 21.8385C45.0998 21.4185 43.9898 21.8986 43.5698 22.8186C43.4498 23.0886 44.3698 23.6886 45.0298 23.0786C45.2298 22.8786 45.4598 22.9085 45.6898 22.9985C46.2898 23.2385 46.8798 23.4686 47.5498 23.7386C46.9498 23.9586 46.4098 24.1285 45.8898 24.3385C45.0898 24.6485 44.4198 24.4586 43.8698 23.8486C42.6198 22.4586 41.6498 20.8386 40.1898 19.5686C42.2898 18.5586 44.3098 17.6386 46.3698 16.8286C46.9198 16.6186 47.4998 16.4686 48.0798 16.3286C48.3598 16.2586 48.7198 16.2186 48.8998 16.5186C49.0598 16.7986 48.7698 16.9986 48.5998 17.1786C48.1498 17.6786 47.0098 18.8986 46.9198 19.0186C47.1698 19.1186 49.1898 17.5086 49.5398 16.3886C49.7898 15.5886 49.5498 15.2186 48.7098 15.1686C48.0798 15.1286 47.4798 15.2886 46.8898 15.5186C44.3598 16.4886 40.2498 18.1586 38.7198 18.7586C38.3198 19.7086 38.7898 20.2485 39.5698 20.8085C40.5698 21.5285 41.4398 22.4286 41.9598 23.5686C42.0798 23.8286 42.3798 24.1686 41.8998 24.3486C41.5598 24.4786 41.1498 24.7686 40.8298 24.2086C40.5698 23.7486 40.1198 23.4486 39.6198 23.2286C39.2498 23.0686 38.9398 23.1386 38.7598 23.4286C38.3598 24.0686 38.1198 24.8285 38.4498 25.4985C38.7298 26.0685 40.1398 25.8586 40.4298 25.8286L40.3498 25.9086C39.2398 27.1786 37.7998 27.8486 36.1498 28.1286C35.6598 28.2086 35.1898 27.9586 35.0098 27.4586C34.8198 26.9686 35.2498 25.4086 35.8598 24.9186C36.3798 25.0786 36.7198 24.6286 36.7198 24.6286C36.7198 24.6286 36.7598 24.5886 36.7698 24.5686C37.2698 23.9386 37.3598 22.8486 36.9698 22.1686C36.5098 21.3686 35.6198 21.2686 35.0898 21.9886C34.7798 22.4186 34.4498 22.8086 34.0798 23.1986C32.1598 25.1786 29.9098 25.1786 27.9798 23.1086C27.0698 22.1286 26.1598 22.1386 25.3098 23.1686C25.0498 23.4786 24.8898 23.8686 24.6598 24.1986C24.4398 24.5186 24.3398 25.0686 23.8298 24.9886C23.3098 24.8986 23.1498 24.3686 23.0198 23.9286C22.9198 23.5986 22.9998 23.2486 23.0698 22.8986C23.1398 22.5786 23.4198 22.2786 23.2598 21.8986C22.3998 22.9486 22.2198 24.5886 22.8698 25.5486C23.3898 26.3186 24.0498 26.3486 24.5598 25.6086C24.8098 25.2486 25.0098 24.8586 25.2398 24.4886C26.0698 23.1586 26.4998 23.1185 27.5598 24.2785C29.0298 25.8885 31.3098 26.1786 33.1298 24.9786C33.4298 24.7786 33.7198 24.5785 33.9798 24.3385C34.4198 23.9285 34.7598 24.2686 35.0998 24.4486C35.5798 24.6986 34.2098 26.7486 34.2698 27.6886C34.3198 28.5586 34.8698 29.1186 35.7098 29.1886C37.4298 29.3286 40.4298 27.4686 41.0698 25.8586C41.1498 25.6586 41.2298 25.5585 41.4298 25.5585C42.4498 25.5485 43.0098 25.0886 42.8598 23.8686C43.1598 24.1886 43.3298 24.3585 43.4798 24.5285C44.5598 25.7385 44.7598 25.7786 46.2898 25.1086C47.6298 24.5286 49.0398 24.3486 50.4798 24.4886C51.2898 24.5686 51.7898 24.3286 51.9898 23.4886C49.9398 23.2286 48.0098 22.5986 46.1198 21.8186L46.1098 21.8385ZM38.8898 24.5386C39.0398 24.4086 39.1598 24.3286 39.2798 24.2686C39.3598 24.2386 39.4298 24.2186 39.4998 24.2186C39.5298 24.2186 39.5698 24.2186 39.5998 24.2186C39.6598 24.2186 39.7198 24.2485 39.7798 24.2785C39.8398 24.3085 39.8898 24.3486 39.9398 24.3886C39.9698 24.4086 39.9898 24.4386 40.0198 24.4586C40.0698 24.5086 40.1198 24.5686 40.1798 24.6286C40.2598 24.7186 40.3298 24.8186 40.4198 24.9186C39.8198 24.9286 39.4198 24.7185 38.8998 24.5285L38.8898 24.5386ZM35.0098 23.0186C35.1598 22.8886 35.2898 22.7985 35.3998 22.7485C35.4798 22.7085 35.5498 22.6986 35.6198 22.6886C35.6498 22.6886 35.6898 22.6886 35.7198 22.6886C35.7798 22.6886 35.8398 22.7186 35.8998 22.7386C35.9598 22.7686 36.0098 22.8086 36.0598 22.8486C36.0898 22.8686 36.1098 22.8986 36.1398 22.9186C36.1898 22.9686 36.2398 23.0285 36.2998 23.0885C36.3698 23.1785 36.4498 23.2786 36.5398 23.3786C35.9398 23.3886 35.5398 23.1786 35.0198 22.9886L35.0098 23.0186Z" fill="black"/>
<path fill-rule="evenodd" clip-rule="evenodd" d="M26.5795 32.2185C26.0495 31.9286 26.1595 31.7686 26.4995 31.4286C27.3195 30.5986 28.1095 29.7185 28.9595 28.8085C28.5395 28.6485 28.4096 28.8385 28.2596 28.9685C27.4796 29.6885 26.6595 30.3786 25.9395 31.1486C25.5295 31.5886 25.3395 31.4285 25.1095 31.0585C25.0195 30.9185 25.0196 30.7186 24.9196 30.5686C24.6796 30.2086 24.2395 30.1085 23.8695 29.9685C23.6395 29.8885 23.5995 30.2386 23.5295 30.4086C23.3895 30.7786 23.3895 31.0886 23.7995 31.3886C23.9295 31.4786 24.0495 31.5786 24.1495 31.6786C24.1495 31.6786 24.2095 31.7386 24.2395 31.7686L24.9995 32.5386L24.2495 33.7386C23.9995 34.2186 23.9795 34.7986 24.6095 35.1786C25.3695 35.6386 26.6395 35.2686 27.1195 34.4786C27.6995 33.5186 27.5595 32.7486 26.5795 32.1986V32.2185ZM25.5495 34.3786C25.2895 34.4086 24.9895 34.3986 24.8995 34.0986C24.8295 33.8786 24.8895 33.6785 24.9895 33.4985C24.9895 33.4985 25.4695 32.0586 26.7395 34.0786C26.1695 34.3886 25.9395 34.3286 25.5495 34.3786Z" fill="black"/>
<mask id="mask0_14669_492" style="mask-type:alpha" maskUnits="userSpaceOnUse" x="87" y="13" width="398" height="61">
<g style="mix-blend-mode:multiply">
<path d="M94.1709 18.0485L98.1309 20.4086L99.8309 17.6286L95.7209 15.2585L94.4209 17.3385L90.5809 15.0585L88.8809 17.8186L92.9409 20.2785L94.1709 18.0485Z" fill="black"/>
<path d="M133.271 21.8285C134.011 22.0185 134.711 22.0985 135.371 22.0485C133.111 23.7285 131.991 24.8386 131.991 25.4086C131.991 25.5086 132.041 25.5885 132.141 25.6485C132.221 25.6785 132.621 25.4285 133.351 24.8985C134.281 24.2185 135.221 23.6685 136.151 23.2285C137.581 22.5685 139.001 22.2085 140.401 22.1385C140.961 21.2985 141.351 20.7086 141.561 20.3486H140.351C135.401 20.3486 132.931 19.8885 132.931 18.9685C132.931 18.7885 133.011 18.5885 133.171 18.3685C134.021 17.2385 134.901 16.6785 135.801 16.6785C136.701 16.6785 137.351 16.9585 137.781 17.5285L138.481 16.1985C138.481 15.9585 138.311 15.6786 137.961 15.3786C137.611 15.0686 137.321 14.9185 137.081 14.9185C135.581 14.9185 134.261 15.6385 133.121 17.0885C132.141 18.3485 131.651 19.5485 131.651 20.6885C131.801 21.2085 132.331 21.5785 133.271 21.8285Z" fill="black"/>
<path d="M149.411 47.9685L153.471 50.2886L155.121 47.3685L151.211 45.0485L149.981 47.2785L145.751 44.6286L143.961 47.6485L148.131 50.0986L149.411 47.9685Z" fill="black"/>
<path d="M166.042 47.9685L161.582 45.7886L159.892 48.7385L164.252 51.1885L166.042 47.9685Z" fill="black"/>
<path d="M187.371 16.3885C187.371 16.2585 187.431 16.0585 187.551 15.7985C187.671 15.5285 187.731 15.3385 187.731 15.2085C187.731 15.0485 187.631 14.9385 187.421 14.8685C187.261 14.7185 187.001 14.9685 186.651 15.5885L184.811 18.7985C184.651 19.0885 184.571 19.3685 184.571 19.6385C184.571 20.0385 184.801 20.3885 185.251 20.6785L185.491 20.7785C186.881 28.9885 187.571 34.2785 187.571 36.6586C187.571 37.2185 187.521 37.5085 187.421 37.5085H178.211L176.471 14.2185L173.451 17.8585L175.961 37.5085H168.301C167.611 37.5085 167.251 37.1585 167.211 36.4685C167.021 31.8885 166.861 29.5986 166.731 29.5986C166.201 29.5986 165.341 30.8685 164.141 33.4086L164.841 37.5085H154.641C154.271 37.5085 154.081 37.1585 154.061 36.4685C153.821 31.2285 153.651 28.6085 153.551 28.6085C152.421 30.1185 151.571 31.3885 150.991 32.4185L151.671 37.4985H140.751C140.321 37.4985 140.081 37.3585 140.051 37.0885C140.031 37.0585 140.081 36.7085 140.201 36.0485C140.731 33.1285 141.001 30.9085 141.001 29.3985C141.001 29.1585 140.981 29.0185 140.951 28.9885C139.601 30.4985 138.531 31.7885 137.741 32.8585L137.691 36.3585C137.671 37.3385 136.451 37.7785 134.021 37.6685C132.551 37.5785 131.471 37.5185 130.761 37.4985H128.391V37.5185H105.221V37.4985H103.341C102.241 37.4985 101.751 36.9185 101.871 35.7585L100.231 21.5285L100.131 21.4785L97.7607 24.7385L98.0507 26.7185C98.0507 26.7985 97.5807 26.9885 96.6507 27.2785C95.3107 27.6685 94.2407 28.0485 93.4407 28.4185C92.3907 28.8885 91.4207 29.8985 90.5207 31.4585C89.7507 32.7785 89.2107 34.1285 88.9007 35.4885C88.7707 36.0185 90.0307 36.6285 92.6707 37.2985L96.7307 38.2886C96.9707 38.2886 97.3507 37.8286 97.8507 36.9086C98.3607 35.9886 98.8507 35.5285 99.3407 35.5285C99.4407 35.5285 99.5307 36.3485 99.6307 37.9885C99.6907 38.7985 100.041 39.5186 100.671 40.1586C101.141 40.7586 102.101 41.0485 103.551 41.0485H135.591C135.801 41.0485 136.111 40.6985 136.531 39.9885C136.951 39.2785 137.221 38.9285 137.351 38.9285C137.431 38.9585 137.581 39.2085 137.811 39.6785C138.031 40.1485 138.241 40.4486 138.411 40.5686C138.891 40.8886 139.371 41.0485 139.841 41.0485H150.081C150.081 41.0485 150.381 40.6985 150.841 39.9885C151.301 39.2785 151.591 38.9285 151.701 38.9285C151.831 38.9285 151.971 39.1285 152.141 39.5285C152.331 39.9985 152.451 40.2486 152.491 40.2886C152.531 40.3286 152.611 40.4885 152.721 40.7585C152.781 40.9485 152.911 41.0485 153.111 41.0485H163.191C163.291 41.0485 163.581 40.6985 164.081 39.9885C164.581 39.2785 164.851 38.9285 164.881 38.9285C164.961 38.9485 165.031 39.1185 165.071 39.4585C165.151 40.0085 165.201 40.3086 165.221 40.3486C165.361 40.8186 165.631 41.0485 166.021 41.0485H174.071C174.571 41.0485 174.991 40.8485 175.331 40.4485C175.391 40.3885 175.671 39.9385 176.151 39.1185L176.461 41.0485H188.011C188.351 41.0485 188.691 40.1185 189.051 38.2685C189.371 36.5285 189.531 35.2085 189.531 34.3085L188.351 22.4485C188.481 22.4785 188.651 22.5286 188.861 22.5986L190.891 18.5885C189.891 18.0685 188.871 17.5185 187.821 16.9185C187.551 16.7585 187.411 16.5685 187.411 16.3585L187.371 16.3885ZM99.2307 34.3486C99.0407 34.3486 98.7307 34.3885 98.3207 34.4585C97.9107 34.5285 97.6007 34.5686 97.3907 34.5686C96.4607 34.5686 95.3907 34.3785 94.2007 33.9885C92.9307 33.5685 91.9807 33.0685 91.3507 32.4885C91.9507 31.9285 92.9807 31.3886 94.4607 30.8786C95.9307 30.3686 96.6907 30.1085 96.7207 30.0885C97.6107 28.5785 98.1107 27.8186 98.2407 27.8186L99.2307 34.0986V34.3385V34.3486Z" fill="black"/>
<path d="M209.772 21.1885L213.692 23.5686L215.372 20.7985L211.292 18.3285L209.962 20.4985L206.152 18.0885L204.432 20.9985L208.592 23.4086L209.772 21.1885Z" fill="black"/>
<path d="M205.711 40.6985C206.581 41.0885 207.571 41.2185 208.681 41.0885C210.421 40.8785 211.921 40.2785 213.171 39.2985C213.811 38.8185 214.471 38.1185 215.151 37.2185C216.081 35.2485 216.551 33.8485 216.551 33.0185C216.551 31.8785 216.111 30.8986 215.251 30.0986C214.981 29.8386 214.301 29.3185 213.221 28.5285C212.251 27.8085 211.581 27.2085 211.191 26.7385L207.931 30.9885C205.381 34.3185 204.111 36.7986 204.111 38.4086C204.111 39.4685 204.641 40.2385 205.701 40.7085L205.711 40.6985ZM207.301 34.6586C208.321 33.1486 209.221 31.9185 210.011 30.9885C212.521 32.5385 213.811 33.9185 213.881 35.1485C213.911 35.7085 213.611 36.1986 212.991 36.5986C211.601 37.1786 210.301 37.4685 209.081 37.4685C207.731 37.4685 207.051 36.8985 207.051 35.7485C207.051 35.4085 207.141 35.0486 207.321 34.6586H207.301Z" fill="black"/>
<path d="M244.582 47.2785L240.352 44.6286L238.562 47.6485L242.732 50.0986L244.012 47.9685L248.072 50.2886L249.712 47.3685L245.802 45.0485L244.582 47.2785Z" fill="black"/>
<path d="M285.011 41.0885H299.801C301.461 41.0885 302.831 40.5585 303.911 39.4985C304.351 39.0985 305.071 38.5685 306.101 37.9185C307.121 37.2685 307.841 36.7186 308.261 36.2886C308.451 37.7986 308.611 38.7585 308.721 39.1685C309.061 40.4585 309.641 41.0986 310.461 41.0986H346.851C347.191 41.0986 347.531 40.1686 347.891 38.3186C348.211 36.5786 348.371 35.2585 348.371 34.3585L347.191 22.4985C347.321 22.5285 347.491 22.5785 347.701 22.6485L349.731 18.6385C348.731 18.1185 347.711 17.5685 346.661 16.9685C346.391 16.8085 346.251 16.6185 346.251 16.4085C346.251 16.2785 346.311 16.0786 346.431 15.8186C346.551 15.5486 346.611 15.3585 346.611 15.2285C346.611 15.0685 346.511 14.9585 346.301 14.8885C346.141 14.7385 345.881 14.9885 345.531 15.6085L343.691 18.8186C343.531 19.1086 343.451 19.3885 343.451 19.6585C343.451 20.0585 343.681 20.4085 344.131 20.6985L344.371 20.7985C345.761 29.0085 346.451 34.2985 346.451 36.6785C346.451 37.2385 346.401 37.5285 346.301 37.5285H335.381C336.751 35.3885 337.481 34.0585 337.581 33.5285C337.691 32.7285 337.531 31.6485 337.101 30.2985C336.601 28.7585 335.981 27.9985 335.241 28.0285C333.501 28.1385 331.621 29.0985 329.611 30.8985C328.841 31.5885 327.661 32.8385 326.081 34.6585C325.631 35.1885 325.521 36.1485 325.741 37.5285H311.051L310.661 37.3085C310.061 36.8885 309.771 36.3285 309.771 35.6085C311.121 34.9585 313.031 34.6285 315.501 34.6285C316.031 34.6285 316.451 34.6485 316.761 34.6785C317.481 33.0485 317.991 31.8285 318.281 31.0085H315.861C314.091 31.0085 311.251 30.4486 307.361 29.3186C304.781 28.5586 302.901 28.1785 301.711 28.1785C299.631 28.1785 298.031 29.4985 296.901 32.1385C296.641 32.7685 296.511 33.2785 296.511 33.6885C296.541 33.7385 296.561 33.7885 296.561 33.8385C298.221 32.6185 299.541 31.9985 300.521 31.9985L302.451 32.4085C305.141 32.9685 307.171 33.3985 308.541 33.6885C305.371 36.2585 302.491 37.5386 299.911 37.5386H291.121V37.5585H250.411V37.5386H249.271C248.901 37.5386 248.711 37.1885 248.691 36.4985C248.451 31.2585 248.281 28.6385 248.181 28.6385C247.051 30.1485 246.201 31.4185 245.621 32.4485L246.301 37.5285H235.601C234.301 37.5285 232.931 36.5285 231.491 34.5185C230.061 32.3785 229.071 30.8785 228.521 30.0185L226.591 33.4985C228.271 35.5785 229.491 37.2786 230.261 38.5986C230.261 40.2386 228.861 42.3985 226.061 45.0785C223.261 47.7485 221.011 49.0885 219.321 49.0885C218.581 49.0885 217.591 48.8185 216.351 48.2685C215.111 47.7185 214.381 47.4485 214.181 47.4485C213.921 47.4485 213.761 47.5885 213.701 47.8585C213.651 48.0885 214.771 48.7286 217.061 49.7886C219.521 50.9286 221.441 51.5085 222.811 51.5085C224.531 51.5085 226.471 49.9785 228.631 46.9185C230.711 43.9685 231.751 41.4785 231.751 39.4285C232.591 40.5585 233.721 41.1185 235.131 41.1185H244.701C244.701 41.1185 245.001 40.7685 245.461 40.0585C245.921 39.3485 246.211 38.9985 246.321 38.9985C246.451 38.9985 246.591 39.1986 246.761 39.5986C246.951 40.0686 247.071 40.3185 247.111 40.3585C247.151 40.3985 247.231 40.5585 247.341 40.8285C247.401 41.0185 247.531 41.1185 247.731 41.1185H285.061L285.011 41.0885ZM330.071 32.5285C330.831 32.1585 331.541 31.9685 332.201 31.9685C333.831 31.9685 334.771 33.1585 335.031 35.5485C335.001 35.9185 334.701 36.3185 334.141 36.7285C333.481 37.2085 332.741 37.4485 331.921 37.4485C331.321 37.4485 330.611 37.1885 329.791 36.6785C328.841 36.0485 328.291 35.3285 328.151 34.5085C328.421 33.6685 329.071 33.0085 330.081 32.5285H330.071Z" fill="black"/>
<path d="M303.461 48.3985L307.341 50.8186L309.041 47.9885L305.181 45.6885L303.461 48.3985Z" fill="black"/>
<path d="M335.441 19.7485L331.261 17.5285L329.691 20.4485L333.791 22.8685L335.441 19.7485Z" fill="black"/>
<path d="M357.402 13.6586C355.522 16.7686 354.631 18.8085 354.741 19.7985C355.691 28.6585 356.431 36.2085 356.961 42.4585C358.071 39.6585 358.632 37.6285 358.632 36.3685L358.152 25.0885C357.802 17.7085 357.552 13.8986 357.402 13.6586Z" fill="black"/>
<path d="M379.911 18.0485L383.871 20.4086L385.581 17.6286L381.471 15.2585L380.161 17.3385L376.321 15.0585L374.621 17.8186L378.681 20.2785L379.911 18.0485Z" fill="black"/>
<path d="M436.991 21.8285C437.731 22.0185 438.431 22.0985 439.091 22.0485C436.831 23.7285 435.711 24.8386 435.711 25.4086C435.711 25.5086 435.761 25.5885 435.861 25.6485C435.941 25.6785 436.341 25.4285 437.071 24.8985C438.001 24.2185 438.941 23.6685 439.871 23.2285C441.301 22.5685 442.721 22.2085 444.121 22.1385C444.681 21.2985 445.071 20.7086 445.281 20.3486H444.071C439.121 20.3486 436.651 19.8885 436.651 18.9685C436.651 18.7885 436.731 18.5885 436.891 18.3685C437.741 17.2385 438.621 16.6785 439.521 16.6785C440.421 16.6785 441.071 16.9585 441.501 17.5285L442.201 16.1985C442.201 15.9585 442.031 15.6786 441.681 15.3786C441.331 15.0686 441.041 14.9185 440.801 14.9185C439.301 14.9185 437.981 15.6385 436.841 17.0885C435.861 18.3485 435.371 19.5485 435.371 20.6885C435.511 21.2085 436.051 21.5785 436.991 21.8285Z" fill="black"/>
<path d="M453.702 47.2785L449.472 44.6286L447.682 47.6485L451.852 50.0986L453.132 47.9685L457.192 50.2886L458.832 47.3685L454.922 45.0485L453.702 47.2785Z" fill="black"/>
<path d="M481.89 39.2126C482.55 37.7626 482.88 36.7426 482.88 36.1626C482.88 34.1126 480.95 31.2626 477.08 27.6026C474.26 24.9226 472.72 23.6026 472.44 23.6326C471.25 25.2126 470.65 26.4826 470.65 27.4426C470.65 27.7626 470.75 28.0326 470.94 28.2426C469.72 28.9226 468.36 30.8726 466.88 34.1026C466.7 34.4926 466.53 35.2826 466.35 36.4926C466.24 37.1826 465.97 37.5326 465.55 37.5326H458.35C457.98 37.5326 457.79 37.1826 457.77 36.4926C457.53 31.2526 457.36 28.6326 457.26 28.6326C456.13 30.1426 455.28 31.4126 454.7 32.4426L455.38 37.5226H444.46C444.03 37.5226 443.79 37.3826 443.76 37.1126C443.74 37.0826 443.79 36.7326 443.91 36.0726C444.44 33.1526 444.71 30.9326 444.71 29.4226C444.71 29.1826 444.69 29.0426 444.66 29.0126C443.31 30.5226 442.24 31.8126 441.45 32.8826L441.4 36.3826C441.38 37.3626 440.16 37.8026 437.73 37.6926C436.26 37.6026 435.18 37.5426 434.47 37.5226H432.1V37.5426H390.95V37.5226H389.07C387.97 37.5226 387.48 36.9426 387.6 35.7826L385.96 21.5526L385.86 21.5026L383.49 24.7626L383.78 26.7426C383.78 26.8226 383.31 27.0126 382.38 27.3026C381.04 27.6926 379.97 28.0726 379.17 28.4426C378.12 28.9126 377.15 29.9226 376.25 31.4826C375.48 32.8026 374.94 34.1526 374.63 35.5126C374.5 36.0426 375.76 36.6526 378.4 37.3226L382.46 38.3126C382.7 38.3126 383.08 37.8526 383.58 36.9326C384.09 36.0126 384.58 35.5526 385.07 35.5526C385.17 35.5526 385.26 36.3726 385.36 38.0126C385.43 38.8226 385.77 39.5426 386.4 40.1826C386.87 40.7826 387.82 41.0726 389.27 41.0726H439.28C439.49 41.0726 439.8 40.7226 440.22 40.0126C440.64 39.3026 440.91 38.9526 441.04 38.9526C441.12 38.9826 441.27 39.2326 441.5 39.7026C441.72 40.1726 441.93 40.4726 442.1 40.5926C442.58 40.9126 443.06 41.0726 443.52 41.0726H453.76C453.76 41.0726 454.06 40.7226 454.52 40.0126C454.98 39.3026 455.26 38.9526 455.38 38.9526C455.51 38.9526 455.65 39.1526 455.81 39.5526C456 40.0226 456.12 40.2726 456.16 40.3126C456.2 40.3526 456.28 40.5126 456.39 40.7826C456.46 40.9726 456.58 41.0726 456.78 41.0726H464.42C465.27 41.0726 466.45 40.9326 467.95 40.6626C469.56 40.3726 470.73 40.2126 471.45 40.1826C473.24 40.7426 476.15 41.1626 480.2 41.4426C480.63 41.4726 481.2 40.7226 481.89 39.1926V39.2126ZM384.95 34.3626C384.76 34.3626 384.45 34.4026 384.04 34.4726C383.63 34.5426 383.32 34.5826 383.11 34.5826C382.18 34.5826 381.11 34.3926 379.92 34.0026C378.65 33.5826 377.7 33.0826 377.07 32.5026C377.67 31.9426 378.7 31.4026 380.18 30.8926C381.65 30.3826 382.41 30.1226 382.44 30.1026C383.32 28.5926 383.83 27.8326 383.96 27.8326L384.95 34.1126V34.3526V34.3626ZM473.55 35.8526C472.94 36.5126 472.43 36.8426 472.03 36.8426C471.4 36.8426 470.66 36.6726 469.81 36.3326C468.65 35.9026 468.07 35.3426 468.07 34.6626C469.79 32.2826 471.11 31.0826 472.03 31.0826C472.63 31.0826 473.19 31.4726 473.72 32.2426C474.22 32.9526 474.47 33.6226 474.47 34.2526C474.47 34.6526 474.16 35.1826 473.55 35.8426V35.8526ZM477.64 37.3226C476.29 36.8826 475.61 36.2726 475.61 35.4926C475.61 35.0026 475.78 34.4226 476.12 33.7626C476.51 33.0126 476.91 32.6426 477.33 32.6426C477.89 32.6426 478.64 33.2726 479.57 34.5226C480.5 35.7726 480.96 36.7126 480.96 37.3226C480.96 37.6926 480.66 37.8826 480.07 37.8826C479.59 37.8826 478.78 37.6926 477.66 37.3226H477.64Z" fill="black"/>
<path d="M87.5012 61.0686V61.4086H87.9412C88.2412 61.4086 88.5212 61.4786 88.7812 61.6286C88.9712 61.7386 89.0912 61.8685 89.1512 62.0185C89.2312 62.2185 89.2712 62.6285 89.2712 63.2585V71.2185C89.2712 71.9585 89.2012 72.4285 89.0512 72.6185C88.8212 72.9185 88.4512 73.0686 87.9412 73.0686H87.5012V73.4086H92.7912V73.0686H92.3412C92.0512 73.0686 91.7712 72.9986 91.5012 72.8486C91.3112 72.7386 91.1812 72.6085 91.1212 72.4585C91.0412 72.2585 91.0012 71.8485 91.0012 71.2185V67.3486H93.2412C93.6512 67.3486 93.9612 67.4085 94.1712 67.5185C94.3812 67.6285 94.5412 67.7985 94.6612 68.0185C94.7812 68.2385 94.8412 68.5986 94.8512 69.0686H95.1912V64.8985H94.8512C94.7712 65.5685 94.6112 66.0185 94.3712 66.2485C94.1312 66.4785 93.7512 66.5885 93.2412 66.5885H91.0012V61.7485H93.7212C94.3612 61.7485 94.8412 61.8085 95.1412 61.9285C95.4512 62.0485 95.7012 62.2485 95.9112 62.5185C96.1212 62.7885 96.3012 63.2086 96.4612 63.7886H96.7812L96.6612 61.0785H87.4912L87.5012 61.0686Z" fill="black"/>
<path d="M108.301 61.4086H108.761C109.231 61.4086 109.581 61.5385 109.811 61.8085C109.981 61.9985 110.061 62.4885 110.061 63.2485V68.2385C110.061 69.5485 109.941 70.4785 109.711 71.0285C109.481 71.5785 109.041 72.0286 108.411 72.3786C107.771 72.7286 107.051 72.9086 106.251 72.9086C105.621 72.9086 105.091 72.7986 104.661 72.5686C104.231 72.3486 103.891 72.0585 103.661 71.7185C103.431 71.3685 103.271 70.8885 103.181 70.2785C103.091 69.6585 103.051 69.1085 103.051 68.6385V63.2685C103.051 62.5785 103.131 62.1186 103.281 61.9086C103.501 61.5886 103.861 61.4285 104.371 61.4285H104.841V61.0885H99.5107V61.4285H99.9707C100.441 61.4285 100.771 61.5485 100.981 61.7785C101.191 62.0185 101.291 62.5085 101.291 63.2685V68.0885C101.291 69.5685 101.391 70.5886 101.581 71.1286C101.871 71.9186 102.361 72.5485 103.061 73.0085C103.761 73.4785 104.781 73.7085 106.121 73.7085C107.361 73.7085 108.331 73.4685 109.051 72.9785C109.771 72.4885 110.251 71.9085 110.501 71.2285C110.751 70.5485 110.871 69.5886 110.871 68.3486V63.3486C110.871 62.6686 110.931 62.2286 111.061 62.0386C111.321 61.6286 111.691 61.4285 112.181 61.4285H112.641V61.0885H108.281V61.4285L108.301 61.4086Z" fill="black"/>
<path d="M116.572 61.4086H117.022C117.312 61.4086 117.592 61.4786 117.852 61.6286C118.042 61.7386 118.172 61.8685 118.232 62.0185C118.312 62.2185 118.352 62.6285 118.352 63.2585V71.6785C118.352 72.1885 118.282 72.5385 118.142 72.7385C118.002 72.9385 117.842 73.0386 117.682 73.0386C117.462 73.0386 117.282 72.8785 117.142 72.5485C116.902 71.9985 116.712 71.6585 116.552 71.5285C116.402 71.3985 116.222 71.3385 116.032 71.3385C115.762 71.3385 115.532 71.4285 115.332 71.6185C115.182 71.7685 115.102 71.9986 115.102 72.2886C115.102 72.6486 115.262 72.9785 115.592 73.2585C115.922 73.5385 116.372 73.6785 116.932 73.6785C117.632 73.6785 118.232 73.4686 118.732 73.0386C119.232 72.6086 119.582 72.1086 119.782 71.5386C119.982 70.9586 120.082 70.2086 120.082 69.2886V63.2585C120.082 62.5185 120.152 62.0485 120.302 61.8585C120.532 61.5585 120.902 61.4086 121.402 61.4086H121.852V61.0686H116.572V61.4086Z" fill="black"/>
<path d="M134.941 71.0386L130.651 60.7886H130.331L125.991 70.9285C125.611 71.8185 125.271 72.4085 124.961 72.6985C124.811 72.8485 124.481 72.9585 123.961 73.0485V73.3885H127.841V73.0485C127.251 73.0085 126.861 72.9185 126.681 72.7685C126.501 72.6285 126.411 72.4585 126.411 72.2685C126.411 72.0285 126.511 71.6785 126.721 71.1985L127.561 69.2585H132.331L133.081 71.0285C133.321 71.6085 133.441 72.0286 133.441 72.2886C133.441 72.4886 133.351 72.6585 133.181 72.7985C133.011 72.9385 132.681 73.0185 132.181 73.0485V73.3885H137.041V73.0485C136.541 73.0185 136.141 72.8785 135.861 72.6385C135.581 72.3985 135.261 71.8586 134.921 71.0386H134.941ZM127.851 68.5986L129.991 63.6185L132.081 68.5986H127.841H127.851Z" fill="black"/>
<path d="M139.591 61.4086H140.031C140.321 61.4086 140.601 61.4786 140.871 61.6286C141.061 61.7386 141.181 61.8685 141.241 62.0185C141.321 62.2185 141.361 62.6285 141.361 63.2585V71.2185C141.361 71.9585 141.291 72.4285 141.141 72.6185C140.911 72.9185 140.541 73.0686 140.031 73.0686H139.591V73.4086H144.871V73.0686H144.421C144.131 73.0686 143.851 72.9986 143.591 72.8486C143.401 72.7386 143.271 72.6085 143.211 72.4585C143.131 72.2585 143.091 71.8485 143.091 71.2185V63.2585C143.091 62.5185 143.171 62.0485 143.321 61.8585C143.551 61.5585 143.921 61.4086 144.421 61.4086H144.871V61.0686H139.591V61.4086Z" fill="black"/>
<path d="M156.641 70.9285L154.091 67.3885C155.131 67.1585 155.891 66.7685 156.391 66.2085C156.881 65.6485 157.131 64.9885 157.131 64.2385C157.131 63.5285 156.911 62.9186 156.481 62.4086C156.051 61.8986 155.521 61.5485 154.901 61.3585C154.281 61.1685 153.311 61.0686 152.011 61.0686H147.521V61.4086H147.981C148.451 61.4086 148.801 61.5385 149.031 61.8085C149.201 61.9985 149.281 62.4785 149.281 63.2485V71.2085C149.281 71.9085 149.221 72.3585 149.091 72.5485C148.871 72.8885 148.491 73.0585 147.971 73.0585H147.511V73.3985H152.791V73.0585H152.311C151.851 73.0585 151.501 72.9286 151.271 72.6586C151.101 72.4686 151.021 71.9885 151.021 71.2085V67.6286C151.121 67.6286 151.211 67.6385 151.301 67.6385C151.391 67.6385 151.481 67.6385 151.551 67.6385C151.741 67.6385 152.001 67.6385 152.301 67.6185L156.471 73.3786H159.761V73.0386C159.091 72.9686 158.541 72.7985 158.121 72.5285C157.701 72.2585 157.201 71.7186 156.621 70.9086L156.641 70.9285ZM151.531 67.0686C151.481 67.0686 151.411 67.0686 151.321 67.0686C151.241 67.0686 151.141 67.0686 151.021 67.0686V61.9385C151.621 61.8285 152.101 61.7685 152.451 61.7685C153.241 61.7685 153.881 62.0085 154.361 62.4885C154.841 62.9685 155.081 63.5985 155.081 64.3685C155.081 65.1385 154.781 65.8086 154.181 66.3186C153.581 66.8286 152.701 67.0785 151.521 67.0785L151.531 67.0686Z" fill="black"/>
<path d="M172.591 71.0386L168.301 60.7886H167.981L163.641 70.9285C163.261 71.8185 162.921 72.4085 162.611 72.6985C162.461 72.8485 162.131 72.9585 161.611 73.0485V73.3885H165.491V73.0485C164.901 73.0085 164.511 72.9185 164.331 72.7685C164.151 72.6285 164.061 72.4585 164.061 72.2685C164.061 72.0285 164.161 71.6785 164.371 71.1985L165.211 69.2585H169.981L170.731 71.0285C170.971 71.6085 171.091 72.0286 171.091 72.2886C171.091 72.4886 171.001 72.6585 170.831 72.7985C170.661 72.9385 170.331 73.0185 169.831 73.0485V73.3885H174.691V73.0485C174.191 73.0185 173.791 72.8785 173.511 72.6385C173.231 72.3985 172.911 71.8586 172.571 71.0386H172.591ZM165.501 68.5986L167.641 63.6185L169.731 68.5986H165.491H165.501Z" fill="black"/>
<path d="M184.562 61.4086H185.002C185.292 61.4086 185.572 61.4786 185.832 61.6286C186.022 61.7386 186.152 61.8685 186.212 62.0185C186.292 62.2185 186.332 62.6385 186.332 63.2585V66.7886H180.602V63.2585C180.602 62.6485 180.642 62.2485 180.712 62.0585C180.782 61.8685 180.912 61.7185 181.102 61.6185C181.362 61.4785 181.642 61.4086 181.932 61.4086H182.382V61.0686H177.102V61.4086H177.542C177.832 61.4086 178.112 61.4786 178.382 61.6286C178.572 61.7386 178.692 61.8685 178.752 62.0185C178.832 62.2185 178.872 62.6385 178.872 63.2585V71.2085C178.872 71.9485 178.802 72.4185 178.652 72.6085C178.422 72.9085 178.052 73.0585 177.542 73.0585H177.102V73.3985H182.382V73.0585H181.932C181.642 73.0585 181.362 72.9885 181.102 72.8385C180.912 72.7285 180.782 72.5985 180.722 72.4485C180.642 72.2485 180.602 71.8385 180.602 71.2085V67.4585H186.332V71.2085C186.332 71.9485 186.252 72.4185 186.102 72.6085C185.872 72.9085 185.502 73.0585 185.002 73.0585H184.562V73.3985H189.832V73.0585H189.392C189.102 73.0585 188.822 72.9885 188.552 72.8385C188.362 72.7285 188.242 72.5985 188.182 72.4485C188.102 72.2485 188.062 71.8385 188.062 71.2085V63.2585C188.062 62.6485 188.092 62.2485 188.162 62.0585C188.232 61.8585 188.362 61.7185 188.562 61.6185C188.822 61.4785 189.102 61.4086 189.392 61.4086H189.832V61.0686H184.562V61.4086Z" fill="black"/>
<path d="M208.022 72.0085C207.732 72.2885 207.432 72.4885 207.112 72.5785C206.792 72.6785 206.292 72.7285 205.592 72.7285H203.502C203.162 72.7285 202.932 72.6986 202.812 72.6286C202.692 72.5586 202.602 72.4686 202.562 72.3486C202.522 72.2286 202.492 71.8986 202.492 71.3486V67.2886H205.202C205.722 67.2886 206.102 67.3485 206.352 67.4685C206.602 67.5885 206.782 67.7585 206.892 67.9685C206.972 68.1385 207.062 68.5185 207.142 69.1185H207.482V64.8285H207.142C207.102 65.5285 206.932 66.0185 206.612 66.2985C206.372 66.5085 205.902 66.6185 205.202 66.6185H202.492V61.7485H205.872C206.482 61.7485 206.912 61.7985 207.152 61.8885C207.452 62.0185 207.682 62.1985 207.842 62.4385C207.992 62.6785 208.142 63.1285 208.262 63.7785H208.612L208.472 61.0785H198.972V61.4185H199.412C199.922 61.4185 200.282 61.5385 200.502 61.7785C200.662 61.9585 200.742 62.4385 200.742 63.2185V71.2285C200.742 71.8285 200.712 72.2285 200.642 72.4185C200.572 72.6085 200.442 72.7585 200.242 72.8585C199.982 72.9985 199.702 73.0686 199.412 73.0686H198.972V73.4086H208.472L209.532 70.3186H209.172C208.782 71.0786 208.392 71.6385 208.022 72.0185V72.0085Z" fill="black"/>
<path d="M220.711 61.4086H221.141C221.631 61.4086 221.981 61.5386 222.201 61.7886C222.371 61.9786 222.451 62.4485 222.451 63.2085V70.3186L214.911 61.0785H211.571V61.4185C211.931 61.4185 212.191 61.4485 212.371 61.4985C212.731 61.6185 213.001 61.7385 213.181 61.8685C213.361 61.9985 213.641 62.2785 213.991 62.6985V71.2685C213.991 71.9585 213.921 72.3986 213.791 72.5986C213.571 72.9186 213.201 73.0686 212.671 73.0686H212.241V73.4086H216.531V73.0686H216.091C215.611 73.0686 215.261 72.9385 215.031 72.6885C214.871 72.4985 214.781 72.0285 214.781 71.2685V63.6785L222.911 73.6085H223.241V63.2185C223.241 62.5285 223.311 62.0885 223.441 61.8885C223.661 61.5685 224.031 61.4185 224.551 61.4185H224.991V61.0785H220.701V61.4185L220.711 61.4086Z" fill="black"/>
<path d="M236.551 61.4086C236.621 61.4186 236.671 61.4285 236.701 61.4385C237.121 61.5085 237.421 61.6185 237.591 61.7785C237.761 61.9385 237.851 62.1085 237.851 62.2785C237.851 62.5485 237.711 63.0385 237.421 63.7385L234.511 70.8786L231.371 63.6485C231.091 63.0085 230.951 62.5385 230.951 62.2285C230.951 62.0085 231.031 61.8285 231.201 61.6885C231.371 61.5485 231.741 61.4485 232.311 61.3985V61.0585H227.271V61.3985C227.651 61.4285 227.941 61.4986 228.171 61.5986C228.391 61.7086 228.581 61.8486 228.731 62.0386C228.831 62.1586 228.991 62.4886 229.231 63.0386L233.851 73.6685H234.191L238.491 63.1785C238.741 62.5685 239.021 62.1086 239.341 61.8186C239.561 61.6186 239.891 61.4785 240.331 61.3985V61.0585H236.531V61.3985L236.551 61.4086Z" fill="black"/>
<path d="M242.901 61.4086H243.341C243.631 61.4086 243.911 61.4786 244.181 61.6286C244.371 61.7386 244.491 61.8685 244.551 62.0185C244.631 62.2185 244.671 62.6285 244.671 63.2585V71.2185C244.671 71.9585 244.601 72.4285 244.451 72.6185C244.221 72.9185 243.851 73.0686 243.341 73.0686H242.901V73.4086H248.181V73.0686H247.731C247.441 73.0686 247.161 72.9986 246.901 72.8486C246.711 72.7386 246.581 72.6085 246.521 72.4585C246.441 72.2585 246.401 71.8485 246.401 71.2185V63.2585C246.401 62.5185 246.481 62.0485 246.631 61.8585C246.861 61.5585 247.231 61.4086 247.731 61.4086H248.181V61.0686H242.901V61.4086Z" fill="black"/>
<path d="M259.942 70.9285L257.392 67.3885C258.432 67.1585 259.192 66.7685 259.692 66.2085C260.182 65.6485 260.432 64.9885 260.432 64.2385C260.432 63.5285 260.212 62.9186 259.782 62.4086C259.352 61.8986 258.822 61.5485 258.202 61.3585C257.582 61.1685 256.612 61.0686 255.312 61.0686H250.822V61.4086H251.282C251.752 61.4086 252.102 61.5385 252.332 61.8085C252.502 61.9985 252.582 62.4785 252.582 63.2485V71.2085C252.582 71.9085 252.522 72.3585 252.392 72.5485C252.172 72.8885 251.792 73.0585 251.272 73.0585H250.812V73.3985H256.092V73.0585H255.612C255.152 73.0585 254.802 72.9286 254.572 72.6586C254.402 72.4686 254.322 71.9885 254.322 71.2085V67.6286C254.422 67.6286 254.512 67.6385 254.602 67.6385C254.692 67.6385 254.782 67.6385 254.852 67.6385C255.042 67.6385 255.302 67.6385 255.602 67.6185L259.772 73.3786H263.062V73.0386C262.392 72.9686 261.842 72.7985 261.422 72.5285C261.002 72.2585 260.502 71.7186 259.922 70.9086L259.942 70.9285ZM254.832 67.0686C254.782 67.0686 254.712 67.0686 254.622 67.0686C254.542 67.0686 254.442 67.0686 254.322 67.0686V61.9385C254.922 61.8285 255.402 61.7685 255.752 61.7685C256.542 61.7685 257.182 62.0085 257.662 62.4885C258.142 62.9685 258.382 63.5985 258.382 64.3685C258.382 65.1385 258.082 65.8086 257.482 66.3186C256.882 66.8286 256.002 67.0785 254.822 67.0785L254.832 67.0686Z" fill="black"/>
<path d="M271.582 60.7886C269.972 60.7886 268.582 61.3285 267.432 62.3985C266.102 63.6385 265.432 65.2285 265.432 67.1885C265.432 69.1485 266.012 70.6685 267.162 71.8685C268.312 73.0785 269.742 73.6785 271.442 73.6785C273.142 73.6785 274.552 73.0585 275.732 71.8285C276.912 70.5885 277.502 69.0385 277.502 67.1685C277.502 65.2985 276.912 63.8385 275.742 62.6185C274.572 61.4085 273.182 60.7985 271.582 60.7985V60.7886ZM274.282 71.6785C273.532 72.5785 272.572 73.0285 271.412 73.0285C270.332 73.0285 269.452 72.6186 268.792 71.7886C267.932 70.7086 267.502 69.1585 267.502 67.1485C267.502 65.1385 267.922 63.6985 268.752 62.6785C269.422 61.8585 270.302 61.4485 271.402 61.4485C272.582 61.4485 273.502 61.8585 274.162 62.6885C274.992 63.7285 275.412 65.2986 275.412 67.4086C275.412 69.3486 275.032 70.7785 274.282 71.6785Z" fill="black"/>
<path d="M288.971 61.4086H289.401C289.891 61.4086 290.241 61.5386 290.461 61.7886C290.631 61.9786 290.711 62.4485 290.711 63.2085V70.3186L283.171 61.0785H279.831V61.4185C280.191 61.4185 280.451 61.4485 280.631 61.4985C280.991 61.6185 281.261 61.7385 281.441 61.8685C281.621 61.9985 281.901 62.2785 282.251 62.6985V71.2685C282.251 71.9585 282.181 72.3986 282.051 72.5986C281.831 72.9186 281.461 73.0686 280.931 73.0686H280.501V73.4086H284.791V73.0686H284.351C283.871 73.0686 283.521 72.9385 283.291 72.6885C283.131 72.4985 283.041 72.0285 283.041 71.2685V63.6785L291.171 73.6085H291.501V63.2185C291.501 62.5285 291.571 62.0885 291.701 61.8885C291.921 61.5685 292.291 61.4185 292.811 61.4185H293.251V61.0785H288.961V61.4185L288.971 61.4086Z" fill="black"/>
<path d="M303.651 70.7185L299.181 61.0785H295.691V61.4185C296.191 61.4185 296.561 61.4786 296.791 61.5986C297.021 61.7186 297.171 61.8686 297.261 62.0386C297.381 62.2786 297.441 62.6785 297.441 63.2185V71.2685C297.441 71.9585 297.371 72.3986 297.241 72.5986C297.021 72.9186 296.651 73.0686 296.131 73.0686H295.691V73.4086H299.981V73.0686H299.541C299.061 73.0686 298.701 72.9385 298.481 72.6885C298.321 72.4985 298.231 72.0285 298.231 71.2685V63.0285L302.991 73.3985H303.291L308.041 63.0285V71.2685C308.041 71.9585 307.971 72.3986 307.841 72.5986C307.631 72.9186 307.261 73.0686 306.731 73.0686H306.291V73.4086H311.531V73.0686H311.101C310.621 73.0686 310.261 72.9385 310.041 72.6885C309.871 72.4985 309.791 72.0285 309.791 71.2685V63.2185C309.791 62.5285 309.861 62.0885 309.991 61.8885C310.211 61.5685 310.581 61.4185 311.111 61.4185H311.541V61.0785H308.051L303.651 70.7185Z" fill="black"/>
<path d="M323.221 72.0085C322.931 72.2885 322.631 72.4885 322.311 72.5785C321.991 72.6785 321.491 72.7285 320.791 72.7285H318.701C318.361 72.7285 318.131 72.6986 318.011 72.6286C317.891 72.5586 317.801 72.4686 317.761 72.3486C317.721 72.2286 317.691 71.8986 317.691 71.3486V67.2886H320.401C320.921 67.2886 321.301 67.3485 321.551 67.4685C321.801 67.5885 321.981 67.7585 322.091 67.9685C322.171 68.1385 322.261 68.5185 322.341 69.1185H322.681V64.8285H322.341C322.301 65.5285 322.131 66.0185 321.811 66.2985C321.571 66.5085 321.101 66.6185 320.401 66.6185H317.691V61.7485H321.071C321.681 61.7485 322.111 61.7985 322.351 61.8885C322.651 62.0185 322.881 62.1985 323.041 62.4385C323.191 62.6785 323.341 63.1285 323.461 63.7785H323.811L323.671 61.0785H314.171V61.4185H314.611C315.121 61.4185 315.481 61.5385 315.701 61.7785C315.861 61.9585 315.941 62.4385 315.941 63.2185V71.2285C315.941 71.8285 315.911 72.2285 315.841 72.4185C315.771 72.6085 315.641 72.7585 315.441 72.8585C315.181 72.9985 314.901 73.0686 314.611 73.0686H314.171V73.4086H323.671L324.731 70.3186H324.371C323.981 71.0786 323.591 71.6385 323.221 72.0185V72.0085Z" fill="black"/>
<path d="M335.921 61.4086H336.351C336.841 61.4086 337.191 61.5386 337.411 61.7886C337.581 61.9786 337.661 62.4485 337.661 63.2085V70.3186L330.121 61.0785H326.781V61.4185C327.141 61.4185 327.401 61.4485 327.581 61.4985C327.941 61.6185 328.211 61.7385 328.391 61.8685C328.571 61.9985 328.851 62.2785 329.201 62.6985V71.2685C329.201 71.9585 329.131 72.3986 329.001 72.5986C328.781 72.9186 328.411 73.0686 327.881 73.0686H327.451V73.4086H331.741V73.0686H331.301C330.821 73.0686 330.471 72.9385 330.241 72.6885C330.081 72.4985 329.991 72.0285 329.991 71.2685V63.6785L338.121 73.6085H338.451V63.2185C338.451 62.5285 338.521 62.0885 338.651 61.8885C338.871 61.5685 339.241 61.4185 339.761 61.4185H340.201V61.0785H335.911V61.4185L335.921 61.4086Z" fill="black"/>
<path d="M343.042 61.0686L342.892 63.9585H343.242C343.282 63.3985 343.422 62.9586 343.642 62.6286C343.862 62.2986 344.132 62.0785 344.452 61.9685C344.692 61.8785 345.102 61.8385 345.682 61.8385H347.162V71.2585C347.162 71.9485 347.092 72.3885 346.962 72.5885C346.742 72.9085 346.372 73.0585 345.852 73.0585H345.412V73.3985H350.642V73.0585H350.212C349.732 73.0585 349.382 72.9285 349.152 72.6785C348.992 72.4885 348.902 72.0185 348.902 71.2585V61.8385H350.642C351.152 61.8385 351.562 61.9185 351.872 62.0885C352.182 62.2585 352.432 62.5185 352.622 62.8685C352.742 63.0885 352.832 63.4485 352.892 63.9585H353.242L353.102 61.0686H343.042Z" fill="black"/>
<path d="M372.861 71.0386L368.571 60.7886H368.251L363.911 70.9285C363.541 71.8185 363.191 72.4085 362.881 72.6985C362.731 72.8485 362.401 72.9585 361.881 73.0485V73.3885H365.761V73.0485C365.171 73.0085 364.781 72.9185 364.601 72.7685C364.421 72.6285 364.331 72.4585 364.331 72.2685C364.331 72.0285 364.431 71.6785 364.641 71.1985L365.481 69.2585H370.251L370.991 71.0285C371.231 71.6085 371.351 72.0286 371.351 72.2886C371.351 72.4886 371.261 72.6585 371.091 72.7985C370.921 72.9385 370.581 73.0185 370.091 73.0485V73.3885H374.951V73.0485C374.451 73.0185 374.051 72.8785 373.771 72.6385C373.491 72.3985 373.171 71.8586 372.831 71.0386H372.861ZM365.771 68.5986L367.921 63.6185L370.011 68.5986H365.771Z" fill="black"/>
<path d="M385.931 61.4086H386.391C386.861 61.4086 387.211 61.5385 387.451 61.8085C387.621 61.9985 387.701 62.4885 387.701 63.2485V68.2385C387.701 69.5485 387.581 70.4785 387.351 71.0285C387.121 71.5785 386.681 72.0286 386.051 72.3786C385.411 72.7286 384.691 72.9086 383.891 72.9086C383.261 72.9086 382.731 72.7986 382.291 72.5686C381.851 72.3386 381.521 72.0585 381.301 71.7185C381.071 71.3685 380.911 70.8885 380.821 70.2785C380.731 69.6585 380.691 69.1085 380.691 68.6385V63.2685C380.691 62.5785 380.771 62.1186 380.921 61.9086C381.141 61.5886 381.501 61.4285 382.011 61.4285H382.481V61.0885H377.151V61.4285H377.611C378.081 61.4285 378.411 61.5485 378.621 61.7785C378.831 62.0185 378.931 62.5085 378.931 63.2685V68.0885C378.931 69.5685 379.031 70.5886 379.221 71.1286C379.511 71.9186 380.001 72.5485 380.701 73.0085C381.401 73.4785 382.421 73.7085 383.761 73.7085C385.001 73.7085 385.971 73.4685 386.691 72.9785C387.411 72.4885 387.891 71.9085 388.141 71.2285C388.391 70.5485 388.511 69.5886 388.511 68.3486V63.3486C388.511 62.6686 388.571 62.2286 388.701 62.0386C388.961 61.6286 389.331 61.4285 389.821 61.4285H390.281V61.0885H385.921V61.4285L385.931 61.4086Z" fill="black"/>
<path d="M393.061 61.0686L392.911 63.9585H393.261C393.301 63.3985 393.431 62.9586 393.661 62.6286C393.881 62.2986 394.151 62.0785 394.471 61.9685C394.711 61.8785 395.121 61.8385 395.701 61.8385H397.181V71.2585C397.181 71.9485 397.111 72.3885 396.981 72.5885C396.761 72.9085 396.391 73.0585 395.871 73.0585H395.431V73.3985H400.661V73.0585H400.231C399.751 73.0585 399.401 72.9285 399.171 72.6785C399.011 72.4885 398.921 72.0185 398.921 71.2585V61.8385H400.661C401.171 61.8385 401.581 61.9185 401.891 62.0885C402.201 62.2585 402.451 62.5185 402.641 62.8685C402.761 63.0885 402.851 63.4485 402.911 63.9585H403.261L403.121 61.0686H393.061Z" fill="black"/>
<path d="M413.371 61.4086H413.811C414.101 61.4086 414.381 61.4786 414.641 61.6286C414.831 61.7386 414.961 61.8685 415.021 62.0185C415.101 62.2185 415.141 62.6385 415.141 63.2585V66.7886H409.411V63.2585C409.411 62.6485 409.451 62.2485 409.521 62.0585C409.591 61.8685 409.721 61.7185 409.911 61.6185C410.171 61.4785 410.451 61.4086 410.741 61.4086H411.191V61.0686H405.911V61.4086H406.351C406.641 61.4086 406.921 61.4786 407.191 61.6286C407.381 61.7386 407.501 61.8685 407.561 62.0185C407.641 62.2185 407.681 62.6385 407.681 63.2585V71.2085C407.681 71.9485 407.611 72.4185 407.461 72.6085C407.231 72.9085 406.861 73.0585 406.351 73.0585H405.911V73.3985H411.191V73.0585H410.741C410.451 73.0585 410.171 72.9885 409.911 72.8385C409.721 72.7285 409.591 72.5985 409.531 72.4485C409.451 72.2485 409.411 71.8385 409.411 71.2085V67.4585H415.141V71.2085C415.141 71.9485 415.061 72.4185 414.911 72.6085C414.681 72.9085 414.311 73.0585 413.811 73.0585H413.371V73.3985H418.641V73.0585H418.201C417.911 73.0585 417.631 72.9885 417.361 72.8385C417.171 72.7285 417.051 72.5985 416.991 72.4485C416.911 72.2485 416.871 71.8385 416.871 71.2085V63.2585C416.871 62.6485 416.901 62.2485 416.971 62.0585C417.041 61.8685 417.171 61.7185 417.371 61.6185C417.631 61.4785 417.911 61.4086 418.201 61.4086H418.641V61.0686H413.371V61.4086Z" fill="black"/>
<path d="M427.701 60.7886C426.091 60.7886 424.701 61.3285 423.551 62.3985C422.221 63.6385 421.551 65.2285 421.551 67.1885C421.551 69.1485 422.131 70.6685 423.281 71.8685C424.431 73.0785 425.861 73.6785 427.561 73.6785C429.261 73.6785 430.671 73.0585 431.851 71.8285C433.031 70.5885 433.621 69.0385 433.621 67.1685C433.621 65.2985 433.031 63.8385 431.861 62.6185C430.691 61.4085 429.301 60.7985 427.701 60.7985V60.7886ZM430.401 71.6785C429.651 72.5785 428.691 73.0285 427.531 73.0285C426.451 73.0285 425.571 72.6186 424.911 71.7886C424.051 70.7086 423.621 69.1585 423.621 67.1485C423.621 65.1385 424.041 63.6985 424.871 62.6785C425.541 61.8585 426.421 61.4485 427.521 61.4485C428.691 61.4485 429.621 61.8585 430.281 62.6885C431.111 63.7285 431.521 65.2986 431.521 67.4086C431.521 69.3486 431.141 70.7785 430.391 71.6785H430.401Z" fill="black"/>
<path d="M445.641 70.9285L443.101 67.3885C444.141 67.1585 444.901 66.7685 445.391 66.2085C445.881 65.6485 446.131 64.9885 446.131 64.2385C446.131 63.5285 445.911 62.9186 445.481 62.4086C445.051 61.8986 444.521 61.5485 443.901 61.3585C443.281 61.1685 442.311 61.0686 441.001 61.0686H436.511V61.4086H436.971C437.441 61.4086 437.791 61.5385 438.021 61.8085C438.191 61.9985 438.271 62.4785 438.271 63.2485V71.2085C438.271 71.9085 438.211 72.3585 438.081 72.5485C437.861 72.8885 437.481 73.0585 436.961 73.0585H436.501V73.3985H441.781V73.0585H441.301C440.841 73.0585 440.491 72.9286 440.261 72.6586C440.091 72.4686 440.001 71.9885 440.001 71.2085V67.6286C440.101 67.6286 440.191 67.6385 440.281 67.6385C440.371 67.6385 440.461 67.6385 440.541 67.6385C440.731 67.6385 440.981 67.6385 441.291 67.6185L445.461 73.3786H448.751V73.0386C448.081 72.9686 447.531 72.7985 447.111 72.5285C446.691 72.2585 446.191 71.7186 445.611 70.9086L445.641 70.9285ZM440.531 67.0686C440.481 67.0686 440.411 67.0686 440.321 67.0686C440.241 67.0686 440.141 67.0686 440.021 67.0686V61.9385C440.621 61.8285 441.101 61.7685 441.451 61.7685C442.241 61.7685 442.881 62.0085 443.361 62.4885C443.841 62.9685 444.081 63.5985 444.081 64.3685C444.081 65.1385 443.781 65.8086 443.181 66.3186C442.581 66.8286 441.701 67.0785 440.521 67.0785L440.531 67.0686Z" fill="black"/>
<path d="M450.941 61.4086H451.381C451.671 61.4086 451.951 61.4786 452.221 61.6286C452.411 61.7386 452.531 61.8685 452.591 62.0185C452.671 62.2185 452.711 62.6285 452.711 63.2585V71.2185C452.711 71.9585 452.641 72.4285 452.491 72.6185C452.261 72.9185 451.891 73.0686 451.381 73.0686H450.941V73.4086H456.221V73.0686H455.771C455.481 73.0686 455.201 72.9986 454.941 72.8486C454.751 72.7386 454.621 72.6085 454.561 72.4585C454.481 72.2585 454.441 71.8485 454.441 71.2185V63.2585C454.441 62.5185 454.521 62.0485 454.671 61.8585C454.901 61.5585 455.271 61.4086 455.771 61.4086H456.221V61.0686H450.941V61.4086Z" fill="black"/>
<path d="M459.241 61.0686L459.091 63.9585H459.441C459.481 63.3985 459.611 62.9586 459.841 62.6286C460.061 62.2986 460.331 62.0785 460.651 61.9685C460.891 61.8785 461.301 61.8385 461.881 61.8385H463.361V71.2585C463.361 71.9485 463.291 72.3885 463.161 72.5885C462.941 72.9085 462.571 73.0585 462.051 73.0585H461.611V73.3985H466.841V73.0585H466.411C465.931 73.0585 465.581 72.9285 465.351 72.6785C465.191 72.4885 465.101 72.0185 465.101 71.2585V61.8385H466.841C467.351 61.8385 467.761 61.9185 468.071 62.0885C468.381 62.2585 468.631 62.5185 468.821 62.8685C468.941 63.0885 469.031 63.4485 469.091 63.9585H469.441L469.301 61.0686H459.241Z" fill="black"/>
<path d="M480.641 61.0686V61.4086C480.971 61.4086 481.211 61.4485 481.381 61.5185C481.551 61.5885 481.671 61.6985 481.761 61.8285C481.851 61.9585 481.891 62.1185 481.891 62.2785C481.891 62.5585 481.711 62.9785 481.341 63.5485L478.921 67.3486L476.351 63.3786C475.981 62.8086 475.791 62.4185 475.791 62.1985C475.791 61.9285 475.911 61.7286 476.151 61.5986C476.391 61.4686 476.651 61.3985 476.941 61.3985H477.211V61.0585H471.941V61.3985C472.171 61.3985 472.351 61.4285 472.471 61.4885C472.921 61.6985 473.211 61.8786 473.361 62.0386C473.501 62.1886 473.771 62.5685 474.171 63.1785L477.551 68.3385V71.2585C477.551 71.9485 477.481 72.3885 477.351 72.5885C477.131 72.9085 476.761 73.0585 476.241 73.0585H475.801V73.3985H481.041V73.0585H480.641C480.141 73.0585 479.781 72.9285 479.551 72.6785C479.381 72.4885 479.291 72.0185 479.291 71.2585V68.1685L482.261 63.4885C482.621 62.8985 482.931 62.4785 483.181 62.2185C483.431 61.9585 483.701 61.7585 484.011 61.6185C484.321 61.4785 484.541 61.4086 484.701 61.4086H484.941V61.0686H480.641Z" fill="black"/>
</g>
</mask>
<g mask="url(#mask0_14669_492)">
<rect x="52.4912" y="-26.3414" width="489" height="156" fill="white"/>
</g>
</svg>
