<svg width="89" height="77" viewBox="0 0 89 77" fill="none" xmlns="http://www.w3.org/2000/svg">
<path d="M24.6094 68.2585C31.0194 67.9178 36.233 72.5067 42.5996 73.0173C53.4901 73.8894 58.8345 65.2455 70.1816 69.614C72.8866 70.6555 75.6558 72.5978 78.6562 72.6062V72.6082C78.7409 72.92 78.5822 72.9493 78.4541 73.1267C78.1896 73.4945 76.3939 75.4683 76.0879 75.4851C74.7943 75.5595 69.459 72.6998 67.3799 72.2078C58.8266 70.1867 54.3664 75.8448 46.5322 76.3367C44.5031 76.4627 41.9926 76.4002 40.0068 76.0242C34.1896 74.9207 30.0209 71.2384 23.5879 71.7839C19.8457 72.1002 16.6594 74.5679 13.0742 75.4607L10.4639 72.6101C15.5061 72.1637 19.5444 68.5272 24.6094 68.2585ZM46.5225 61.03C53.3357 60.5278 57.8077 55.7436 65.1211 56.283C70.4567 56.6756 74.6186 60.4695 80.0059 60.823C82.1115 60.9614 84.0437 60.5157 86.0977 60.2078V60.2117L84.6182 63.8962C82.8371 64.0843 81.2213 64.4585 79.4092 64.3181C74.3132 63.9234 70.2253 60.1912 65.1211 59.8005C57.3181 59.2033 51.629 64.8673 43.2227 64.3406C36.2647 63.9045 31.294 59.2758 24.21 59.7986C17.6531 60.2823 12.4062 65.8487 5.28516 64.0447C3.98339 63.7139 3.66696 61.3008 3.02637 60.2097C7.16765 61.3153 11.1173 60.8693 15.0664 59.3318C16.7794 58.6643 18.4054 57.5973 20.2217 57.0476C30.6741 53.8879 36.318 61.7822 46.5225 61.03ZM42.2432 0.341553C51.3585 -0.14201 60.9781 2.40585 68.6387 7.30347C83.0877 16.5387 91.143 34.0026 88.376 51.0203C85.6793 52.1692 82.5383 52.6261 79.6123 52.3328C76.0744 51.9794 72.9205 49.7143 69.5645 48.741C58.6803 45.5876 53.3093 53.0903 42.7949 52.365C36.6369 51.9413 31.8819 47.8684 25.6309 47.8435C16.7428 47.8084 12.2848 54.5928 2.60938 51.6335C2.23251 51.5176 0.779113 51.1152 0.642578 50.9148C-3.54209 24.7694 16.0813 1.73232 42.2432 0.343506V0.341553ZM53.2207 15.489C47.9842 11.6267 40.8465 11.5808 35.2607 14.7507L35.4014 15.158L38.0566 17.0115L40.0117 19.7039C38.9578 19.9064 37.8702 20.5352 36.9072 21.0457C34.8322 22.1432 29.4098 25.6476 27.4922 25.8894C27.0604 25.9431 26.579 25.9845 26.1699 25.7986C22.3386 22.2153 17.8646 18.6507 12.3223 18.6755C13.4299 22.9509 15.7653 26.974 19.1396 29.8298C15.3746 31.9872 13.2274 36.8828 12.3223 40.991C13.6056 40.7492 14.8518 40.7043 16.1289 40.3572C18.8732 39.6091 22.149 37.1618 24.3105 35.3123C26.4717 33.463 25.8441 32.663 29.1338 33.9958L37.9424 38.7175L32.3721 41.7146C36.9328 44.5683 43.5059 44.527 47.583 40.824C58.3019 43.8526 71.3661 40.0405 78.4365 31.3513C74.3689 32.6978 69.3951 32.4731 66.2559 29.9812L71.3984 30.8933C74.1205 30.9406 77.0418 30.5616 79.6504 29.7263C74.5895 22.6779 65.8612 17.8428 57.2422 16.8406C56.4384 16.7476 55.2998 16.9705 54.624 16.7722C54.2542 16.6627 53.6381 15.7971 53.2207 15.489ZM69.2373 24.7722C72.1056 24.4064 71.7067 29.4636 68.5098 28.0935C67.0963 27.488 67.5118 24.9913 69.2373 24.7722Z" fill="url(#paint0_linear_4505_73)"/>
<defs>
<linearGradient id="paint0_linear_4505_73" x1="31.6876" y1="-5.2702" x2="61.3787" y2="79.0735" gradientUnits="userSpaceOnUse">
<stop stop-color="#00FFFF"/>
<stop offset="1" stop-color="#009999"/>
</linearGradient>
</defs>
</svg>
