<svg width="100" height="100" viewBox="0 0 100 100" fill="none" xmlns="http://www.w3.org/2000/svg">
<circle cx="50" cy="50" r="25" fill="#00D0E7" stroke="#008695" stroke-width="50"/>
<path d="M28.5752 71.3325C41.0737 68.1829 48.9715 79.536 60.5615 78.6196C65.3952 78.2379 69.4111 75.1777 74.457 75.3472C77.8841 75.4637 80.6931 77.1376 83.9365 77.8071C84.1757 78.0267 82.1412 80.2586 81.7666 80.4194C79.8847 80.001 77.933 78.9099 76.0225 78.6812C69.7131 77.9239 65.1915 81.812 59.1475 81.8999C49.029 82.0469 41.5616 73.0554 31.3799 73.9331C26.3566 74.3659 22.015 78.1054 16.8896 78.228C14.7851 78.2791 14.4495 76.0862 13.1084 74.8472C13.2737 74.5084 13.7068 74.9495 13.8232 74.9497C15.2072 74.9497 16.9958 75.0987 18.3145 74.9497H18.3125C21.464 74.5944 25.2808 72.1633 28.5752 71.3325ZM6.02832 57.8384C0.159944 25.2867 29.5992 -1.9355 61.5732 6.58057C89.83 14.1088 102.723 46.22 88.6074 71.6519H88.6055C82.9595 71.6416 78.5072 68.0226 72.8164 68.4185C68.9258 68.6879 65.6347 70.8718 61.9727 71.4556C50.7297 73.2517 42.181 62.0272 30.1768 63.7456C24.3001 64.5866 20.1234 68.5288 13.8242 68.2104C13.067 68.1717 9.64577 67.6939 9.14746 67.3755C8.13704 66.7345 6.29981 59.3428 6.02832 57.8384ZM85.2695 61.2681C80.8217 61.662 75.5165 60.7578 71.1748 61.2681C69.0948 61.5131 69.105 63.8892 71.1748 64.1362C75.6532 63.7137 81.1196 64.683 85.4756 64.1401C85.7858 64.1014 86.3435 63.8932 86.5293 63.6646L86.5312 63.6626C87.3396 62.6583 86.4739 61.2966 85.2695 61.2681ZM53.3115 25.4624C48.4676 16.4831 36.6432 13.6705 28.8232 20.7495C25.5001 23.7583 23.5992 27.2612 23.7217 31.8765C19.1617 32.0562 14.64 35.5806 12.8682 39.6997C8.95917 48.7792 15.4635 58.1181 25.041 58.6284C38.1437 57.9671 52.0607 59.4755 65.0674 58.6284C70.4888 58.2753 75.294 54.4789 76.3311 49.0718C77.5068 42.946 73.5505 36.3585 66.998 36.1646L66.9961 36.1626C68.3107 28.9162 60.1293 22.4822 53.3115 25.4624ZM86.4941 53.7153C84.9568 53.5439 79.9978 53.5013 78.54 53.7319C76.8825 53.9953 76.5682 56.277 78.3359 56.5669C79.6553 56.7832 85.5479 56.773 86.8848 56.5669C88.0602 56.3849 88.5742 55.0075 87.7578 54.187L87.7598 54.1851C87.5373 53.9605 86.8309 53.7521 86.4941 53.7153ZM56.9971 45.145C58.0626 40.8094 65.0639 42.5319 62.6797 47.0532C61.9857 48.3698 60.4628 49.0086 59.6504 50.2495H63.1201V51.8823H56.9971C57.0357 51.3558 56.872 50.7575 57.1006 50.2515C57.2405 49.9445 60.0141 47.7123 60.5732 46.9878C62.0182 45.1222 60.6076 43.6014 59.2441 44.6401C58.293 45.3647 58.8826 45.8551 56.9971 45.145ZM33.0664 34.1812C35.3893 33.9137 37.868 34.7126 39.4336 36.4722L37.4717 38.1763C36.8452 38.1048 36.5265 37.542 35.9736 37.2847C33.02 35.915 29.9642 37.7761 29.6436 40.9644C29.1475 45.9266 33.4012 48.5111 37.2959 45.3433L39.4355 47.0864C35.6878 51.2853 28.2536 49.7294 26.8799 44.1323C25.7532 39.5518 28.1206 34.7527 33.0664 34.1812ZM47.3535 34.1821C58.217 32.9349 59.0644 50.3956 47.5049 49.4302C38.7929 48.7035 38.5805 35.1887 47.3535 34.1821ZM47.3906 46.689C54.5185 48.0564 54.698 35.8027 47.5537 36.8335C42.7405 37.5276 42.6243 45.7745 47.3906 46.689Z" fill="url(#paint0_linear_6965_645)"/>
<defs>
<linearGradient id="paint0_linear_6965_645" x1="36.9757" y1="-0.60651" x2="67.1469" y2="84.467" gradientUnits="userSpaceOnUse">
<stop stop-color="#00FFFF"/>
<stop offset="1" stop-color="#009999"/>
</linearGradient>
</defs>
</svg>
