<svg width="100" height="100" viewBox="0 0 100 100" fill="none" xmlns="http://www.w3.org/2000/svg">
<circle cx="50" cy="50" r="25" fill="#00D0E7" stroke="#008695" stroke-width="50"/>
<path d="M63.2627 91.5029C61.5212 92.3248 58.9212 92.7487 56.9551 93V93.0029C52.1532 93.617 47.6768 93.4238 42.9346 92.6699C43.7407 92.3654 44.3912 92.7482 45.1465 92.8164C48.5598 93.1242 53.5656 93.129 56.9531 92.6699V92.668C59.1543 92.3701 61.1965 91.6427 63.2627 91.5029ZM44.5107 7.29883C47.6335 6.97437 50.9261 6.87883 54.0576 7.13672C54.8426 7.20161 55.537 7.60567 56.3359 7.2998L56.5186 7.63379C56.2592 7.8052 55.9982 7.98206 55.7266 8.13184C55.6992 7.96696 55.6378 7.8473 55.5518 7.75977L55.5498 7.75879C55.6359 7.84633 55.6976 7.96595 55.7256 8.13086C52.1786 10.1028 51.2423 10.8244 48.54 13.7881C44.448 18.2779 45.3346 26.6455 45.0332 32.3418C44.9947 33.0855 44.8839 33.8843 44.8594 34.5898C44.8559 34.7013 44.8611 34.8114 44.8594 34.9229C44.3775 35.7848 44.3134 36.8201 44.0996 37.7803C44.0453 38.0232 43.8262 38.4226 44.1592 38.584C39.9499 52.5172 25.4905 55.6928 21.9023 68.2041L21.9043 68.2051L21.3799 70.3662C19.7716 64.1657 19.1901 57.3931 20.3262 51.0693C20.3258 51.0681 20.3256 51.0667 20.3252 51.0654C20.928 47.714 21.9949 44.6686 24.0381 41.8613C26.5459 38.4117 29.9844 35.7053 33.6436 33.4238C33.6873 33.1095 33.3167 33.3239 33.1553 33.374C31.911 33.7584 30.5292 34.4987 29.3848 35.1211C27.1627 36.3326 24.8267 37.8488 23.041 39.5811C23.1251 38.1399 23.8946 36.5255 24.501 35.1426C26.1851 31.3068 28.5445 27.7706 31.0488 24.3857L36.0977 18.2812C35.9327 18.1284 34.4015 19.3446 34.168 19.5264C30.5446 22.3465 28.6995 25.4016 25.7617 28.5977L25.7568 28.6025V28.6016C22.4178 32.233 20.1445 38.2513 19.0547 43.2842C18.946 43.7879 18.5164 44.3415 18.748 45.0742C18.7492 45.074 18.7508 45.0744 18.752 45.0742C18.5189 44.3403 18.948 43.7871 19.0566 43.2812C20.1462 38.2497 22.421 32.2358 25.7568 28.6025C22.0639 34.2812 19.5169 40.5873 18.5742 47.2373C18.1122 47.2871 18.2978 47.2289 18.2227 46.9912C17.8196 45.7248 17.2934 44.2467 16.6484 43.0752C16.6794 43.0202 16.7081 42.978 16.7344 42.9463C16.7075 42.9781 16.6783 43.021 16.6465 43.0771C16.0103 41.9223 14.5576 39.8224 13.6621 38.8389C13.4186 38.571 13.1362 38.3398 12.877 38.0869C12.7422 38.062 12.7713 38.2393 12.7871 38.3359C12.9676 39.3594 14.6432 42.247 15.1182 43.6133C15.9365 45.9696 16.3852 48.1129 16.6445 50.5674C17.0283 54.1802 16.9549 57.6756 17.0303 61.3018C17.0478 62.1771 17.2331 63.3703 17.5205 64.2139C17.5222 64.2687 17.5188 64.3251 17.5205 64.3799C17.538 64.8207 17.4855 65.2734 17.5205 65.7109C17.6397 67.1987 18.1114 68.6369 18.5723 70.0381C18.9191 71.0977 19.3599 72.342 19.7979 73.3652H19.7998C20.8548 75.8347 22.4335 78.7701 24.1807 80.8535L23.3691 80.2939C22.188 78.2389 20.6051 76.3855 19.792 74.1191C19.7438 73.984 19.6301 73.7789 19.6318 73.6094V73.6104C19.6299 73.7799 19.7437 73.9848 19.792 74.1201C20.6052 76.3867 22.188 78.2407 23.3691 80.2959L24.1807 80.8545C26.9443 84.1495 30.8784 86.8292 34.8828 88.5898C35.1381 88.7011 35.5009 88.5538 35.3965 89.0059L35.3994 89.0068C35.8778 88.9935 36.4408 89.0004 36.8018 89.3398C35.6137 89.1851 34.1817 89.1798 32.9463 89.0068C32.9049 89.001 32.8613 88.9996 32.8174 89C32.861 88.9997 32.9042 89.002 32.9453 89.0078H32.9443C34.1798 89.1809 35.6126 89.1861 36.8008 89.3408C38.2095 89.5239 39.5884 89.8494 41.0059 90.0059C40.3526 89.193 40.3559 88.3778 40.1318 87.5117C40.3946 87.3536 40.3409 86.7982 40.3076 86.5137C40.994 86.5948 40.5647 85.3559 40.582 84.9912C40.7538 81.3652 41.3868 80.1052 42.7852 76.9619C43.1532 76.1332 43.199 74.7548 43.5811 73.8994C43.6478 73.7512 44.153 73.0043 44.1611 72.9346C44.3662 70.8694 44.8201 69.09 45.3896 67.376H45.5635C45.0326 70.221 44.6062 72.833 43.6426 75.6182C43.1379 77.076 42.34 78.4664 41.8809 79.9375C40.8876 83.1134 40.8219 86.7367 41.1826 90.0059C41.4491 90.0346 41.7067 90.0938 41.9688 90.1367L42.2334 90.1729C42.4624 90.1958 42.7036 90.1529 42.9326 90.1729C43.0271 89.3143 42.7169 88.2794 43.1074 87.5107L43.1211 87.8164C43.1786 88.5275 43.3941 89.2101 43.1074 90.0049C45.2804 90.0355 47.4525 90.2166 49.6299 90.1992C47.4521 90.2176 45.282 90.0359 43.1094 90.0039C43.4371 89.097 43.1076 88.3332 43.1094 87.5078C43.1339 78.3218 51.7808 72.8864 60.8955 73.5303C65.8884 73.8831 69.9123 76.717 75.0996 76.3643C77.5383 76.198 79.7721 75.1929 81.833 74.0312C81.8344 74.0296 81.8365 74.028 81.8379 74.0264C81.9675 73.8717 82.0624 73.6854 82.1885 73.5273L82.1904 73.5264C84.4812 70.679 86.0186 68.2061 87.4463 64.7119L87.7549 63.9316C89.2521 60.0145 90.0692 55.8956 90.4258 51.7314C90.4479 51.7365 90.4669 51.7436 90.4834 51.752L90.4268 51.7314C90.7569 47.8748 90.452 43.1188 89.7051 39.1924L89.5498 38.4189C89.5459 38.4005 89.4327 38.3416 89.375 38.085C89.3527 37.9852 89.3977 37.8525 89.375 37.7529H89.5498L89.5488 37.752H89.374C88.936 35.9186 88.1446 33.3513 87.4473 31.5957H87.4463C87.4112 31.5076 87.3248 31.3982 87.2705 31.2637H87.2725V31.2617C86.7712 30.0236 86.0385 28.8364 85.5215 27.6016C85.9227 27.545 86.147 28.1079 86.3643 28.3809C86.9356 29.0914 87.3142 29.8488 87.7979 30.5977V30.5986C90.4646 34.7266 93.0044 39.3856 93.4043 44.2422H93.4062C93.4114 44.297 93.401 44.3534 93.4062 44.4082C93.5394 45.8277 93.4237 47.7468 93.5762 48.96C93.5785 48.9772 93.5867 48.99 93.5986 49.001C93.5881 48.9902 93.581 48.9773 93.5791 48.9609C93.4266 47.7478 93.5424 45.8287 93.4092 44.4092C93.7807 44.6954 93.8121 45.2814 93.8857 45.7041C94.5026 49.2369 94.2317 52.1024 93.9355 55.5586H93.9336L93.9297 55.5615C93.0741 65.5622 88.95 74.0571 81.4883 81.1875V81.1855H81.3125C81.3114 81.1851 81.3106 81.1841 81.3096 81.1836C80.2805 81.4144 79.7671 82.6404 79.2031 83.0928C78.9962 83.2589 78.5407 83.2227 78.3252 83.4307C78.1607 83.5888 78.2026 83.913 78.1221 83.9795C78.0029 84.0777 77.6315 83.9667 77.4492 84.0898C77.2813 84.2031 77.3474 84.5168 77.2285 84.6367C76.9534 84.9163 73.2526 87.1144 72.6562 87.4375C69.6384 89.07 66.3101 90.0622 63.2607 91.5C61.1947 91.6398 59.1531 92.3672 56.9521 92.665C53.5646 93.1243 48.5574 93.1194 45.1436 92.8115C44.3883 92.7433 43.736 92.3605 42.9316 92.665C42.329 92.5685 41.7771 92.4535 41.1797 92.332C41.1797 92.3337 41.1807 92.3353 41.1807 92.3369C41.0757 92.3155 40.936 92.3583 40.8311 92.3369V92.335C38.2744 91.7908 35.637 91.1407 33.2959 90.0059C33.3366 90.0133 33.7111 89.9636 34.043 89.9727C33.7109 89.9635 33.3357 90.0133 33.2949 90.0059C33.2407 89.996 33.1761 90.0158 33.1201 90.0059C33.1733 89.7522 33.0551 89.6502 32.8799 89.6016C33.0543 89.6504 33.1713 89.7527 33.1182 90.0059C32.8605 89.9591 32.4349 89.7014 32.2422 89.5068C32.3848 89.5485 32.5805 89.5506 32.752 89.5762C32.5809 89.5508 32.3863 89.5483 32.2441 89.5068C32.2033 89.4943 32.1532 89.5102 32.1094 89.5117L32.0684 89.5068C31.6407 89.3637 31.3478 89.1493 31.0166 89.0078L31.6123 88.835L31.833 89.1709L32.0684 89.1738V89.1729L31.834 89.1699L31.6133 88.834L31.0176 89.0068C30.0976 88.6141 29.2561 88.1567 28.3887 87.6758C28.4029 87.652 28.4191 87.6324 28.4365 87.6162L28.4336 87.6182C28.4164 87.6343 28.4009 87.6542 28.3867 87.6777C23.7391 85.1033 20.3033 82.2209 16.8193 78.3584C16.8203 78.3581 16.8213 78.3568 16.8223 78.3564C15.3393 76.7125 13.8106 74.9893 12.7979 73.0439C12.7948 73.0406 12.7921 73.0366 12.7891 73.0332C12.1337 72.2977 11.8739 71.6905 11.3867 70.8701C11.3972 70.8671 11.4067 70.8619 11.416 70.8584C11.4078 70.8614 11.3997 70.8656 11.3906 70.8682C9.12814 67.0689 7.57126 63.0049 6.6582 58.7197H6.65527C5.85265 54.9505 5.64786 51.5871 5.7793 47.7363H5.9541V47.7354H5.78223C5.9065 44.0946 6.44972 40.3873 7.7041 36.9336C7.70483 36.9296 7.7063 36.9258 7.70703 36.9219C7.72631 36.8187 7.69301 36.6954 7.70703 36.5889C7.81538 36.6104 7.89252 36.6088 7.94922 36.5908L7.95312 36.5889C7.89622 36.6068 7.81862 36.6085 7.70996 36.5869C8.00422 34.4746 10.2455 30.6833 11.3887 28.7686V28.7666C13.3027 25.5637 15.0123 23.3993 17.5332 20.8047L18.0488 20.2793L18.749 19.6143C18.8663 19.5012 18.9806 19.3936 19.0996 19.2822L19.2754 19.1152C19.575 18.8391 19.8325 18.5644 20.1514 18.2832C20.3217 18.2769 20.5209 18.2268 20.5801 18.1406C20.5198 18.226 20.3219 18.276 20.1523 18.2822C20.261 18.1874 20.361 18.0724 20.5029 17.9492C24.1775 14.7846 28.0326 12.3505 32.5938 10.4619L34.7373 10.0859C37.6377 8.90939 41.0325 8.01556 44.3359 7.63281L44.335 7.63184C41.032 8.0147 37.6399 8.90862 34.7383 10.085L32.5947 10.4609C36.3433 8.90832 40.4215 7.7232 44.5117 7.29883H44.5107ZM39.8271 91.6123C39.8721 91.6962 39.9645 91.7721 40.1309 91.8369C40.1868 91.8468 40.248 91.8304 40.3057 91.8369L40.3066 91.8379C40.6632 91.8773 41.0268 91.7702 41.1426 92.083C41.0292 91.764 40.6624 91.8731 40.3037 91.833C40.2459 91.8264 40.184 91.843 40.1279 91.833C39.964 91.7693 39.873 91.6947 39.8271 91.6123ZM39.0576 91.0654C39.2357 91.2052 39.2926 91.4072 39.0781 91.6689C39.2934 91.4065 39.2364 91.2053 39.0576 91.0654ZM81.4893 81.1875C77.6583 84.8469 68.6797 91.1371 63.2627 91.5049V91.5039C66.312 90.0661 69.6421 89.0723 72.6582 87.4414C73.2563 87.1183 76.9554 84.9185 77.2305 84.6406C77.3495 84.5191 77.283 84.2042 77.4512 84.0928C77.6335 83.9715 78.0049 84.0815 78.124 83.9834C78.2063 83.9169 78.1645 83.5928 78.3271 83.4346C78.5408 83.2283 78.9981 83.2645 79.2051 83.0967C79.7676 82.6441 80.2831 81.4172 81.3135 81.1875H81.4893ZM36.9746 91.0039C36.9379 90.9903 36.8893 91.0046 36.8438 91.0068C36.8898 91.0049 36.9394 90.991 36.9766 91.0049H36.9775C37.0787 91.033 37.1636 91.0417 37.2344 91.0342C37.1629 91.0418 37.077 91.0325 36.9746 91.0039ZM38.8018 90.9307C38.863 90.9525 38.9202 90.9782 38.9717 91.0078C38.9201 90.9783 38.863 90.9525 38.8018 90.9307ZM36.7988 91.0029L36.8008 91.0049C36.8125 91.008 36.8252 91.007 36.8379 91.0068C36.8247 91.0071 36.812 91.0071 36.7998 91.0039L36.7988 91.0029ZM36.5107 90.9297C36.532 90.9473 36.5568 90.9569 36.583 90.9648C36.5567 90.957 36.5321 90.9471 36.5107 90.9297ZM38.2021 90.8398C38.2912 90.8367 38.3853 90.844 38.4795 90.8564C38.4595 90.8538 38.4399 90.8486 38.4199 90.8467L38.2021 90.8398ZM35.5498 90.4883C35.8035 90.6018 36.0634 90.7119 36.3154 90.7939C36.0634 90.7121 35.8035 90.6018 35.5498 90.4883ZM39.0801 90.4199L39.9541 90.6729V90.6699L39.0811 90.417L39.0801 90.4199ZM57.3887 89.3369C56.8628 89.4527 56.3117 89.5647 55.7285 89.6719L55.7275 89.6729C55.6716 89.6828 55.6087 89.6647 55.5527 89.6729H55.5498C55.3581 89.9525 54.8307 89.8322 54.5 89.8389C53.1701 89.8689 51.847 90.1305 50.5645 90.1787C50.2599 90.1903 49.9556 90.1965 49.6514 90.1992C49.9551 90.1966 50.2595 90.1911 50.5635 90.1797C51.8439 90.1315 53.1645 89.8715 54.4922 89.8408C54.4944 89.8404 54.4968 89.8403 54.499 89.8398C54.8302 89.8332 55.3597 89.9549 55.5508 89.6738C55.6067 89.6656 55.6696 89.6837 55.7256 89.6738C56.3098 89.5665 56.8619 89.4529 57.3887 89.3369ZM34.4746 90.043C34.5984 90.0807 34.733 90.1316 34.875 90.1914C34.7331 90.1316 34.5984 90.0808 34.4746 90.043ZM37.333 89.7988C37.3658 89.807 37.3881 89.8144 37.3984 89.8213C37.413 89.8552 37.4274 89.8953 37.4424 89.9395C37.4275 89.8954 37.4138 89.8551 37.3994 89.8213C37.389 89.8144 37.3662 89.8071 37.333 89.7988ZM36.0762 89.6318C36.1863 89.6431 36.2971 89.6559 36.4053 89.668C36.2971 89.6559 36.1863 89.6431 36.0762 89.6318ZM57.0762 89.2471C56.7937 89.3266 56.5126 89.4095 56.2344 89.5C56.5126 89.4095 56.7937 89.3266 57.0762 89.2471ZM61.3252 88.249C60.2539 88.6115 59.1344 88.934 57.8711 89.2275C59.1344 88.9339 60.2539 88.6115 61.3252 88.249ZM32.4199 89.0068C32.25 88.9886 32.0869 89.0118 32.0693 89.0068C32.0896 89.0112 32.2473 88.9897 32.4189 89.0078C32.4614 89.0124 32.5054 89.0127 32.5498 89.0117C32.5057 89.0126 32.4621 89.0114 32.4199 89.0068ZM30.626 88.377C30.972 88.5317 31.3479 88.7144 31.6602 88.8496C31.3478 88.7144 30.972 88.5317 30.626 88.377ZM60.2598 88.4365C59.9123 88.528 59.5625 88.6126 59.2129 88.6982C59.8165 88.5504 60.4196 88.4021 61.0137 88.2285L60.2598 88.4365ZM39.1465 55.1182C39.9235 53.9008 42.0738 55.622 42.7539 56.3877C42.7554 56.3873 42.7573 56.3881 42.7588 56.3877C42.8096 56.4443 42.8933 56.4898 42.9336 56.5547C42.9469 56.5761 42.935 56.6345 42.9258 56.6963C42.9352 56.635 42.9476 56.5769 42.9336 56.5557C43.1711 56.5921 43.5357 56.6493 43.6318 56.8867H43.6348C43.6351 56.8877 43.6344 56.8896 43.6348 56.8906C44.7058 56.9336 46.0651 56.8732 46.9551 57.5508C46.9589 57.5512 46.9629 57.5524 46.9668 57.5527C47.0245 57.5577 47.0839 57.5527 47.1416 57.5527C47.1415 57.554 47.1407 57.5554 47.1406 57.5566C47.4297 57.5665 48.3737 58.033 48.6309 58.2207C49.1088 58.5687 49.8207 59.3646 49.9414 59.8789C49.943 59.8799 49.9447 59.8818 49.9463 59.8828C49.9466 59.8844 49.946 59.8861 49.9463 59.8877C50.6746 60.3402 52.8245 62.0186 53.4434 62.71C53.4459 62.7105 53.4487 62.7114 53.4512 62.7119C53.4774 62.7423 53.5038 62.8423 53.5596 62.9443L53.626 63.0449C53.872 62.6711 54.8761 63.5919 54.9355 63.7148C55.421 64.72 54.713 64.6566 54.501 64.8779H54.5C54.4492 64.9312 54.4941 65.1674 54.2207 65.3555C52.9711 66.2174 49.503 65.4134 47.9346 65.3701C47.2862 65.3518 46.3679 65.264 46.042 65.918C45.8334 66.334 45.6439 66.9314 45.5615 67.374H45.3867C44.8176 69.0889 44.3624 70.8656 44.1592 72.9297C44.1514 73.0006 43.646 73.7461 43.5791 73.8945C43.1971 74.7499 43.153 76.1283 42.7832 76.957C41.3848 80.1004 40.7518 81.3603 40.5801 84.9863C40.5627 85.3509 40.9921 86.5899 40.3057 86.5088C40.0971 84.7565 39.8162 82.342 39.499 80.7178C39.2344 79.3682 38.5757 78.2248 38.3584 76.877L37.6787 76.8564L37.6768 76.8584L38.3555 76.8779C38.5728 78.2241 39.2314 79.3693 39.4961 80.7188C39.8133 82.3429 40.0959 84.7584 40.3027 86.5107C40.336 86.7954 40.3897 87.3508 40.127 87.5088C39.6381 85.6201 39.5476 84.0159 39.2217 82.1289C38.936 80.4681 38.4874 78.8482 38.1982 77.1924L37.8486 79.0234H37.8506C37.8523 82.1668 37.1824 85.5315 38.5508 88.5068C38.3068 88.6797 35.8311 87.5551 35.3965 87.3438V87.3418C33.6786 86.5067 32.6183 85.6465 31.1924 84.5137L31.1934 84.5127C31.1307 84.4612 31.0796 84.3964 31.0186 84.3467C30.9988 84.191 30.9468 84.0581 30.8721 83.9424L30.8711 83.9414C30.9459 84.0571 30.9978 84.19 31.0176 84.3457C29.0391 82.7233 27.4793 81.1906 25.9688 79.0723C25.3466 78.2002 22.861 74.1525 23.0303 73.3613C23.2546 72.3162 24.8372 71.0814 25.7607 70.5322C26.8701 69.875 27.9328 69.485 29.2207 69.249L35.9209 68.7051H35.9219C33.6841 69.492 31.5145 69.0375 29.3818 69.54C29.2418 69.5734 29.2697 69.8558 29.1455 69.876C28.8704 69.9209 28.5566 69.7296 28.1992 69.7744C27.6734 69.8408 26.6007 70.4088 26.1113 70.6992V70.7012C25.9186 70.816 24.7016 71.6468 24.5859 71.75C24.1865 72.1028 24.1252 72.8982 23.4717 73.1445C23.4656 73.1805 23.4633 73.216 23.4639 73.251C23.4634 73.2162 23.4662 73.1809 23.4727 73.1455C24.1261 72.8991 24.1891 72.1037 24.5869 71.751C24.7044 71.6478 25.9189 70.819 26.1113 70.7031C26.5985 70.4119 27.6765 69.8414 28.2041 69.7764C28.5615 69.7315 28.8753 69.9227 29.1504 69.8779C29.2748 69.858 29.2457 69.5743 29.3877 69.541C31.5203 69.0386 33.69 69.4931 35.9277 68.7061C36.7092 68.4316 37.0245 68.4395 37.6797 67.874C38.4122 68.0537 38.6736 67.504 38.7314 66.875C38.8556 66.7289 39.0396 66.5964 39.082 66.543C39.6094 66.6212 39.5078 66.5508 39.6934 66.2148C40.3172 65.09 41.6635 61.6708 41.6533 60.5986C41.6533 60.4655 41.5369 60.405 41.5352 60.3867L41.5342 60.3857C41.5458 60.4073 41.6477 60.4698 41.6494 60.5947C41.6599 61.6664 40.3134 65.086 39.6895 66.2109C39.5037 66.5471 39.6056 66.6173 39.0781 66.5391C40.276 64.9909 40.7724 62.218 41.3555 60.3857H41.3545C41.2949 59.8517 40.3285 59.6086 39.8691 59.2178C38.6844 58.2076 38.3 56.4428 39.1465 55.1182ZM29.6152 88.0088H29.7852C29.7219 87.9743 29.7101 87.8846 29.6152 88.0088ZM31.2891 84.4971C31.3633 84.4879 31.426 84.4907 31.4805 84.502C31.5188 84.5098 31.5528 84.5218 31.584 84.5371C31.7395 84.6137 31.8192 84.7693 31.958 84.8682C33.0218 85.617 34.3475 86.3967 35.5742 87.0107H35.5732C36.1916 87.3202 36.8866 87.6937 37.6748 87.8418C37.6741 87.8406 37.6736 87.8391 37.6729 87.8379C36.8866 87.6891 36.1923 87.3169 35.5752 87.0098C34.3485 86.3957 33.0237 85.617 31.96 84.8682C31.7533 84.7213 31.6766 84.4486 31.2891 84.4971ZM68.334 85.3496C66.3992 86.2052 64.8076 86.9255 63.2383 87.5449C64.8075 86.9255 66.3994 86.2062 68.334 85.3506V85.3496ZM71.8438 83.3486C71.6751 83.3392 71.6097 83.4116 71.5029 83.5117H71.5049C71.6102 83.4128 71.6758 83.3412 71.8418 83.3496L71.8438 83.3486ZM28.6426 82.043C28.8289 82.2798 29.0139 82.5015 29.1826 82.6836C29.0141 82.5017 28.8295 82.2804 28.6436 82.0439L28.6426 82.043ZM81.416 80.7295C81.2621 80.8208 81.0573 80.9359 81.1426 81.0635C81.0597 80.9362 81.2624 80.8201 81.416 80.7295ZM88.585 71.6807C88.1353 72.4691 87.673 73.2374 87.2051 73.9697C87.1192 74.1045 86.4105 74.7561 86.3955 74.8135C86.3464 75.0215 86.4708 75.3944 86.3691 75.5059C86.3178 75.5622 85.9817 75.5058 85.7891 75.6953C85.5964 75.885 85.5037 76.4773 85.332 76.7188C84.3893 78.0466 82.8349 79.5079 81.5381 80.6494C81.5287 80.6578 81.5158 80.6649 81.5029 80.6738C81.5158 80.665 81.5296 80.6596 81.5391 80.6514C82.8359 79.5081 84.3902 78.047 85.333 76.7207C85.5047 76.4794 85.6035 75.8836 85.791 75.6973C85.9786 75.5113 86.3203 75.5644 86.3711 75.5078C86.4724 75.3961 86.3475 75.0233 86.3965 74.8154C86.4088 74.7605 87.1194 74.1065 87.207 73.9717C87.6725 73.2439 88.1346 72.4726 88.585 71.6807ZM75.9912 80.1494C76.0674 80.1069 76.1443 80.0657 76.2217 80.0254L76.2236 80.0234C76.1455 80.0641 76.0682 80.1065 75.9912 80.1494ZM76.9307 79.1895C76.9994 79.2835 77.0292 79.3655 77.0312 79.4375C77.0303 79.3651 77.0005 79.2833 76.9316 79.1885L76.9307 79.1895ZM25.668 78.0039C25.7687 78.1539 25.8711 78.3021 25.9736 78.4492C25.8713 78.3025 25.7694 78.1545 25.6689 78.0049L25.668 78.0039ZM16.8555 78.3418C16.867 78.3368 16.8788 78.3343 16.8887 78.3291L16.8916 78.3271C16.8808 78.3329 16.8682 78.3363 16.8555 78.3418ZM23.9629 74.9199C24.2215 75.5513 24.5464 76.1797 24.9072 76.7949C24.5467 76.1801 24.2223 75.5519 23.9639 74.9209L23.9629 74.9199ZM23.5186 73.5674C23.5787 73.818 23.6548 74.0687 23.7402 74.3203C23.655 74.0691 23.5795 73.8185 23.5195 73.5684C23.5035 73.501 23.4866 73.4338 23.4756 73.3662C23.4864 73.4334 23.5025 73.5001 23.5186 73.5674ZM77.6309 45.4072C79.5043 51.7475 86.641 57.4723 86.2188 64.46C85.6913 73.1966 73.5712 75.7678 69.7471 67.707H69.7461C68.4878 65.0544 68.4638 61.8524 69.9219 59.2197L69.9258 59.1797C69.9246 59.1377 69.9115 59.0925 69.9219 59.0537C70.3951 59.1486 70.2641 58.8269 70.3535 58.5557C70.4245 58.3419 70.4963 58.1486 70.5703 57.9668V57.9658C70.4962 58.1476 70.424 58.3409 70.3525 58.5547C70.2632 58.8259 70.3941 59.1476 69.9209 59.0527C70.1803 58.1458 70.6082 57.0903 71.3232 56.3896C71.0811 56.8797 70.8737 57.2692 70.6826 57.7012L70.7998 57.4463C70.9586 57.11 71.1306 56.7825 71.3242 56.3906C71.3467 56.3458 71.3011 56.2696 71.3232 56.2246H71.3223C72.1197 54.642 73.2227 53.2458 74.127 51.7314L73.7617 52.7637C73.5504 52.9545 73.3716 53.1648 73.2139 53.3867C73.3719 53.1644 73.5515 52.9538 73.7637 52.7627L74.1279 51.7314C74.8552 50.5116 75.5739 49.2831 76.3223 48.0732L77.6309 45.4072ZM17.873 65.71L18.5742 70.0371C18.1421 68.7235 17.7005 67.3772 17.5488 65.9883L17.5225 65.71C17.4874 65.2724 17.5399 64.8198 17.5225 64.3789L17.873 65.71ZM71.918 65.2061C71.9131 67.5442 73.6227 69.9157 76.2314 70.0352L76.2295 70.0332C73.6223 69.9111 71.9135 67.5429 71.918 65.2061ZM21.3799 69.0352H21.3809V68.7061H21.5518V68.7041H21.3799V69.0352ZM38.7266 66.874C38.6687 67.503 38.4073 68.0518 37.6748 67.8721C37.8817 67.6939 38.5846 67.0421 38.7266 66.874ZM92.0186 64.0703C91.8271 64.6725 91.6323 65.2406 91.4365 65.7539C91.1852 66.4128 90.9055 67.079 90.6045 67.7451C90.9098 67.0716 91.1901 66.4046 91.4375 65.7559C91.6306 65.2495 91.8258 64.6798 92.0186 64.0703ZM69.4004 66.1709C69.5023 66.5308 69.6057 66.8901 69.6768 67.2559L69.5771 66.8115C69.5231 66.5971 69.4608 66.3843 69.4004 66.1709ZM45.3867 66.707C45.3648 66.7771 45.1727 66.8662 45.2246 67.0186C45.176 66.8677 45.3643 66.7787 45.3857 66.709L45.3867 66.708V66.707ZM54.502 64.875C53.8485 64.5991 53.568 65.1891 53.5049 65.2041C52.4394 65.4487 50.9919 65.1908 50.0176 65.041C49.5429 64.9679 49.1277 65.2522 48.8281 65.2158C48.7125 65.2025 48.7328 64.9086 48.5996 64.877C48.506 64.8554 46.8988 64.8551 46.7354 64.875C46.6828 64.8817 46.3112 65.3664 46.1885 65.4746C46.1042 65.5493 45.8795 65.5212 45.7324 65.6592C45.7063 65.6838 45.6833 65.7122 45.6621 65.7432C45.6829 65.7132 45.706 65.6861 45.7314 65.6621C45.8787 65.524 46.1051 65.5514 46.1875 65.4766C46.3104 65.368 46.6818 64.8829 46.7344 64.8779C46.8981 64.8597 48.5057 64.86 48.5986 64.8799C48.7318 64.9115 48.7115 65.2054 48.8271 65.2188C49.1268 65.2551 49.5402 64.9708 50.0166 65.0439C50.9892 65.1937 52.4384 65.4516 53.5039 65.207C53.567 65.1921 53.8475 64.602 54.501 64.8779L54.502 64.875ZM72.0264 64.2139C71.9929 64.3635 71.9691 64.5149 71.9512 64.667C71.9691 64.5153 71.993 64.3642 72.0264 64.2148V64.2139ZM16.6475 50.5664C16.8893 50.7644 16.9347 51.0527 16.9785 51.334C17.6479 55.5209 17.3832 60.0127 17.5234 64.2129C17.236 63.3692 17.0525 62.1751 17.0332 61.2998C16.9579 57.6738 17.033 54.1791 16.6475 50.5664ZM69.1191 62.9268H69.1182H69.1191ZM39.2646 57.0938C39.29 57.4394 39.3498 57.7574 39.4238 57.9795C39.5035 58.2165 40.7411 59.6112 40.8799 59.6699C41.1095 59.7648 41.4865 59.6867 41.5303 59.7217C41.5357 59.7262 41.5394 59.7374 41.542 59.7539C41.5395 59.7364 41.5359 59.7245 41.5303 59.7197C41.4865 59.6831 41.1077 59.7628 40.8799 59.668C40.7404 59.6084 39.5036 58.2146 39.4238 57.9775C39.3683 57.811 39.3211 57.5903 39.29 57.3447L39.2646 57.0938ZM93.832 49.0986C93.8948 49.1349 93.9459 49.1948 93.9512 49.3105C94.0318 51.0679 93.8565 54.0222 93.7549 55.7246C93.7286 56.17 93.6779 56.6526 93.6104 57.1611C93.6787 56.652 93.7297 56.1697 93.7559 55.7266L93.7578 55.7246C93.8577 54.0221 94.0347 51.0669 93.9541 49.3115C93.9487 49.194 93.8963 49.1345 93.832 49.0986ZM39.3525 55.876C39.326 55.9768 39.3055 56.0825 39.29 56.1914C39.3054 56.0825 39.3261 55.9768 39.3525 55.876ZM67.1826 11.1904C70.1758 9.85918 72.6174 10.0548 75.7139 10.7969L75.7051 10.7939H75.8809L76.0479 10.8418C76.9185 11.1325 78.3046 12.1465 79.3857 12.624V12.791L79.7754 12.9434C80.3452 13.178 81.3169 13.5992 81.4365 13.6729C81.4809 13.7017 82.1248 14.2836 82.1494 14.3252C82.272 14.5247 82.1935 15.204 82.541 15.5322H82.5439C82.1953 15.2027 82.2723 14.5239 82.1514 14.3242C82.1251 14.2827 81.4828 13.7006 81.4385 13.6719C81.279 13.572 79.6052 12.8584 79.3877 12.79V12.623C79.5025 12.6722 79.7938 12.6508 80.0312 12.752C81.694 13.4641 82.7437 14.1861 82.8857 16.0361C82.653 16.3403 82.2978 15.8114 82.1904 15.7852V15.6191H82.1895V15.7852C81.9124 15.7203 81.322 15.674 80.9629 15.6191C81.0006 15.5175 81.0552 15.4431 81.1211 15.3916L81.1191 15.3926C81.0533 15.444 80.9987 15.5185 80.9609 15.6201C80.6981 15.5803 80.367 15.6401 80.085 15.6201L80.083 15.6182C79.2654 15.7089 78.6674 16.0592 77.9854 16.4512C78.0309 16.3746 77.8977 16.0851 78.0186 15.9785C78.4102 15.8899 78.7191 15.6525 79.085 15.5225C78.7179 15.6518 78.4083 15.8893 78.0156 15.9795C77.8947 16.086 78.0279 16.3755 77.9824 16.4521C77.8685 16.6435 77.6669 16.7302 77.6318 16.7852H77.6309C76.1212 19.1507 76.6489 20.6751 76.7559 23.2734H76.7568C76.7726 23.6561 76.9105 24.1104 76.9316 24.6045C76.917 24.6103 76.9037 24.6185 76.8906 24.627C76.9034 24.6188 76.9165 24.6111 76.9307 24.6055C76.9429 24.881 76.9256 25.16 76.9307 25.4355L76.9316 25.4365C76.9404 25.9324 76.9492 26.4387 76.9316 26.9346C76.7963 26.9686 76.7312 27.1196 76.7314 27.2695C76.7315 27.1199 76.7961 26.9695 76.9307 26.9355C76.922 27.1563 76.9444 27.3805 76.9307 27.5996L76.9316 27.6006C76.7687 30.1678 76.0434 33.0442 74.6543 35.2539V35.2559C74.5807 36.2211 72.2346 39.2737 71.4688 40.1357C71.2691 40.3604 71.1878 40.591 70.7988 40.5811C72.02 38.7044 73.7104 36.6662 74.6533 34.7578V34.7559C76.3549 31.3097 76.8035 27.2847 76.5811 23.2744H76.5801C76.5089 21.993 76.1559 20.7597 76.1992 19.5254V19.5264C76.1559 20.7611 76.5089 21.995 76.5801 23.2754C76.8026 27.2858 76.354 31.3115 74.6523 34.7578C73.7095 36.6665 72.0183 38.705 70.7969 40.582C70.7707 40.6219 70.8209 40.7047 70.7969 40.748L70.334 41.1865C70.3358 41.185 70.338 41.1841 70.3398 41.1826L70.2725 41.2471C70.28 41.2383 70.2889 41.2307 70.2969 41.2227L70.2705 41.248C69.8909 41.6865 69.6349 41.8791 69.2207 42.2441L69.2217 42.2451C68.6416 42.756 68.047 43.1402 67.4688 43.5762C67.5706 43.1087 68.1493 42.605 68.5312 42.3389C68.5613 42.3176 68.6033 42.2884 68.6514 42.2568C68.6026 42.2886 68.5598 42.3177 68.5293 42.3389C68.1491 42.6051 67.5686 43.1096 67.4668 43.5771C67.406 43.6234 67.3587 43.6939 67.293 43.7422L67.2939 43.7432C66.9014 44.0327 66.5581 44.441 66.0674 44.7422L66.0947 44.2646H66.0928L66.0654 44.7422C66.0113 44.7753 65.9671 44.8729 65.8906 44.9082V44.9092C64.911 47.1324 63.7227 52.0978 66.1514 53.7305C66.6052 54.0349 66.861 53.8824 67.292 54.3945H67.291C68.0036 55.2413 67.7628 55.4675 66.6738 55.5557C65.8012 55.6272 64.1472 55.6833 63.5127 55.0645C63.2043 54.765 63.3331 54.667 63.2578 54.3926C63.1998 54.3612 62.9601 54.472 62.8936 54.2891C61.9822 52.7896 60.3682 47.1678 58.5771 46.7734C57.9397 46.6321 57.1463 46.7337 56.5996 47.0693C56.568 47.0517 56.5418 47.0343 56.5215 47.0156L56.5234 47.0186C56.5445 47.038 56.5713 47.0568 56.6045 47.0752C56.5821 47.0899 56.3028 47.3577 56.2549 47.4082C56.252 47.4099 56.248 47.4105 56.2451 47.4121C54.7892 48.9738 54.7236 52.4632 55.2012 54.3936H55.0264L54.6797 54.2734C54.6798 54.2749 54.6805 54.2768 54.6807 54.2783L55.0244 54.3965V54.3955H55.2002C55.2405 54.5586 55.7869 55.4797 55.7256 55.5596C52.0071 56.7674 51.7161 52.5266 50.5928 50.2002C50.0389 49.0537 48.4863 47.8453 50.293 47.0732C50.5329 46.6176 50.5261 46.4309 51.1689 46.2412C50.992 47.1314 50.7661 46.872 50.293 47.0732C50.2664 47.1238 50.2435 47.1745 50.2188 47.2227C50.2436 47.1744 50.2692 47.1249 50.2959 47.0742C50.769 46.8729 50.9949 47.1319 51.1719 46.2422C51.2244 46.2272 51.2933 46.2572 51.3477 46.2422C51.688 46.1455 54.5916 44.7985 54.9053 44.5771C55.1097 44.4307 54.9529 44.18 55.1455 44.0752C56.9014 43.1251 58.6436 42.887 60.1104 41.416C62.8528 40.2595 65.1464 38.7996 66.9443 36.5898C67.0004 36.5216 67.0781 36.4744 67.1201 36.4229C67.8105 36.4161 67.9318 35.7077 68.1719 35.4248C69.5054 33.8607 69.9013 33.3975 70.4639 31.3906C70.501 31.258 70.7926 31.2677 70.7969 31.165C70.8547 29.8705 70.6532 28.4823 70.6182 27.2061L70.6162 27.2041C70.6514 28.4799 70.8527 29.8654 70.7949 31.1611C70.7897 31.2643 70.499 31.2548 70.4619 31.3877C69.9011 33.3946 69.5035 33.8577 68.1699 35.4219H68.1689C67.9289 35.7048 67.8077 36.4142 67.1172 36.4209C67.366 36.1164 67.8459 35.625 67.9932 35.4219H67.9941C70.3926 32.1446 71.6893 28.9322 68.873 25.4404H68.8721C68.8248 25.3805 68.7463 25.335 68.6973 25.2734C68.6325 25.1918 68.6813 24.9572 68.4482 24.7676C68.3628 24.6984 68.2461 24.6296 68.1191 24.5723C68.2448 24.6295 68.3597 24.6987 68.4443 24.7676C68.6734 24.9524 68.6304 25.1817 68.6904 25.2686L67.7295 24.7734L67.6436 25.1045C67.6135 25.0875 67.5346 25.1104 67.458 25.1152C67.5357 25.1107 67.6165 25.0879 67.6475 25.1055C67.7162 25.1462 67.7599 25.2187 67.8193 25.2686C68.9618 26.1971 69.0782 28.798 68.8242 30.1328C68.4541 32.0739 67.3877 33.4698 66.082 34.9033L66.0723 34.9238C65.7463 35.2816 65.53 35.4497 65.1953 35.7559L64.8447 36.0889C64.7836 36.1404 64.7328 36.2034 64.6699 36.2549L64.6641 36.2539C64.0656 36.7476 64.2498 36.7093 63.4473 37.0801C63.4457 37.0821 63.445 37.0849 63.4434 37.0869C63.44 37.0885 63.436 37.0893 63.4326 37.0908C62.7475 37.9517 62.8913 37.6521 62.0449 38.0801C62.0436 38.0819 62.0423 38.0841 62.041 38.0859C62.0371 38.0879 62.0332 38.0898 62.0293 38.0918C61.3819 39.0268 61.1616 38.8311 60.292 39.2451C60.2909 39.247 60.2901 39.2491 60.2891 39.251C60.2862 39.2523 60.2831 39.2535 60.2803 39.2549C60.2574 39.3133 60.354 39.4292 60.1709 39.5938C59.7415 39.9782 58.5893 40.3267 58.0898 40.7461C57.9493 40.7603 57.9761 40.4991 58.0039 40.416C57.9573 40.4331 57.8787 40.3937 57.835 40.416C57.8331 40.4169 57.8309 40.4171 57.8291 40.418L57.5361 41.0918C51.2377 44.1372 45.3649 47.9032 39.3398 51.3945L42.9346 46.7383C42.8925 46.8514 42.9605 47.1843 42.8887 47.4355C42.7502 47.9215 42.2127 48.2464 42.5859 48.9004C42.5871 48.8997 42.5877 48.8981 42.5889 48.8975C42.2215 48.247 42.7556 47.923 42.8955 47.4385C42.9673 47.1857 42.8986 46.8546 42.9404 46.7412C45.513 43.9506 46.7383 39.9433 47.3867 36.041C47.5584 35.011 47.41 34.8291 47.4766 34.0039C47.5011 33.6977 47.8122 33.7836 47.8438 33.6455C47.8997 33.3994 47.7896 33.1101 47.8438 32.8789C47.8648 32.7841 48.8097 32.273 48.584 31.6191L49.0498 31.5791C48.8798 30.6289 50.2013 30.2726 50.5781 29.7783C50.8302 29.4457 50.7866 29.055 50.8652 28.9697C50.9388 28.8915 51.2566 28.9463 51.4336 28.7666C51.6227 28.5735 51.6229 28.1712 52.0449 27.8418C52.278 27.6604 52.6722 27.6262 52.7266 27.5713C52.8437 27.448 52.7165 27.172 52.7568 27.1055C54.0693 26.0239 55.366 25.0271 56.668 23.9971C57.0307 23.7092 57.9084 23.365 58.1768 23.1836C58.3571 23.0622 58.8247 22.3757 58.9355 22.3232C59.1423 22.2251 59.4685 22.3395 59.5684 22.2529C59.633 22.1962 59.546 21.9273 59.6299 21.8291C59.6842 21.7675 60.4255 21.5439 60.7305 21.2793C60.9861 21.058 61.0436 20.7334 61.168 20.6152C61.2258 20.5603 61.2877 20.5058 61.3438 20.4492C61.5382 20.3926 61.598 20.2626 61.6943 20.1162C62.3408 19.5073 62.4181 19.672 62.8965 18.6787C63.8971 16.6003 64.1177 15.0808 65.374 12.9609C65.7087 12.3968 65.6481 12.7462 66.0879 12.3936C66.4944 12.0675 66.5312 11.4801 67.1826 11.1904ZM72.4932 54.6885C72.3577 54.9709 72.2231 55.2509 72.0742 55.5176C72.0658 55.5331 72.0258 55.5915 71.9678 55.6689C72.0265 55.5908 72.0678 55.5317 72.0762 55.5166C72.2248 55.2504 72.3581 54.9705 72.4932 54.6885ZM53.9834 55.3965C54.408 55.6002 54.3734 55.6756 54.8408 55.3965C54.3752 55.6743 54.4069 55.5998 53.9834 55.3965ZM66.7656 55.2266L67.1074 55.3887H67.1133L66.7676 55.2246L66.7656 55.2266ZM66.7656 54.3965C66.8687 54.5205 67.0525 54.5477 67.1211 54.6885C67.0551 54.5437 66.8704 54.5171 66.7646 54.3945L66.7656 54.3965ZM50.4316 48.9873C50.4718 49.0183 50.5051 49.0549 50.5244 49.1035C50.8977 50.0537 51.2379 50.6117 51.6445 51.5303C52.051 52.4488 52.3383 53.8913 52.75 54.5986C52.7596 54.6149 52.7937 54.6435 52.8438 54.6816C52.7954 54.6445 52.7623 54.6168 52.7529 54.6006C52.3412 53.8934 52.0434 52.4242 51.6475 51.5322C51.2514 50.6402 50.9006 50.0557 50.5273 49.1055C50.5076 49.0558 50.473 49.0189 50.4316 48.9873ZM60.8135 48.9424C61.6039 50.327 62.8425 52.8666 63.2578 54.3926L63.2598 54.3936C62.8438 52.8657 61.6063 50.3301 60.8164 48.9463C60.721 48.7794 60.6383 48.6222 60.5596 48.4756C60.6374 48.6211 60.7192 48.7769 60.8135 48.9424ZM64.6562 46.96C64.4388 47.9733 64.2627 49.6959 64.3164 50.4824C64.3848 51.4859 64.6109 52.9082 65.4502 53.5654C65.7902 53.8316 66.4768 53.922 66.7256 54.1084C66.8154 54.1761 66.7484 54.3555 66.7646 54.3926L66.7656 54.3936C66.7458 54.3612 66.8181 54.1754 66.7266 54.1064C66.4794 53.9201 65.7902 53.8307 65.4502 53.5645C64.6109 52.9071 64.3848 51.4839 64.3164 50.4805C64.2628 49.694 64.4389 47.974 64.6562 46.96ZM54.4014 52.8916C54.4641 53.1771 54.5373 53.4636 54.5947 53.7363C54.5856 53.6925 54.5783 53.6479 54.5684 53.6035L54.4014 52.8916ZM90.5547 51.8174C90.5627 51.8308 90.5692 51.8452 90.5742 51.8604L90.5557 51.8174C90.5477 51.804 90.5372 51.7923 90.5254 51.7812L90.5547 51.8174ZM50.1709 47.3174C49.9458 47.7721 49.8303 48.1463 50.0635 48.7012C50.1033 48.7952 50.1896 48.845 50.2773 48.8926C50.1906 48.8452 50.1058 48.7954 50.0664 48.7031C49.8331 48.1478 49.9448 47.7732 50.1709 47.3174ZM52.7471 27.1016C52.7068 27.1681 52.8325 27.4452 52.7168 27.5684C52.6632 27.6231 52.2679 27.6568 52.0352 27.8379C51.6131 28.1673 51.6129 28.5696 51.4238 28.7627C51.2468 28.9441 50.9291 28.8876 50.8555 28.9658C50.7768 29.051 50.8205 29.4435 50.5684 29.7744C50.1916 30.2703 48.87 30.625 49.04 31.5752L48.5742 31.6152C48.8 32.2691 47.8568 32.7802 47.834 32.875C47.7798 33.1062 47.8916 33.3955 47.834 33.6416C47.8024 33.7781 47.4913 33.6938 47.4668 34C47.4002 34.8253 47.5469 35.0071 47.377 36.0371C46.7285 39.9377 45.5033 43.9466 42.9307 46.7373C43.6947 44.7071 45.1863 42.7615 45.9609 40.5449C46.7741 38.2119 46.8338 36.5294 47.1562 34.1914C47.4682 31.9265 50.9278 28.6 52.7451 27.1006L52.7471 27.1016ZM58.6797 46.2939C58.7057 46.339 58.7202 46.4192 58.7539 46.4844C58.7203 46.4178 58.7065 46.3372 58.6797 46.2939ZM65.3564 44.9795C65.252 45.2026 64.9411 46.0316 64.8086 46.4082C64.9406 46.0329 65.2513 45.2046 65.3564 44.9795ZM60.1064 41.4131C58.6396 42.8842 56.8976 43.123 55.1416 44.0732C54.9491 44.1782 55.1063 44.4305 54.9014 44.5752C54.5893 44.7966 51.6837 46.1427 51.3438 46.2393C51.4649 45.7235 52.4959 45.3138 52.9795 45.0459C55.2769 43.7696 57.711 42.4248 60.1064 41.4131ZM67.1777 43.7275C66.6841 43.6967 66.6792 44.2521 66.2031 44.2686C66.681 44.2541 66.6858 43.6988 67.1777 43.7275ZM93.3662 44.2461C93.3007 44.2539 93.2488 44.2563 93.208 44.2549C93.2487 44.2564 93.3006 44.2539 93.3662 44.2461ZM16.7754 42.9033C16.7683 42.9092 16.7623 42.9172 16.7549 42.9248C16.7622 42.9171 16.7684 42.9093 16.7754 42.9033ZM66.9434 36.5869C65.1453 38.7969 62.8511 40.2565 60.1084 41.4131C60.9039 40.6161 62.1728 40.1885 63.0684 39.4814L66.9434 36.5869ZM70.7988 40.748C70.6379 41.02 70.4679 41.0791 70.3398 41.1826L70.7988 40.748ZM58.0918 40.2539L58.1777 40.4131C58.1346 40.4352 58.0565 40.3948 58.0107 40.4121V40.4131C58.0573 40.3962 58.136 40.4372 58.1797 40.415C58.1811 40.4144 58.1822 40.4128 58.1836 40.4121L58.0977 40.2529C58.0957 40.2535 58.0936 40.2534 58.0918 40.2539ZM44.8623 34.9229C44.8395 36.2207 44.5554 37.2794 44.1611 38.584C43.8283 38.4227 44.0471 38.0233 44.1016 37.7803C44.3153 36.8201 44.3822 35.7848 44.8623 34.9229ZM48.543 13.7891C48.0243 14.8806 47.3948 15.8955 46.9619 17.0303C44.9623 22.2756 45.677 28.395 45.125 33.9199C45.0988 34.1828 45.2338 34.4011 44.8623 34.5908C44.8868 33.8852 44.9976 33.0857 45.0361 32.3418C45.3375 26.6455 44.4511 18.2788 48.543 13.7891ZM87.8135 31.876C87.8908 32.1328 88.1199 32.3286 88.2197 32.5781C88.2945 32.7659 88.3636 32.9522 88.4287 33.1367C88.3634 32.9509 88.2939 32.7633 88.2188 32.5742C88.1354 32.3662 87.9623 32.1958 87.8623 31.9961L87.8135 31.876ZM87.7969 31.5947L87.7979 31.5957C87.8713 31.594 87.9705 31.5811 88.0635 31.5781C87.9703 31.581 87.8707 31.593 87.7969 31.5947ZM61.1592 20.6113C61.0365 20.7295 60.9766 21.0541 60.7207 21.2754C60.4157 21.5399 59.6746 21.761 59.6201 21.8242C59.5361 21.9207 59.6241 22.1921 59.5596 22.249C59.4597 22.3356 59.1336 22.2212 58.9268 22.3193C58.8163 22.3727 58.3485 23.0582 58.168 23.1797C57.8998 23.3611 57.022 23.7053 56.6592 23.9932C55.3553 25.0233 54.0597 26.0199 52.7471 27.1016C53.1747 26.3877 54.5875 25.3429 55.292 24.7754C57.1479 23.2827 59.1683 21.936 61.1592 20.6113ZM68.6953 25.2715L68.6934 25.2734C68.6923 25.272 68.6915 25.2701 68.6904 25.2686L68.6953 25.2715ZM61.6865 20.1123C61.5899 20.2592 61.5301 20.3895 61.335 20.4463C61.4562 20.3228 61.5635 20.2275 61.6865 20.1123ZM65.0146 12.957C67.2368 9.98821 71.3365 9.10723 74.9238 10.2871C75.2339 10.3902 75.5631 10.4671 75.7051 10.793C72.6085 10.0508 70.1688 9.85427 67.1738 11.1855C66.5219 11.4751 66.4847 12.0642 66.0781 12.3887C65.6366 12.7414 65.6999 12.3929 65.3652 12.957L65.1406 13.3477C64.0774 15.2691 63.8248 16.7263 62.8867 18.6748C62.4083 19.6683 62.3312 19.5042 61.6846 20.1133C63.2126 17.8079 63.2978 15.4004 64.8584 13.1719L65.0146 12.957ZM76.2773 18.7852C76.2864 18.736 76.2968 18.6869 76.3076 18.6377C76.2968 18.6869 76.2864 18.736 76.2773 18.7852ZM76.6465 17.668C76.5553 17.8547 76.4804 18.0408 76.4199 18.2266C76.4804 18.0408 76.5553 17.8547 76.6465 17.668ZM77.4795 16.8496C77.2642 16.9409 77.0442 17.0416 76.9014 17.2236C77.045 17.0415 77.2651 16.9409 77.4795 16.8496ZM77.126 11.9482C77.4519 12.1446 77.7808 12.3167 78.0332 12.4609C77.8572 12.3603 77.6512 12.2497 77.4375 12.1289L77.126 11.9482ZM55.4707 7.69238C55.4596 7.68461 55.4491 7.67605 55.4375 7.66895L55.4355 7.66797C55.4478 7.67545 55.4591 7.68415 55.4707 7.69238Z" fill="url(#paint0_linear_6965_533)"/>
<defs>
<linearGradient id="paint0_linear_6965_533" x1="37.2369" y1="0.686612" x2="74.3995" y2="93.3688" gradientUnits="userSpaceOnUse">
<stop stop-color="#00FFFF"/>
<stop offset="1" stop-color="#009999"/>
</linearGradient>
</defs>
</svg>
