<svg width="100" height="101" viewBox="0 0 100 101" fill="none" xmlns="http://www.w3.org/2000/svg">
<circle cx="50" cy="51" r="25" fill="#00D0E7" stroke="#008695" stroke-width="50"/>
<path d="M35.1768 81.6597C36.6518 86.929 41.1496 89.647 46.1622 90.9788C59.689 94.5706 74.86 87.5758 83.4348 77.152C92.918 65.6247 94.6979 52.362 91.5035 37.986C91.0764 36.0666 90.4334 34.2003 89.9816 32.2896L91.1554 34.3842C104.016 60.1036 86.8279 90.6653 59.2681 95.5704C43.1443 98.4402 27.8845 92.6167 16.9682 80.7994C3.60672 66.3345 1.93793 45.0524 11.8717 28.1793C23.4829 8.45745 49.7146 0.460327 70.1067 11.4926C65.9483 13.1207 62.4848 15.7967 60.8493 20.0711H63.7499L74.5502 30.6245V33.8954H65.3546C65.0694 33.8954 64.0425 32.9895 64.0881 32.5698L64.0523 21.867C63.8857 21.3079 63.413 20.7426 62.8328 20.6167L29.4323 20.5599C27.7141 20.6611 26.6736 21.9251 26.5316 23.584V76.9162C26.5946 78.6714 27.782 80.0243 29.5545 80.1872H71.4076C73.1098 80.0391 74.4366 78.7085 74.6613 77.0212L74.6675 55.5503C74.7242 55.1257 75.6549 54.1012 76.0314 53.7667V77.5272C76.0314 78.0592 75.1439 79.7527 74.7403 80.1859C74.2367 80.7278 72.6197 81.6622 71.8964 81.6622H35.1756L35.1768 81.6597Z" fill="url(#paint0_linear_7791_6196)"/>
<path d="M85.8553 35.1975C78.6247 44.029 71.873 53.2605 64.8498 62.2685C62.4058 65.4024 59.6484 69.351 57.0205 72.2134C55.7146 73.6366 53.936 74.1685 52.0598 73.602C50.3157 73.0749 46.6165 68.0439 45.3007 66.4133C42.5556 63.0103 38.5132 58.4063 36.3087 54.7923C33.0921 49.5168 39.5439 44.9782 43.2986 49.1539C45.2958 51.3745 47.2262 54.3825 49.1283 56.7832C50.6342 58.6841 52.1561 60.5763 53.752 62.4018C61.3851 52.6273 68.6934 42.5874 76.4079 32.8783C77.7175 31.2304 81.5599 26.0167 83.1608 25.2835C85.427 24.2467 88.2697 25.2304 89.1732 27.5991C90.4124 30.8478 87.6982 32.9424 85.8529 35.1975H85.8553Z" fill="url(#paint1_linear_7791_6196)"/>
<defs>
<linearGradient id="paint0_linear_7791_6196" x1="47" y1="34" x2="93.5" y2="96.5" gradientUnits="userSpaceOnUse">
<stop stop-color="#00FFFF"/>
<stop offset="1" stop-color="#009999"/>
</linearGradient>
<linearGradient id="paint1_linear_7791_6196" x1="60.3601" y1="39.8645" x2="84.9115" y2="76.216" gradientUnits="userSpaceOnUse">
<stop stop-color="#00FFFF"/>
<stop offset="1" stop-color="#009999"/>
</linearGradient>
</defs>
</svg>
