<svg width="100" height="100" viewBox="0 0 100 100" fill="none" xmlns="http://www.w3.org/2000/svg">
<circle cx="50" cy="50" r="25" fill="#00D0E7" stroke="#008695" stroke-width="50"/>
<path d="M30.1113 73.8533C36.5216 73.5123 41.7356 78.1026 48.1025 78.613C58.9929 79.485 64.3374 70.8401 75.6846 75.2087C78.3895 76.2503 81.1587 78.1926 84.1592 78.2009V78.2038C84.2436 78.5155 84.0841 78.5448 83.9561 78.7224C83.6908 79.091 81.8956 81.0633 81.5898 81.0798C80.2956 81.1537 74.9606 78.2943 72.8818 77.8025C64.3287 75.7815 59.8691 81.4395 52.0352 81.9314C50.0058 82.0574 47.4947 81.996 45.5088 81.6199C39.6917 80.5163 35.5237 76.8332 29.0908 77.3786C25.3484 77.6948 22.1616 80.1627 18.5762 81.0554L15.9658 78.2058C21.0081 77.7594 25.0463 74.1219 30.1113 73.8533ZM52.0254 66.6247C58.8387 66.1226 63.3106 61.3393 70.624 61.8786C75.9596 62.2713 80.1216 66.0652 85.5088 66.4187C87.6146 66.5571 89.5475 66.1104 91.6016 65.8025V65.8064L90.1211 69.491C88.34 69.679 86.7242 70.0533 84.9121 69.9128C79.8161 69.5181 75.7283 65.7858 70.624 65.3952C62.821 64.7981 57.132 70.4621 48.7256 69.9353C41.7678 69.4993 36.7976 64.8707 29.7139 65.3933C23.1568 65.8769 17.9093 71.4444 10.7881 69.6404C9.48628 69.3096 9.1699 66.8955 8.5293 65.8044C12.6706 66.91 16.6202 66.464 20.5693 64.9265C22.2823 64.259 23.9083 63.192 25.7246 62.6423C36.177 59.4826 41.821 67.3769 52.0254 66.6247ZM47.7461 5.93626C56.8614 5.4527 66.4811 8.00058 74.1416 12.8982C88.5906 22.1334 96.6459 39.5973 93.8789 56.615C91.1822 57.7639 88.0413 58.2208 85.1152 57.9275C81.5774 57.5741 78.4234 55.309 75.0674 54.3357C64.1832 51.1823 58.8122 58.686 48.2979 57.9607C42.1398 57.537 37.3848 53.4641 31.1338 53.4392C22.2457 53.4041 17.7877 60.1885 8.1123 57.2292C7.73587 57.1134 6.28187 56.7099 6.14551 56.5095C1.96095 30.3642 21.5842 7.32697 47.7461 5.93822V5.93626ZM58.7236 21.0837C53.4872 17.2215 46.3494 17.1756 40.7637 20.3454L40.9043 20.7527L43.5596 22.6062L45.5146 25.2995C44.4607 25.5021 43.3731 26.1299 42.4102 26.6404C40.3352 27.7378 34.9128 31.2423 32.9951 31.4841C32.5633 31.5378 32.0819 31.5792 31.6729 31.3933C27.8416 27.81 23.3675 24.2455 17.8252 24.2702C18.9329 28.5458 21.268 32.5696 24.6426 35.4255C20.8775 37.583 18.7303 42.4785 17.8252 46.5867C19.1085 46.3449 20.3547 46.2991 21.6318 45.9519C24.3761 45.2038 27.6519 42.7574 29.8135 40.9079C31.975 39.0585 31.3469 38.2587 34.6367 39.5915L43.4453 44.3122L37.874 47.3093C42.4348 50.1632 49.0087 50.1219 53.0859 46.4187C63.8051 49.4473 76.8701 45.6356 83.9404 36.946C79.8725 38.293 74.8984 38.068 71.7588 35.5759L76.9004 36.489C79.6227 36.5363 82.5446 36.1564 85.1533 35.321C80.0924 28.2727 71.3641 23.4376 62.7451 22.4353C61.9414 22.3423 60.8027 22.5652 60.127 22.3669C59.7571 22.2574 59.1411 21.3917 58.7236 21.0837ZM74.7402 30.3669C77.6081 30.0016 77.2093 35.058 74.0127 33.6882C72.5992 33.0827 73.0147 30.586 74.7402 30.3669Z" fill="url(#paint0_linear_6965_654)"/>
<defs>
<linearGradient id="paint0_linear_6965_654" x1="37.1906" y1="0.324512" x2="66.8817" y2="84.6682" gradientUnits="userSpaceOnUse">
<stop stop-color="#00FFFF"/>
<stop offset="1" stop-color="#009999"/>
</linearGradient>
</defs>
</svg>
