<svg width="100" height="101" viewBox="0 0 100 101" fill="none" xmlns="http://www.w3.org/2000/svg">
<circle cx="50" cy="51" r="25" fill="#00D0E7" stroke="#008695" stroke-width="50"/>
<path d="M47.6264 6.05591C77.4647 4.6165 100.493 31.1901 93.8503 60.5894C86.3518 93.7778 45.0017 106.909 19.7197 83.7516C-9.72119 56.7864 7.77929 7.9782 47.6264 6.05591ZM48.2029 13.4412C13.2943 15.1937 -0.59493 59.0287 27.1189 80.16C49.9703 97.5842 83.4291 84.045 87.2194 55.5734C90.3269 32.231 71.6262 12.2652 48.204 13.4412H48.2029Z" fill="url(#paint0_linear_7082_423)"/>
<path d="M56.9668 70.6838C57.653 71.6645 58.3947 73.9958 59.826 73.9992C61.1499 74.0027 61.9331 71.2983 62.7741 70.4827C65.021 69.8462 67.1478 68.7395 69.4409 68.2636C72.791 67.5681 76.1631 68.0695 79.1552 69.6764C74.7896 76.4518 67.6168 81.6953 59.8572 83.9538C45.2967 88.1912 29.9265 82.5652 21.2438 70.3418C21.074 70.1038 19.6993 68.1157 19.8379 67.9979C21.9947 67.7229 23.8697 67.8257 25.9537 68.401C28.9653 69.2328 31.627 70.5913 34.9043 70.4261C38.5179 70.2436 41.5896 68.1007 45.165 67.8766C49.3712 67.6132 53.0483 69.5343 56.968 70.6838H56.9668Z" fill="url(#paint1_linear_7082_423)"/>
<path d="M35.9934 61.4174C40.0113 60.4366 43.3002 58.5628 47.5907 58.8794C50.2269 59.0746 52.6171 60.4158 55.1251 61.0963L55.3816 67.763C53.6268 67.2906 52.0718 66.304 50.2835 65.88C45.5425 64.7537 43.1454 65.8026 38.8515 67.2178C32.9494 69.1643 31.3598 67.3495 26.0666 65.9748C23.6002 65.3348 21.2251 65.4815 18.7587 66.0175C18.2434 65.8477 16.5106 60.5799 16.365 59.7377C16.3627 59.6395 16.3616 59.5252 16.4216 59.4443C16.4967 59.3426 18.2296 59.0446 18.5242 59.0076C20.51 58.7604 22.698 58.7916 24.663 59.1832C27.4124 59.7319 29.9366 61.1783 32.7611 61.4151C33.259 55.7822 33.4219 49.1062 29.4168 44.6193C29.2204 44.3987 27.6608 42.8761 27.4517 43.0655C29.1534 45.1865 30.6436 47.4866 31.1438 50.2198C28.6451 49.9322 26.5137 49.1108 24.6214 47.4531C22.0984 45.2454 20.8947 42.2661 19.8977 39.1366C19.7244 38.5925 18.8511 35.8685 19.0775 35.5554L19.2173 35.4642C23.4038 35.009 28.3193 35.9494 30.8931 39.5664C32.3672 41.6377 32.7981 44.1514 33.6703 46.4838C33.7257 46.6305 33.6957 46.8373 33.914 46.8743C34.1335 44.3906 34.5679 41.7832 35.8178 39.601C37.4895 36.6806 40.6005 34.4972 43.8409 33.7163C44.2417 37.4442 44.4601 41.7151 41.8828 44.7418C39.8992 47.0718 35.9934 48.6291 35.9934 52.2403V61.4151V61.4174Z" fill="url(#paint2_linear_7082_423)"/>
<path d="M62.0774 44.9149L61.9469 66.3085C61.8232 67.0998 61.561 67.8923 61.0388 68.5161L58.3795 68.5207C57.5951 67.3124 57.7499 66.0705 57.572 64.712L57.5755 44.9149C47.6048 43.3819 43.8896 30.4307 51.3431 23.6195C60.5236 15.2291 74.8553 23.9349 71.9684 35.9354C70.9102 40.3368 66.5885 44.3373 62.0785 44.9149H62.0774ZM53.4606 26.2581C49.5432 30.1419 50.033 36.8399 54.5384 40.0456C61.7586 45.1829 71.4116 38.054 68.311 29.6198C66.1022 23.6103 58.041 21.7169 53.4606 26.2581Z" fill="url(#paint3_linear_7082_423)"/>
<path d="M83.4257 60.7266C82.6483 63.0729 81.7772 65.4423 80.4637 67.524C80.2766 67.584 78.002 66.6899 77.5399 66.5547C76.2599 66.1816 74.8701 65.8581 73.5439 65.7033C70.2261 65.3175 67.062 66.0742 64.1543 67.6499C64.6048 65.4642 64.2802 63.1907 64.398 60.9692C67.7563 59.7424 70.545 58.5698 74.2371 58.8933C77.2545 59.1578 80.287 60.99 83.4269 60.7255L83.4257 60.7266Z" fill="url(#paint4_linear_7082_423)"/>
<path d="M63.7777 28.4394C64.9548 28.1333 66.132 29.3359 65.6422 30.535C65.4031 31.1207 63.6679 32.8512 63.118 33.4346C62.4318 34.1624 59.9389 36.8402 59.255 37.1868C58.6554 37.4917 58.3204 37.3681 57.7694 37.047C57.1086 36.6623 54.8663 34.6141 54.4793 33.9891C53.8566 32.9841 54.4446 31.7018 55.6322 31.6036C56.7724 31.51 57.5695 32.9794 58.4636 33.4739L58.6127 33.4392C60.1768 32.0784 61.5943 30.1688 63.1712 28.8703C63.3306 28.7398 63.5928 28.4879 63.7788 28.4394H63.7777Z" fill="url(#paint5_linear_7082_423)"/>
<defs>
<linearGradient id="paint0_linear_7082_423" x1="43" y1="11" x2="60.5" y2="97.5" gradientUnits="userSpaceOnUse">
<stop stop-color="#00FFFF"/>
<stop offset="1" stop-color="#009999"/>
</linearGradient>
<linearGradient id="paint1_linear_7082_423" x1="44.8773" y1="68.8306" x2="45.9319" y2="86.3883" gradientUnits="userSpaceOnUse">
<stop stop-color="#00FFFF"/>
<stop offset="1" stop-color="#009999"/>
</linearGradient>
<linearGradient id="paint2_linear_7082_423" x1="32.8382" y1="35.637" x2="38.8455" y2="69.1478" gradientUnits="userSpaceOnUse">
<stop stop-color="#00FFFF"/>
<stop offset="1" stop-color="#009999"/>
</linearGradient>
<linearGradient id="paint3_linear_7082_423" x1="57.9363" y1="22.9857" x2="74.4912" y2="65.0288" gradientUnits="userSpaceOnUse">
<stop stop-color="#00FFFF"/>
<stop offset="1" stop-color="#009999"/>
</linearGradient>
<linearGradient id="paint4_linear_7082_423" x1="72.2916" y1="59.3315" x2="73.1103" y2="68.1266" gradientUnits="userSpaceOnUse">
<stop stop-color="#00FFFF"/>
<stop offset="1" stop-color="#009999"/>
</linearGradient>
<linearGradient id="paint5_linear_7082_423" x1="59.0952" y1="28.8927" x2="60.4911" y2="37.7036" gradientUnits="userSpaceOnUse">
<stop stop-color="#00FFFF"/>
<stop offset="1" stop-color="#009999"/>
</linearGradient>
</defs>
</svg>
