<svg width="100" height="101" viewBox="0 0 100 101" fill="none" xmlns="http://www.w3.org/2000/svg">
<circle cx="50" cy="51" r="25" fill="#00D0E7" stroke="#008695" stroke-width="50"/>
<path d="M67.2677 87.1853L67.1203 86.7901L72.5025 70.8093L72.7602 70.5736L75.9556 74.13C81.3577 69.2823 85.1912 62.5826 86.6111 55.5878C90.0815 38.4905 79.6008 21.0398 62.474 15.5125C38.7434 7.85476 13.9101 23.3833 12.769 47.5539C11.9265 65.3903 26.3063 81.5175 44.5853 83.8848C44.1145 85.2072 43.3265 86.4164 43.0341 87.8042C42.0987 92.2436 46.5417 96.1618 51.0827 95.7726C54.4404 95.4857 57.7745 92.2412 57.7101 88.9432C57.6816 87.4388 56.5033 85.6309 55.9742 84.2407C58.3147 84.4216 60.1299 86.9401 60.3033 89.0575C60.6217 92.9411 56.8316 96.7759 53.0998 97.7102C48.0186 98.9826 42.9511 95.9225 41.24 91.3188C23.9498 87.5721 9.85858 74.7036 6.05112 57.9408C0.45331 33.2965 17.8167 9.49605 43.7986 6.37534C74.8938 2.63929 99.8932 27.3157 94.1826 57.1529C92.5434 65.7188 87.746 73.3016 81.6154 79.562C81.5832 79.7227 81.7517 79.8953 81.8446 80.0203C82.7937 81.2962 84.5246 82.6232 85.3659 83.8896C85.8701 84.6501 85.4662 84.8882 84.7179 85.0405C81.5534 85.6868 77.72 86.0451 74.4614 86.4831C72.5385 86.7413 70.0171 87.2507 68.1623 87.334C67.8526 87.3483 67.5403 87.3519 67.269 87.1853H67.2677Z" fill="url(#paint0_linear_7065_424)"/>
<path d="M44.1346 50.9759V64.7428C44.1346 66.6516 47.5115 69.3246 48.9918 70.5161C49.533 70.9518 50.0143 71.4873 50.7326 70.9903C51.9248 69.6447 56.0949 67.0464 56.0949 65.2242V50.9771C56.1859 50.9446 56.2433 51.0974 56.282 51.0974H58.8982C60.487 51.0974 63.3352 49.6364 64.9102 49.0839C68.3458 47.8792 71.3537 47.6758 74.9339 48.4882C78.3321 49.2597 81.3986 51.3538 85 51.2178C84.4413 58.3486 81.2751 65.3843 76.2159 70.5751C75.6983 69.8927 75.1808 69.1645 74.5985 68.5303C73.8677 67.7336 72.4236 65.9716 71.2926 67.1463C71.0145 67.4351 70.8698 68.0332 70.7351 68.4123C69.7051 71.314 69.1252 74.5214 68.1475 77.4567C68.0353 77.6987 67.8133 77.8599 67.6001 78.0104C66.8132 78.5652 65.0885 79.3366 64.1545 79.7338C61.2626 80.9638 57.968 81.8267 54.8092 81.9771L50.6029 74.8572C50.5169 74.6863 50.3685 74.6357 50.1827 74.655C49.7425 74.6995 46.2371 81.1912 45.6871 82C42.2204 81.4825 38.8159 80.6051 35.6223 79.2151C24.2842 74.2795 15.9128 63.437 15 51.3502C18.1226 50.5498 20.8174 48.7325 24.0547 48.2475C29.4008 47.4448 31.5632 48.9443 36.2258 50.4993C38.8808 51.3851 41.3774 51.6619 44.1395 50.9783L44.1346 50.9759Z" fill="url(#paint1_linear_7065_424)"/>
<path d="M54.0527 35.3445V64.9737C54.0527 65.0293 53.6159 65.7444 53.5235 65.864C52.6936 66.9307 51.3096 67.7524 50.4477 68.8286L50.2298 68.9197C50.0818 68.8842 49.9741 68.7847 49.8545 68.6983C49.33 68.3206 47.5565 66.6726 47.1161 66.1742C46.9302 65.9634 46.3643 65.0802 46.3643 64.8553V35.3445H54.0527Z" fill="url(#paint2_linear_7065_424)"/>
<path d="M60.77 27.5732C61.993 27.5519 63.2278 27.4808 63.6256 28.9051C63.834 29.651 63.8352 31.6104 63.6978 32.393C63.5711 33.1199 63.1662 33.5378 62.4819 33.7794L38.1438 33.8066C37.4227 33.7758 36.8071 33.0939 36.6934 32.4178C36.5857 31.7761 36.5881 29.6972 36.7171 29.0685C36.8462 28.4398 37.2961 27.8621 37.9342 27.6833C45.5445 27.6217 53.1703 27.7081 60.77 27.5732Z" fill="url(#paint3_linear_7065_424)"/>
<path d="M54.2888 26.1195H46.1279V19.5546C46.1279 19.1793 46.978 18.4168 47.3983 18.341C48.098 18.2144 52.4951 18.2084 53.1108 18.3683C53.5477 18.4819 54.29 19.2349 54.29 19.673V26.1195H54.2888Z" fill="url(#paint4_linear_7065_424)"/>
<defs>
<linearGradient id="paint0_linear_7065_424" x1="9.18605" y1="5.87115" x2="57.0422" y2="112.91" gradientUnits="userSpaceOnUse">
<stop stop-color="#00FFFF"/>
<stop offset="1" stop-color="#009999"/>
</linearGradient>
<linearGradient id="paint1_linear_7065_424" x1="50" y1="48" x2="50" y2="82" gradientUnits="userSpaceOnUse">
<stop stop-color="#00FFFF"/>
<stop offset="1" stop-color="#009999"/>
</linearGradient>
<linearGradient id="paint2_linear_7065_424" x1="50.2085" y1="35.3445" x2="50.2085" y2="68.9197" gradientUnits="userSpaceOnUse">
<stop stop-color="#00FFFF"/>
<stop offset="1" stop-color="#009999"/>
</linearGradient>
<linearGradient id="paint3_linear_7065_424" x1="50.2045" y1="27.5654" x2="50.2045" y2="33.8066" gradientUnits="userSpaceOnUse">
<stop stop-color="#00FFFF"/>
<stop offset="1" stop-color="#009999"/>
</linearGradient>
<linearGradient id="paint4_linear_7065_424" x1="50.209" y1="18.2471" x2="50.209" y2="26.1195" gradientUnits="userSpaceOnUse">
<stop stop-color="#00FFFF"/>
<stop offset="1" stop-color="#009999"/>
</linearGradient>
</defs>
</svg>
