<svg width="100" height="100" viewBox="0 0 100 100" fill="none" xmlns="http://www.w3.org/2000/svg">
<circle cx="50" cy="50" r="25" fill="#00D0E7" stroke="#008695" stroke-width="50"/>
<path d="M85.5797 86.914L66.7375 89.2702C65.8717 89.1874 65.8569 88.6617 66.0362 87.9419C66.5334 85.9443 67.9954 82.9846 68.7622 80.9079C70.0201 77.5028 71.2038 74.0693 72.495 70.6766C72.5754 70.5777 72.6472 70.5023 72.7869 70.5159C73.4783 70.5814 76.1438 74.5035 76.9452 75.0699C77.2928 74.4268 77.9421 73.8628 78.427 73.2753C94.4838 53.8208 86.9897 24.4097 63.2953 15.633C42.2503 7.83717 18.415 19.8383 13.8436 42.0547C8.26412 69.1689 32.3147 91.4904 59.0319 85.5127C59.7147 85.3593 61.5749 84.4713 61.8458 85.4125C61.9509 86.6382 62.1785 87.8516 62.4023 89.0575C62.5198 89.6945 63.2372 92.2313 63.0492 92.6147C62.7623 93.1997 58.7487 93.9295 57.9447 94.0618C25.888 99.3308 -1.10255 70.83 6.206 39.1097C12.6104 11.3115 43.5478 -2.54496 69.2471 9.18657C95.9025 21.3547 103.254 55.6167 84.73 78.2165C84.3527 78.6766 81.9916 81.154 81.9458 81.3593C81.91 81.5214 82.0015 81.6092 82.0806 81.7316L85.4573 85.7749L85.5809 86.914H85.5797Z" fill="url(#paint0_linear_7065_414)"/>
<path d="M69.904 35.7765L66.4309 75.9828C66.1501 77.8801 64.562 79.1071 62.682 79.1529L36.9765 79.1467C35.0668 78.9265 33.7298 77.5388 33.5789 75.6254L30.1182 35.7777H69.9064L69.904 35.7765ZM57.4081 51.4523L60.019 45.1098C59.8719 44.9168 59.8644 44.9193 59.6443 44.9737C59.2411 45.0727 57.9226 46.1945 57.7432 46.1537C56.5447 44.8055 55.9337 41.7492 53.8929 41.471C52.4013 41.2681 47.893 41.2879 46.3654 41.4598C45.4217 41.5662 44.8639 42.1624 44.2739 42.8278L40.7464 48.8253L40.76 49.106L46.102 51.9557L50.0723 45.6614L52.2343 49.4326C52.2219 49.9471 50.614 50.4987 50.5064 51.0961L57.4093 51.4511L57.4081 51.4523ZM54.4582 67.6551C55.4637 67.785 56.9578 67.9062 57.9683 67.7677C58.4074 67.707 59.0543 67.3793 59.4031 67.1022C60.2516 66.4281 63.006 61.4412 63.6232 60.2006C64.0438 59.3558 64.3171 58.8623 64.1872 57.8629C64.0487 56.798 62.1712 53.7034 61.5231 52.6199C61.3858 52.3899 60.8391 51.4029 60.6795 51.3546L55.4687 54.3305C55.3141 54.5915 55.7395 55.2693 55.8768 55.5476C56.8317 57.4746 58.1613 59.2495 59.0308 61.2284H54.4594V58.819L54.1527 58.6347L50.426 64.3799L53.9065 69.9989C54.123 70.2921 54.4606 70.0781 54.4606 69.8159V67.6539L54.4582 67.6551ZM41.2375 61.2297L43.8324 57.3286C44.1886 57.1406 45.1496 58.2142 45.5182 58.2501C45.6555 58.2637 45.7656 58.1808 45.8002 58.0646C45.9449 57.5772 43.2968 52.9613 42.969 52.1475C42.5411 51.9508 42.1057 52.2019 41.6753 52.2155C40.1738 52.2625 38.3036 52.171 36.8491 52.3317C36.6092 52.3577 36.4088 52.406 36.2294 52.5779C36.0674 52.7535 36.2468 52.8389 36.3581 52.9514C36.6673 53.2656 38.0328 53.8654 38.0278 54.2476C37.4947 55.3707 36.6327 56.4455 36.1899 57.6044C35.7458 58.7671 35.9623 59.0701 36.4781 60.1214C37.5529 62.3144 39.0841 64.4628 40.196 66.6594C40.4075 67.0268 41.5714 67.78 41.9177 67.78H48.7761C48.833 67.5537 48.8874 67.3446 48.9059 67.1059C49.0024 65.879 49.0618 62.9415 48.9059 61.7801C48.8837 61.6168 48.7476 61.2297 48.5905 61.2297H41.2387H41.2375Z" fill="url(#paint1_linear_7065_414)"/>
<path d="M58.7831 27.3732H70.3366C71.0688 27.3732 72.0966 28.2328 72.3971 28.8958C72.7039 29.5724 72.7311 31.9521 72.5938 32.7189C72.4874 33.3101 71.9853 33.555 71.4386 33.6639L28.6905 33.6799C28.1711 33.717 27.6305 33.2705 27.4809 32.7894C27.2409 32.0164 27.3424 29.6861 27.6652 28.9354C27.967 28.2341 28.9057 27.372 29.685 27.372H41.2384V22.9849C41.2384 21.9744 42.7894 20.4864 43.8011 20.3578C47.6861 20.5668 52.0559 19.9793 55.8864 20.3232C57.1431 20.4357 58.7856 21.8037 58.7856 23.1086V27.372L58.7831 27.3732ZM55.571 27.3732V24.2217C55.571 23.9917 55.0392 23.6046 54.7695 23.6639C51.7838 23.8754 48.4356 23.3906 45.4944 23.6602C45.0961 23.6973 44.5729 23.8445 44.5729 24.3454V27.3732H55.5698H55.571Z" fill="url(#paint2_linear_7065_414)"/>
<defs>
<linearGradient id="paint0_linear_7065_414" x1="31" y1="40.5" x2="97.5" y2="108.5" gradientUnits="userSpaceOnUse">
<stop stop-color="#00FFFF"/>
<stop offset="1" stop-color="#009999"/>
</linearGradient>
<linearGradient id="paint1_linear_7065_414" x1="41.6126" y1="52.9445" x2="73.7073" y2="82.9459" gradientUnits="userSpaceOnUse">
<stop stop-color="#00FFFF"/>
<stop offset="1" stop-color="#009999"/>
</linearGradient>
<linearGradient id="paint2_linear_7065_414" x1="40.4423" y1="25.5437" x2="45.8116" y2="43.9558" gradientUnits="userSpaceOnUse">
<stop stop-color="#00FFFF"/>
<stop offset="1" stop-color="#009999"/>
</linearGradient>
</defs>
</svg>
