<svg width="100" height="100" viewBox="0 0 100 100" fill="none" xmlns="http://www.w3.org/2000/svg">
<circle cx="50" cy="50" r="25" fill="#00D0E7" stroke="#008695" stroke-width="50"/>
<path d="M68.739 18.5277C69.6594 11.231 81.0813 11.5314 81.6552 18.7782C81.971 22.759 81.6182 27.4926 81.645 31.5718C81.7179 42.4223 81.5658 53.4006 81.7716 64.2984C83.8284 66.1776 85.0352 68.848 85.1029 71.6412C85.3369 71.6936 85.3535 71.5696 85.4634 71.4277C86.2138 70.4651 87.1419 68.5476 87.7069 67.4073C93.6537 55.414 93.7981 41.2603 88.0239 29.1545C87.5113 28.0807 86.4298 26.5633 86.0962 25.5854C86.0272 25.3808 85.9594 25.2057 85.9965 24.982C86.1882 24.766 87.2083 26.2296 87.3259 26.3997C100.953 45.893 95.8077 72.651 76.8321 86.4455C48.9261 106.733 9.67359 87.9003 5.34898 54.5588C2.31294 31.1487 19.4528 9.22015 42.4858 5.56795C49.8414 4.40211 61.657 4.84186 68.2289 8.67941C68.3721 8.76251 68.9537 9.00922 68.8642 9.19202C68.7863 9.35054 66.8803 10.0025 66.5185 10.1712C59.6462 13.3594 56.242 19.9991 54.8 27.1513C53.9065 27.0746 53.0551 26.7844 52.1667 26.6592C50.648 26.4457 48.5643 26.1734 47.0636 26.2539C46.1534 26.3025 45.2074 26.6413 44.2768 26.4943C43.9559 26.3843 43.6031 25.0561 43.4101 24.6765C38.4872 15.0238 24.6608 20.4861 27.5728 30.6706C27.7952 31.4504 28.4076 32.5012 28.5392 33.1621C28.5725 33.3282 28.5725 33.4343 28.4766 33.5801C28.1941 34.0121 25.268 35.3889 24.5674 35.8427C22.7382 37.0277 21.4585 38.5144 20.5202 40.4882C20.2352 41.0877 20.101 41.8355 19.7763 42.4287C7.27927 45.8252 9.12646 62.7504 21.8817 63.5915L42.1484 63.5864L42.0295 64.0415C38.6892 66.8845 35.4588 70.1174 34.1332 74.4254C31.4807 83.0349 35.9855 88.643 44.2423 90.5758C55.7754 93.2757 68.3504 88.5624 77.0469 81.0343C77.2079 80.6687 76.2402 80.9717 76.0945 80.9781C73.2962 81.0855 71.1333 80.7621 68.9346 78.9238C64.523 75.2358 64.0296 67.8087 68.739 64.1629V56.4929C68.739 56.4303 69.0471 56.0902 68.6099 56.1068C66.709 59.7948 63.0414 62.1521 58.9431 62.6762L21.4994 62.6979C15.559 62.1572 11.9413 57.839 12.3594 51.8858C12.6726 47.4129 16.3695 43.4526 20.9191 43.2519C21.4074 40.0216 23.7314 37.1032 26.7227 35.8261C29.0774 34.82 31.6328 34.7983 34.0821 35.4554C37.2869 27.646 46.7619 24.5333 54.1225 28.6674C57.9818 30.8355 60.688 35.0016 61.3093 39.3773C61.3707 39.8119 61.2006 40.6122 61.4371 40.9113C62.185 41.2181 62.966 41.3805 63.7087 41.7077C66.0698 42.7432 67.5859 44.584 68.6073 46.9092C69.0445 46.9271 68.7364 46.5871 68.7364 46.5232V18.5277H68.739ZM36.3524 10.0715C35.6979 9.41957 34.5014 9.83631 34.3595 10.7363C34.2086 11.6937 34.2086 16.0286 34.3595 16.986C34.5525 18.2107 36.2552 18.2669 36.6503 17.1177C36.4726 15.1107 36.897 12.6768 36.6592 10.7235C36.6298 10.4819 36.5224 10.2403 36.3524 10.0702V10.0715ZM47.4816 14.1443C47.2668 14.1929 47.1633 14.3169 47.0047 14.4345C46.0447 15.1465 43.8204 17.491 42.9754 18.4587C42.4437 19.0684 42.0129 19.9121 42.8502 20.5117C43.3922 20.899 43.8064 20.7801 44.3139 20.4362C44.8712 20.0591 48.3457 16.5833 48.7241 16.026C49.4246 14.9931 48.6806 13.872 47.4816 14.1443ZM23.7864 17.9077L27.0973 21.179C27.8707 21.5458 28.7719 20.9079 28.7361 20.0642C28.7156 19.5836 27.5881 18.4382 27.197 18.0125C26.7687 17.5472 24.299 14.9905 23.9654 14.8538C22.9043 14.4166 21.9635 15.3894 22.4032 16.4159C22.4429 16.5092 23.5767 17.6789 23.7877 17.9077H23.7864ZM79.0935 65.3147V44.7974H76.6007C76.3834 44.7974 75.8516 44.1953 75.7941 43.9384C75.385 42.0797 78.0478 42.8211 79.0858 42.4901C78.9771 41.1414 79.2533 39.5218 79.0986 38.2076C79.0769 38.021 79.0832 37.8791 78.9004 37.7666H76.4716C76.2632 37.7666 75.8478 37.2744 75.7954 37.0354C75.3735 35.132 77.9558 35.7903 79.0858 35.4592C78.9771 34.1106 79.2533 32.4909 79.0986 31.1768C79.0769 30.9902 79.0832 30.8483 78.9004 30.7358H76.3438C75.7481 30.7358 75.4477 29.2312 76.2095 28.8119C76.634 28.5779 79.0615 28.5805 79.0999 28.3606C78.9004 25.5099 79.3402 22.3601 79.0973 19.5452C78.7113 15.0775 72.3937 14.5828 71.4529 19.0697C71.302 34.512 71.6024 50.0028 71.302 65.4182C68.0947 67.7474 67.2459 71.8674 69.4242 75.2384C72.1483 79.4556 78.3354 79.3265 81.1158 75.264C83.4986 71.7831 81.9646 67.8893 79.0922 65.3147H79.0935ZM18.2077 26.7998C17.0802 27.1679 17.1071 28.8758 18.3151 29.0663C19.2777 29.2184 23.5985 29.2171 24.5636 29.0663C25.8445 28.8669 25.7231 26.9851 24.4358 26.7806C22.6282 26.493 20.0933 26.957 18.2065 26.8011L18.2077 26.7998ZM23.6049 46.0694C17.6184 44.7885 13.1097 51.3642 16.2736 56.5479C17.713 58.9064 20.1163 59.7373 22.7765 59.8882C34.1345 59.4011 46.0051 60.5145 57.3043 59.8882C67.1896 59.3398 71.1908 46.9514 60.867 43.785L58.5724 43.7786C59.0109 39.7263 57.7364 35.3621 54.6108 32.6558C47.5838 26.5722 37.7215 30.8968 35.5023 39.2993L33.4889 38.3099C29.3855 36.8002 24.6058 39.275 23.7774 43.6175C23.6138 44.4753 23.6752 45.2449 23.6061 46.0681L23.6049 46.0694Z" fill="url(#paint0_linear_6978_422)"/>
<defs>
<linearGradient id="paint0_linear_6978_422" x1="12.7339" y1="12.0947" x2="164" y2="92.5" gradientUnits="userSpaceOnUse">
<stop stop-color="#00FFFF"/>
<stop offset="1" stop-color="#009999"/>
</linearGradient>
</defs>
</svg>
