<svg width="20" height="16" viewBox="0 0 20 16" fill="none" xmlns="http://www.w3.org/2000/svg">
<path d="M5.62061 13.8076C8.19446 13.1591 9.82077 15.4961 12.2075 15.3076C13.203 15.229 14.0306 14.5989 15.0698 14.6338C15.7755 14.6578 16.3541 15.0028 17.022 15.1406C17.0713 15.1858 16.6516 15.6459 16.5747 15.6787C16.1872 15.5925 15.7855 15.3674 15.3921 15.3203C14.0927 15.1643 13.1613 15.9653 11.9165 15.9834C9.83265 16.0136 8.29465 14.162 6.19775 14.3428C5.16326 14.432 4.26891 15.2023 3.21338 15.2275C2.7802 15.2379 2.71115 14.7864 2.43506 14.5312C2.46911 14.4615 2.55856 14.5518 2.58252 14.5518C2.8675 14.5518 3.23586 14.5824 3.50732 14.5518C4.15627 14.4783 4.94235 13.9787 5.62061 13.8076ZM0.977051 11.0283C-0.231557 4.32439 5.83148 -1.28218 12.4165 0.47168C18.2359 2.02211 20.8909 8.63544 17.9839 13.873L17.7681 13.8643C16.7051 13.7808 15.8306 13.1306 14.7319 13.207C13.9307 13.2625 13.2527 13.7128 12.4985 13.833C10.1832 14.2027 8.42273 11.8914 5.95068 12.2451C4.74037 12.4183 3.87985 13.2296 2.58252 13.1641C2.42657 13.1561 1.72244 13.0578 1.61963 12.9922C1.41153 12.8602 1.03296 11.3381 0.977051 11.0283ZM17.2964 11.7344C16.3805 11.8154 15.2881 11.6293 14.394 11.7344C13.9657 11.7848 13.9678 12.2743 14.394 12.3252C15.3164 12.2382 16.4423 12.438 17.3394 12.3262C17.4032 12.3181 17.5178 12.2755 17.5562 12.2285V12.2275C17.7226 12.0207 17.5444 11.7403 17.2964 11.7344ZM10.7153 4.36035C9.71773 2.51109 7.2819 1.93177 5.67139 3.38965C4.98699 4.0093 4.59538 4.73114 4.62061 5.68164C3.68158 5.71882 2.75108 6.44475 2.38623 7.29297C1.58124 9.16271 2.91986 11.086 4.89209 11.1914C7.59059 11.0552 10.4575 11.3659 13.1362 11.1914C14.2527 11.1186 15.242 10.3362 15.4556 9.22266C15.6977 7.96109 14.8831 6.60439 13.5337 6.56445L13.5532 6.4248C13.6991 4.99102 12.0755 3.76613 10.7153 4.36035ZM17.5493 10.1787C17.2328 10.1434 16.2108 10.1351 15.9106 10.1826C15.5693 10.2369 15.5046 10.7069 15.8687 10.7666C16.1404 10.8112 17.3541 10.8091 17.6294 10.7666C17.8714 10.7291 17.9772 10.4453 17.8091 10.2764C17.7633 10.2302 17.6188 10.1864 17.5493 10.1787ZM11.4741 8.41406C11.6936 7.52117 13.135 7.87552 12.644 8.80664C12.5011 9.07778 12.1873 9.20927 12.02 9.46484H12.7349V9.80176H11.4741C11.4821 9.69333 11.4486 9.57006 11.4956 9.46582C11.5242 9.40276 12.0953 8.94221 12.2104 8.79297C12.5076 8.40899 12.2177 8.09611 11.937 8.30957C11.7411 8.45878 11.8623 8.56023 11.4741 8.41406ZM6.54541 6.15625C7.02382 6.10118 7.53449 6.26555 7.85693 6.62793L7.45264 6.97852C7.32362 6.96377 7.25795 6.84788 7.14404 6.79492C6.53581 6.51293 5.90642 6.89622 5.84033 7.55273C5.73819 8.5746 6.61446 9.10724 7.4165 8.45508L7.85693 8.81348C7.08509 9.67822 5.55392 9.35779 5.271 8.20508C5.03914 7.26186 5.52699 6.274 6.54541 6.15625ZM9.48779 6.15625C11.7251 5.8994 11.8996 9.49465 9.51904 9.2959C7.72482 9.14624 7.68099 6.36354 9.48779 6.15625ZM9.52881 6.70215C8.53772 6.84528 8.51406 8.54312 9.49561 8.73145C10.9635 9.01288 11.0001 6.48986 9.52881 6.70215Z" fill="white"/>
</svg>
