<svg width="20" height="18" viewBox="0 0 20 18" fill="none" xmlns="http://www.w3.org/2000/svg">
<path d="M12.7461 17.5908C12.3851 17.7612 11.846 17.8493 11.4385 17.9014V17.9023C10.4431 18.0296 9.51524 17.9893 8.53223 17.833C8.69915 17.77 8.83387 17.849 8.99023 17.8633C9.69789 17.9271 10.7363 17.9282 11.4385 17.833L11.7744 17.7734C12.1061 17.7036 12.4248 17.6126 12.7461 17.5908ZM8.8584 0.136719C9.50575 0.0694526 10.1887 0.0490711 10.8379 0.102539C11.0005 0.116005 11.1441 0.199907 11.3096 0.136719L11.3477 0.206055L11.1836 0.30957C10.4484 0.718313 10.2545 0.868077 9.69434 1.48242C8.84616 2.41312 9.02928 4.14737 8.9668 5.32812C8.9588 5.48224 8.93673 5.64776 8.93164 5.79395C8.93092 5.81682 8.93197 5.83944 8.93164 5.8623C8.92692 6.13137 8.86787 6.35163 8.78613 6.62207C8.71731 6.58857 8.76315 6.50541 8.77441 6.45508L8.83203 6.15137C8.81063 6.25224 8.79559 6.35553 8.77344 6.45508C8.76218 6.50544 8.71711 6.58861 8.78613 6.62207C7.91358 9.51013 4.91669 10.1684 4.17285 12.7617L4.06445 13.21C3.731 11.9244 3.61001 10.5201 3.8457 9.20898L3.89746 8.95117C4.02932 8.35712 4.24469 7.80986 4.61523 7.30078C5.13506 6.58581 5.84802 6.02464 6.60645 5.55176C6.61509 5.48725 6.53822 5.53167 6.50488 5.54199C6.24698 5.62168 5.96082 5.7753 5.72363 5.9043C5.26304 6.15541 4.77836 6.46906 4.4082 6.82812C4.42576 6.5295 4.5853 6.19473 4.71094 5.9082C5.06003 5.11317 5.5493 4.38028 6.06836 3.67871L7.11523 2.41309C7.08109 2.38135 6.76316 2.63427 6.71484 2.67188C5.96379 3.25649 5.58077 3.8892 4.97168 4.55176H4.97266C4.97159 4.55291 4.96981 4.55353 4.96875 4.55469C4.20423 5.73104 3.67771 7.0377 3.48242 8.41504C3.38657 8.42538 3.4248 8.41358 3.40918 8.36426C3.32572 8.10204 3.21649 7.7964 3.08301 7.55371L2.95703 7.34375C2.80799 7.11073 2.60313 6.82774 2.46387 6.6748C2.4134 6.61933 2.35547 6.57094 2.30176 6.51855C2.27387 6.5134 2.27993 6.55027 2.2832 6.57031C2.32061 6.78242 2.66809 7.3808 2.7666 7.66406C2.9362 8.15238 3.02924 8.59684 3.08301 9.10547C3.16256 9.85436 3.14649 10.5794 3.16211 11.3311C3.16576 11.5125 3.20509 11.7597 3.26465 11.9346C3.26501 11.9458 3.26431 11.9575 3.26465 11.9688L3.33691 12.2441L3.48242 13.1416C3.41075 12.9237 3.33828 12.7012 3.2959 12.4736L3.26465 12.2441C3.26102 12.1988 3.26133 12.1526 3.2627 12.1064C3.26132 12.153 3.26099 12.1995 3.26465 12.2451C3.28936 12.5534 3.38692 12.8513 3.48242 13.1416C3.55427 13.3611 3.64561 13.619 3.73633 13.8311C3.95501 14.3429 4.28237 14.9519 4.64453 15.3838L4.47656 15.2676V15.2686L4.64453 15.3838C5.21741 16.0668 6.03321 16.6223 6.86328 16.9873C6.9161 17.0103 6.99102 16.9801 6.96973 17.0732C7.04415 17.0712 7.1292 17.0716 7.19824 17.1016L7.26074 17.1426C7.40688 17.1616 7.55147 17.1882 7.69629 17.2139L8.13281 17.2812C7.9971 17.1126 7.99765 16.9433 7.95117 16.7637C8.00558 16.7308 7.9942 16.6156 7.9873 16.5566C8.12971 16.5735 8.04129 16.3168 8.04492 16.2412C8.08053 15.4898 8.21118 15.2285 8.50098 14.5771C8.57724 14.4054 8.58688 14.1197 8.66602 13.9424C8.67982 13.9117 8.78468 13.7563 8.78613 13.7422C8.82864 13.3141 8.92295 12.9451 9.04102 12.5898H9.04004V12.5889C8.92201 12.9445 8.82826 13.3132 8.78613 13.7412C8.78372 13.7569 8.67976 13.9108 8.66602 13.9414C8.58689 14.1187 8.5776 14.4044 8.50098 14.5762C8.21117 15.2276 8.07954 15.4887 8.04395 16.2402C8.04039 16.3159 8.12928 16.5722 7.9873 16.5557C7.94409 16.1925 7.88604 15.6921 7.82031 15.3555C7.76548 15.0758 7.6281 14.8388 7.58301 14.5596L7.44238 14.5547L7.44141 14.5557L7.58301 14.5596C7.59428 14.6294 7.61083 14.6968 7.63086 14.7627C7.6508 14.8284 7.67402 14.8927 7.69727 14.957C7.74391 15.0863 7.79188 15.2156 7.81934 15.3555C7.85223 15.5239 7.88292 15.7336 7.91113 15.9463C7.93926 16.1587 7.96473 16.3752 7.98633 16.5566C7.99322 16.6157 8.00421 16.7298 7.9502 16.7627C7.84893 16.3713 7.83024 16.0385 7.7627 15.6475C7.70349 15.3034 7.60973 14.9681 7.5498 14.625L7.47852 15.0039C7.47888 15.6555 7.34038 16.353 7.62402 16.9697C7.59877 16.9877 7.45748 16.9382 7.31152 16.8789L6.96973 16.7285C6.61349 16.5554 6.3933 16.3774 6.09766 16.1426V16.1416C6.08495 16.131 6.07492 16.1176 6.0625 16.1074C6.05428 16.043 6.01822 15.9981 5.97266 15.9619C6.00292 15.9859 6.02872 16.0137 6.04492 16.0488C6.05309 16.0665 6.05876 16.0859 6.06152 16.1074C5.65162 15.7713 5.32863 15.4535 5.01562 15.0146C4.88676 14.834 4.37183 13.9958 4.40625 13.8311C4.45273 13.6145 4.7802 13.358 4.97168 13.2441C5.20179 13.1077 5.4223 13.0265 5.68945 12.9775L7.07812 12.8652C6.61437 13.0282 6.16463 12.9339 5.72266 13.0381C5.69376 13.0451 5.69943 13.1031 5.67383 13.1074L5.6748 13.1084C5.70051 13.1043 5.69456 13.0463 5.72363 13.0391C6.16562 12.9349 6.61533 13.0282 7.0791 12.8652C7.24094 12.8084 7.30683 12.8102 7.44238 12.6934C7.59412 12.7306 7.64909 12.6166 7.66113 12.4863C7.68691 12.456 7.72465 12.428 7.7334 12.417C7.84274 12.4332 7.82185 12.4183 7.86035 12.3486C7.98977 12.1151 8.26878 11.4066 8.2666 11.1846C8.26652 11.1709 8.25992 11.1613 8.25391 11.1543C8.25971 11.1613 8.26545 11.1714 8.26562 11.1846C8.26745 11.4072 7.98862 12.1156 7.85938 12.3486C7.82108 12.4181 7.84162 12.4322 7.73242 12.416C7.98077 12.095 8.08419 11.5204 8.20508 11.1406L8.19238 11.1016C8.14437 11.0167 7.97974 10.9693 7.89648 10.8984C7.65111 10.689 7.57167 10.3233 7.74707 10.0488C7.9083 9.7964 8.35455 10.154 8.49512 10.3125H8.49609L8.53223 10.3467H8.53125C8.58056 10.3543 8.65718 10.3664 8.67676 10.416C8.65749 10.4152 8.62684 10.4169 8.59863 10.418C8.62677 10.4169 8.65731 10.4152 8.67676 10.416C8.89841 10.4249 9.17967 10.413 9.36426 10.5527C9.36546 10.5529 9.36696 10.5536 9.36816 10.5537C9.38004 10.5547 9.39243 10.5537 9.4043 10.5537L9.40332 10.5547C9.4629 10.5564 9.65949 10.6534 9.71289 10.6924C9.81242 10.7649 9.96137 10.9306 9.98535 11.0371C10.1358 11.1305 10.581 11.4783 10.71 11.6221L10.7119 11.623C10.7192 11.6314 10.7263 11.6659 10.748 11.6924C10.7988 11.6142 11.0072 11.8055 11.0195 11.8311C11.1201 12.0394 10.9736 12.0264 10.9297 12.0723C10.9192 12.0833 10.9278 12.1319 10.8711 12.1709C10.6119 12.3494 9.8934 12.1828 9.56836 12.1738C9.43395 12.17 9.24333 12.1526 9.17578 12.2881C9.13265 12.3743 9.09321 12.4983 9.07617 12.5898H9.07715L8.91211 13.4492C8.85132 13.7304 8.77858 14.0102 8.67871 14.2988C8.57412 14.6008 8.40864 14.8886 8.31348 15.1934C8.13322 15.7696 8.10074 16.4174 8.14551 17.0244L8.16895 17.2812C8.24261 17.2892 8.31305 17.3078 8.38672 17.3154C8.43406 17.3202 8.4839 17.3114 8.53125 17.3154C8.55087 17.1374 8.48735 16.923 8.56836 16.7637V16.7627L8.57422 16.5869C8.68569 14.7899 10.4247 13.7371 12.2549 13.8662C13.2897 13.9393 14.1241 14.5261 15.1992 14.4531C15.7052 14.4186 16.1691 14.2099 16.5967 13.9688L16.6689 13.8652C17.1441 13.2747 17.4627 12.7618 17.7588 12.0371C18.11 11.1772 18.2972 10.2672 18.376 9.34668C18.449 8.494 18.3723 7.42886 18.1943 6.58691L18.1924 6.58398C18.1859 6.57752 18.169 6.56172 18.1592 6.51953L18.1582 6.51855V6.44922C18.0674 6.06908 17.9034 5.53675 17.7588 5.17285L17.7227 5.10449V5.10352C17.6188 4.84716 17.4675 4.60137 17.3604 4.3457C17.4433 4.33436 17.4902 4.45034 17.5352 4.50684C17.6534 4.65399 17.7319 4.81076 17.832 4.96582C18.3849 5.82164 18.9113 6.78802 18.9941 7.79492V7.8291C19.0217 8.12333 18.9977 8.52101 19.0293 8.77246C19.0297 8.77559 19.0332 8.77621 19.0352 8.77832C19.0336 8.77635 19.0306 8.77525 19.0303 8.77246C18.9987 8.52097 19.0227 8.12321 18.9951 7.8291C19.0721 7.88841 19.0785 8.01004 19.0938 8.09766C19.2216 8.82999 19.1659 9.42415 19.1045 10.1406L19.1016 10.1416C18.9241 12.2143 18.07 13.9753 16.5234 15.4531V15.4521H16.4873C16.2737 15.4998 16.1668 15.7538 16.0498 15.8477C16.0068 15.882 15.9128 15.8749 15.8682 15.918C15.8343 15.9506 15.8425 16.017 15.8262 16.0312C15.8015 16.0516 15.7243 16.0292 15.6865 16.0547C15.6519 16.0782 15.6653 16.1432 15.6406 16.168C15.5827 16.2264 14.818 16.6804 14.6934 16.748C14.0678 17.0864 13.3772 17.2928 12.7451 17.5908C12.317 17.6199 11.8936 17.7703 11.4375 17.832C10.7353 17.9272 9.69778 17.9261 8.99023 17.8623C8.83366 17.8482 8.69799 17.7689 8.53125 17.832C8.40643 17.812 8.29172 17.7879 8.16797 17.7627C8.16782 17.6347 8.07562 17.6692 7.98633 17.6592C7.97447 17.6579 7.96168 17.6612 7.9502 17.6592C7.93355 17.6527 7.92024 17.6461 7.91016 17.6387C7.92038 17.6464 7.934 17.6535 7.95117 17.6602C7.87648 17.6481 7.8113 17.6431 7.7334 17.626C7.7694 17.5821 7.76815 17.546 7.74707 17.5186C7.76768 17.5459 7.76796 17.5816 7.73242 17.625C7.7042 17.6186 7.67639 17.6034 7.65137 17.5889C7.67646 17.6034 7.70408 17.6195 7.73242 17.626C7.81052 17.6432 7.87634 17.6481 7.95117 17.6602H7.9873L8.11133 17.668C8.1452 17.6766 8.16773 17.7001 8.16797 17.7637C8.14625 17.7593 8.11735 17.7681 8.0957 17.7637C7.56607 17.6509 7.02019 17.5153 6.53516 17.2803L6.53418 17.2812C6.523 17.2792 6.50961 17.2832 6.49805 17.2812C6.51141 17.2176 6.47252 17.2 6.42383 17.1924C6.47211 17.2 6.51025 17.2171 6.49707 17.2803C6.444 17.2706 6.35651 17.2179 6.31641 17.1777C6.30531 17.1743 6.29077 17.1808 6.28027 17.1777V17.1084L6.23145 17.1074L6.18555 17.0381H6.18457L6.23047 17.1074L6.2793 17.1084V17.1768C6.19087 17.1472 6.13003 17.1035 6.06152 17.0742L6.0625 17.0732C5.96703 17.0325 5.87517 16.9888 5.78516 16.9424L5.51758 16.7979L5.5166 16.7988C4.67351 16.3318 4.02299 15.8154 3.38965 15.1572L3.11914 14.8662C2.81191 14.5256 2.49511 14.1686 2.28516 13.7656C2.28443 13.7648 2.28393 13.7635 2.2832 13.7627C2.1475 13.6104 2.09403 13.4843 1.99316 13.3145L2.01367 13.3037C2.00877 13.3079 2.00203 13.311 1.99316 13.3135C1.5243 12.5261 1.20095 11.684 1.01172 10.7959C0.845341 10.0146 0.802833 9.31678 0.830078 8.51855H0.831055C0.856794 7.76451 0.968965 6.99664 1.22852 6.28125C1.22876 6.27993 1.22925 6.27866 1.22949 6.27734C1.23349 6.25596 1.22659 6.23008 1.22949 6.20801C1.25277 6.21264 1.26938 6.21212 1.28125 6.20801C1.26943 6.21182 1.25318 6.21253 1.23047 6.20801C1.29148 5.77007 1.75624 4.98375 1.99316 4.58691L2.15039 4.33203C2.51359 3.76098 2.86357 3.34142 3.37305 2.82715H3.37402L3.51855 2.68945C3.54289 2.666 3.5671 2.6442 3.5918 2.62109L3.62793 2.58594C3.68993 2.52877 3.74357 2.47227 3.80957 2.41406C3.85229 2.41247 3.90316 2.39739 3.90137 2.37207C3.9025 2.39707 3.85196 2.41153 3.80957 2.41309C3.83195 2.39355 3.85267 2.37008 3.88184 2.34473C4.64357 1.68866 5.44315 1.18448 6.38867 0.792969L6.83301 0.714844L7.06348 0.625977C6.98531 0.654544 6.90822 0.683374 6.83301 0.713867L6.38867 0.791992C7.16522 0.470354 8.01009 0.224826 8.85742 0.136719H8.8584ZM16.5244 15.4531C15.7303 16.2117 13.869 17.5155 12.7461 17.5918C13.3782 17.2938 14.0682 17.0871 14.6934 16.749C14.8172 16.6821 15.5846 16.2266 15.6416 16.1689C15.6663 16.1438 15.6526 16.0788 15.6875 16.0557C15.7252 16.0306 15.8013 16.0523 15.8262 16.0322C15.8432 16.0184 15.8354 15.9517 15.8691 15.9189C15.9135 15.8762 16.0079 15.8835 16.0508 15.8486C16.0799 15.8253 16.1081 15.7914 16.1377 15.7539C16.2269 15.6407 16.3273 15.489 16.4873 15.4531H16.5244ZM7.30176 17.4883C7.32086 17.4932 7.3369 17.4956 7.35059 17.4941C7.33578 17.4957 7.31807 17.4932 7.29688 17.4873L7.30176 17.4883ZM7.7334 17.3672L7.91309 17.418H7.91406L7.7334 17.3662V17.3672ZM11.1289 17.2295C11.1081 17.2442 11.0797 17.2491 11.0488 17.25V17.251C11.0794 17.2501 11.1081 17.245 11.1289 17.2305L11.1475 17.2119H11.1455C11.1407 17.2188 11.1355 17.2248 11.1289 17.2295ZM6.44336 17.1025H6.44238H6.44336ZM5.95898 16.9355C5.93241 16.9239 5.90797 16.911 5.88477 16.9023H5.88281C5.90648 16.9112 5.93176 16.9236 5.95898 16.9355ZM5.77051 16.8662L5.80664 16.8672L5.80566 16.8662H5.77148C5.77324 16.8639 5.77488 16.862 5.77637 16.8604C5.77475 16.8621 5.77242 16.8637 5.77051 16.8662ZM6.43066 16.333C6.55211 16.4109 6.68259 16.4877 6.8125 16.5586C6.87748 16.5941 6.94225 16.6283 7.00586 16.6602C7.10069 16.7076 7.20472 16.7612 7.31836 16.7988C7.20488 16.7611 7.10156 16.7063 7.00684 16.6592C6.81598 16.5636 6.61296 16.45 6.43066 16.333ZM5.7334 15.8154H5.73438H5.7334ZM17.4863 14.2842C17.4626 14.2876 17.435 14.2948 17.415 14.3145C17.3752 14.354 17.3558 14.4764 17.3203 14.5264C17.2715 14.5951 17.2151 14.6657 17.1533 14.7363V14.7373C17.2151 14.6667 17.2715 14.596 17.3203 14.5273C17.3559 14.4773 17.3761 14.3538 17.416 14.3145C17.4355 14.2954 17.4626 14.2877 17.4863 14.2842ZM15.7246 8.03613C16.113 9.35033 17.5914 10.537 17.5039 11.9854C17.3946 13.7964 14.8825 14.3292 14.0898 12.6582C13.8292 12.1085 13.8239 11.445 14.126 10.8994C14.1289 10.8887 14.1231 10.875 14.126 10.8643C14.1797 10.6763 14.2688 10.4577 14.417 10.3125C14.4214 10.3032 14.4123 10.2875 14.417 10.2783C14.5823 9.95035 14.8106 9.66053 14.998 9.34668L14.9219 9.56055H14.9229L14.998 9.34668C15.1488 9.09389 15.298 8.83959 15.4531 8.58887L15.7246 8.03613ZM5.47754 13.0869C5.36858 13.1007 5.14642 13.2181 5.04492 13.2783V13.2793C5.14562 13.2191 5.36785 13.101 5.47754 13.0869ZM15.0205 13.0166C15.1404 13.0887 15.2794 13.1335 15.4336 13.1406C15.3952 13.1388 15.3577 13.1352 15.3213 13.1289C15.2848 13.1226 15.2493 13.114 15.2148 13.1035C15.1456 13.0823 15.0807 13.0527 15.0205 13.0166ZM18.4023 12.6904C18.3952 12.7062 18.3872 12.7216 18.3799 12.7373C18.4559 12.5735 18.5259 12.4112 18.5859 12.2539L18.4023 12.6904ZM9.00977 12.4883C9.00048 12.5046 9.00095 12.526 9.04004 12.5547V12.5527C9.02181 12.5391 9.01182 12.5281 9.00781 12.5176C9.00335 12.5065 9.00525 12.4976 9.00977 12.4893C9.01851 12.4734 9.03655 12.4618 9.04004 12.4521V12.4512C9.03737 12.4608 9.01891 12.4724 9.00977 12.4883ZM10.9297 12.0713C10.7957 12.0148 10.7375 12.1342 10.7236 12.1396C10.5028 12.1904 10.202 12.1365 10 12.1055C9.90181 12.0905 9.81594 12.149 9.75391 12.1416C9.72993 12.1388 9.73366 12.0778 9.70605 12.0713C9.68341 12.0669 9.35625 12.0672 9.32031 12.0713C9.30941 12.0727 9.23148 12.1729 9.20605 12.1953C9.19278 12.2069 9.16358 12.2073 9.13672 12.2188C9.16356 12.2075 9.19313 12.2078 9.20605 12.1963C9.23126 12.1741 9.30738 12.075 9.31934 12.0723C9.35306 12.0685 9.68614 12.0681 9.70605 12.0723C9.73349 12.0788 9.72945 12.1391 9.75293 12.1426C9.81504 12.1502 9.9012 12.0913 10 12.1064C10.2015 12.1375 10.5018 12.1912 10.7227 12.1406C10.7357 12.1375 10.7942 12.015 10.9297 12.0723V12.0713ZM3.08301 9.10547C3.13314 9.14652 3.14326 9.20635 3.15234 9.26465C3.29108 10.1325 3.23559 11.064 3.26465 11.9346C3.20507 11.7597 3.16708 11.5115 3.16309 11.3301C3.14748 10.5786 3.16291 9.85423 3.08301 9.10547ZM8.14746 11.001C8.18947 11.0048 8.23427 10.9976 8.24121 11.0029L8.1875 11.002C8.17477 11.0023 8.16097 11.0022 8.14746 11.001ZM7.85449 10.7158C7.86716 10.732 7.88213 10.7492 7.89746 10.7676C7.84966 10.7102 7.81091 10.6598 7.80469 10.6416L7.85449 10.7158ZM13.1094 1.30957C13.57 0.694304 14.4195 0.511357 15.1631 0.755859C15.2274 0.777247 15.2958 0.793717 15.3252 0.861328C15.2814 0.850827 15.2379 0.841413 15.1953 0.832031C15.2385 0.841531 15.2827 0.851652 15.3271 0.862305L15.3252 0.861328H15.3613C15.5378 0.903053 15.8489 1.13463 16.0879 1.24023C16.1115 1.25058 16.1723 1.24654 16.2217 1.26758C16.5663 1.41519 16.7841 1.56474 16.8135 1.94824C16.7893 1.9798 16.7587 1.9676 16.7314 1.94727L16.6689 1.89551C16.6117 1.88208 16.4894 1.87269 16.415 1.86133C16.4182 1.85282 16.4225 1.84558 16.4268 1.83887C16.4224 1.84567 16.4173 1.85266 16.4141 1.86133C16.3596 1.85319 16.2907 1.86546 16.2324 1.86133C16.2288 1.86021 16.2205 1.84954 16.2021 1.83984L16.1641 1.82715C16.2105 1.83654 16.2271 1.86027 16.2324 1.86133C16.063 1.87994 15.9391 1.95206 15.7979 2.0332C15.8045 2.02105 15.7907 1.98468 15.7939 1.95801C15.7904 1.985 15.804 2.02218 15.7969 2.03418C15.7733 2.07384 15.7319 2.09213 15.7246 2.10352H15.7236C15.4111 2.5936 15.5208 2.90975 15.543 3.44824L15.5605 3.57715C15.5687 3.62337 15.5769 3.67245 15.5791 3.72363V3.89648C15.5719 3.89362 15.5659 3.88857 15.5605 3.88281C15.5659 3.8886 15.5719 3.89358 15.5791 3.89648V4.34473C15.5453 4.87694 15.3954 5.47356 15.1074 5.93164C15.0922 6.13171 14.605 6.76467 14.4463 6.94336C14.4051 6.98984 14.3881 7.0382 14.3076 7.03613C14.4976 6.74422 14.7426 6.433 14.9355 6.12891C14.9997 6.02781 15.0587 5.92681 15.1074 5.82812C15.1956 5.64945 15.2676 5.46324 15.3252 5.27148L15.3242 5.27246C15.2666 5.46407 15.1946 5.65057 15.1064 5.8291C14.911 6.22464 14.5607 6.64717 14.3076 7.03613C14.3023 7.04436 14.3124 7.0613 14.3076 7.07031L14.1982 7.17383C14.1194 7.26487 14.0665 7.30498 13.9805 7.38086L13.7988 7.52441C13.7383 7.5687 13.6779 7.61124 13.6182 7.65625C13.6219 7.63915 13.6305 7.62273 13.6396 7.60547C13.6303 7.62304 13.621 7.63981 13.6172 7.65723L13.5811 7.69141C13.4999 7.7513 13.4286 7.83518 13.3271 7.89746V7.89844C13.3159 7.9053 13.3059 7.92431 13.29 7.93164L13.291 7.93262L13.2139 8.12988C13.0376 8.64028 12.9042 9.46564 13.3447 9.76172C13.4384 9.8245 13.4912 9.79332 13.5801 9.89844C13.7282 10.0743 13.6788 10.1213 13.4531 10.1396C13.2723 10.1545 12.9295 10.1662 12.7979 10.0381C12.7339 9.97599 12.7607 9.95535 12.7451 9.89844C12.7331 9.89188 12.6827 9.9149 12.6689 9.87695C12.48 9.5656 12.1455 8.40106 11.7744 8.31934C11.6423 8.29009 11.4775 8.31039 11.3643 8.37988L11.3662 8.38184C11.3619 8.3846 11.3028 8.44082 11.293 8.45117H11.291C10.9892 8.7747 10.9763 9.49816 11.0752 9.89844H11.0391L10.9668 9.87402C10.9553 9.72194 10.8744 9.52815 10.8838 9.36816C10.8739 9.52858 10.955 9.72289 10.9668 9.875L11.0391 9.89941H11.0742C11.0827 9.93339 11.1963 10.1241 11.1836 10.1406C10.4127 10.3911 10.352 9.51154 10.1191 9.0293C10.0042 8.79191 9.68352 8.54181 10.0566 8.38184C9.99442 8.50036 9.95328 8.58425 10.0098 8.71875C9.96767 8.61805 9.98026 8.54572 10.0156 8.46582L10.0576 8.38184C10.1074 8.28732 10.1059 8.24831 10.2393 8.20898C10.221 8.30064 10.2001 8.33366 10.1719 8.34863C10.2003 8.33375 10.221 8.30103 10.2393 8.20898C10.2502 8.20588 10.2651 8.21209 10.2764 8.20898C10.349 8.18789 10.9488 7.91004 11.0137 7.86426C11.0559 7.83388 11.0236 7.78146 11.0635 7.75977C11.4272 7.56304 11.7879 7.51353 12.0918 7.20898C12.6603 6.96924 13.1361 6.66611 13.5088 6.20801C13.5204 6.19401 13.5362 6.18443 13.5449 6.17383C13.6881 6.17245 13.7139 6.02544 13.7637 5.9668C14.0399 5.64279 14.1217 5.54668 14.2383 5.13086C14.2459 5.10326 14.3069 5.10439 14.3076 5.08301C14.3065 5.10437 14.246 5.10239 14.2383 5.12988C14.122 5.54589 14.0391 5.64159 13.7627 5.96582L13.7275 6.02344C13.6929 6.08937 13.6518 6.17177 13.5449 6.17285L13.7266 5.96582C14.2236 5.28665 14.4925 4.62106 13.9092 3.89746H13.9082C13.8984 3.88509 13.8822 3.87504 13.8721 3.8623C13.8591 3.84504 13.8682 3.79682 13.8203 3.75781C13.7794 3.72481 13.7046 3.69127 13.6475 3.68945C13.7045 3.69162 13.7788 3.72482 13.8193 3.75781C13.8675 3.79671 13.8577 3.84509 13.8711 3.8623L13.6719 3.75879L13.6533 3.82715C13.6468 3.82404 13.6308 3.82812 13.6152 3.8291C13.6312 3.8282 13.6477 3.82472 13.6543 3.82812C13.6685 3.83654 13.6782 3.85099 13.6904 3.86133C13.9273 4.05381 13.9511 4.59346 13.8984 4.87012C13.8217 5.27211 13.6004 5.56053 13.3301 5.85742L13.3281 5.86328C13.2606 5.93741 13.2159 5.97268 13.1465 6.03613L13.0742 6.10449C13.0615 6.11519 13.0502 6.12798 13.0371 6.13867C13.0345 6.13801 13.0319 6.13729 13.0293 6.13672C13.0316 6.13724 13.0338 6.13808 13.0361 6.13867C12.9119 6.24118 12.9506 6.23323 12.7832 6.31055V6.31152H12.7812C12.6385 6.49098 12.669 6.42797 12.4922 6.51758V6.51855L12.4902 6.51953C12.3557 6.71384 12.31 6.67237 12.1289 6.75879V6.75977H12.1279C12.1216 6.77154 12.1436 6.79599 12.1045 6.83105C12.0155 6.91059 11.7775 6.98259 11.6738 7.06934C11.6447 7.07241 11.6505 7.0195 11.6562 7.00195H11.6191L11.5586 7.1416C10.2531 7.77284 9.03596 8.55367 7.78711 9.27734L8.53223 8.3125C8.52369 8.33618 8.5373 8.40512 8.52246 8.45703C8.49363 8.5575 8.38297 8.62453 8.45996 8.75977V8.75879C8.38477 8.62454 8.49452 8.55727 8.52344 8.45703C8.5383 8.40461 8.52449 8.33595 8.5332 8.3125C9.06644 7.73403 9.32067 6.9036 9.45508 6.09473C9.49065 5.88138 9.45991 5.84359 9.47363 5.67285C9.4787 5.60964 9.54282 5.62677 9.5498 5.59863C9.56141 5.54765 9.53866 5.48737 9.5498 5.43945C9.55416 5.41979 9.74999 5.3133 9.70312 5.17773L9.7998 5.16992C9.7646 4.97315 10.0378 4.89917 10.1162 4.79688C10.1684 4.72803 10.1596 4.64672 10.1758 4.62891C10.191 4.61269 10.2573 4.62417 10.2939 4.58691C10.3331 4.54687 10.3334 4.46377 10.4209 4.39551C10.4692 4.35792 10.5503 4.35025 10.5615 4.33887C10.5858 4.31334 10.56 4.25598 10.5684 4.24219C10.8403 4.01814 11.1092 3.81201 11.3789 3.59863C11.454 3.53903 11.6356 3.46732 11.6914 3.42969C11.7288 3.40455 11.8255 3.26213 11.8486 3.25098C11.8915 3.23062 11.9598 3.25427 11.9805 3.23633C11.9931 3.22381 11.9759 3.16857 11.9932 3.14844C12.0069 3.1352 12.1579 3.08941 12.2207 3.03516C12.2736 2.98939 12.2859 2.9221 12.3115 2.89746C12.3235 2.88608 12.336 2.87403 12.3477 2.8623C12.388 2.85058 12.4009 2.82429 12.4209 2.79395C12.5549 2.66778 12.5709 2.7017 12.6699 2.49609C12.8773 2.06526 12.9231 1.75 13.1836 1.31055C13.253 1.19361 13.2399 1.26551 13.3311 1.19238C13.4153 1.12477 13.4235 1.00338 13.5586 0.943359C14.0661 0.71766 14.4969 0.70532 14.9883 0.791992C14.4961 0.704956 14.0652 0.71635 13.5566 0.942383C13.4215 1.00239 13.4143 1.12511 13.3301 1.19238C13.2385 1.26551 13.251 1.19263 13.1816 1.30957L13.0928 1.46875C12.9066 1.82939 12.8495 2.11808 12.668 2.49512C12.5689 2.70086 12.5528 2.66691 12.4189 2.79297C12.7458 2.29978 12.7536 1.78379 13.1084 1.30957H13.1094ZM19.1074 8.8457C19.1241 9.21003 19.0875 9.82207 19.0664 10.1748L19.0674 10.1738C19.0881 9.82079 19.1251 9.20923 19.1084 8.8457C19.1077 8.8293 19.1021 8.81823 19.0947 8.81055L19.1074 8.8457ZM8.12012 10.1338C8.14341 10.1472 8.17251 10.151 8.20117 10.1572C8.1726 10.1511 8.14334 10.1472 8.12012 10.1338C8.10852 10.127 8.0995 10.118 8.0918 10.1084C8.09952 10.1179 8.10845 10.1271 8.12012 10.1338ZM10.5938 9.96094C10.6522 10.004 10.79 10.0919 10.8203 10.1064C10.8657 10.1281 10.8864 10.1426 10.9082 10.1445C10.8867 10.1427 10.8665 10.1276 10.8223 10.1064H10.8213C10.7909 10.0919 10.6518 10.004 10.5938 9.96094ZM10.9443 10.1367V10.1377L11.002 10.1064H11C10.9761 10.1207 10.9586 10.1307 10.9443 10.1367ZM13.4717 10.0713L13.542 10.1055H13.5439L13.4717 10.0703V10.0713ZM8.05371 10.0508C8.05737 10.0554 8.06097 10.0606 8.06445 10.0664C8.05548 10.0516 8.04694 10.0395 8.03418 10.0361L8.05371 10.0508ZM12.9824 9.25684C13.0098 9.43386 13.0688 9.62539 13.1992 9.72754C13.2697 9.78265 13.4123 9.80123 13.4639 9.83984C13.4827 9.8543 13.4674 9.89299 13.4717 9.89941C13.4948 9.92719 13.5369 9.9319 13.5479 9.96777C13.5375 9.93076 13.4953 9.92621 13.4717 9.89844H13.4727C13.4705 9.89521 13.4728 9.88434 13.4736 9.87207C13.4744 9.85993 13.4733 9.84595 13.4639 9.83887C13.4125 9.80034 13.2696 9.78168 13.1992 9.72656C13.1557 9.69246 13.1199 9.64872 13.0908 9.59863C13.0764 9.57369 13.0642 9.547 13.0527 9.51953C13.0182 9.43664 12.9961 9.34453 12.9824 9.25586V9.25684ZM12.2568 8.80371C12.4131 9.08293 12.6389 9.54816 12.7314 9.85449C12.6386 9.54757 12.413 9.08254 12.2568 8.80371ZM10.3965 9.46484C10.401 9.47872 10.4057 9.4927 10.4102 9.50684C10.387 9.43382 10.3637 9.36369 10.3379 9.30566L10.3965 9.46484ZM12.9648 8.90918L12.9658 8.9082L12.9648 8.90918ZM10.0723 8.76953C10.0865 8.77788 10.0994 8.78751 10.1055 8.80273L10.0869 8.77832C10.0825 8.77491 10.0773 8.77246 10.0723 8.76953ZM18.3145 7.05078C18.4012 7.53424 18.4596 8.00415 18.4795 8.50488C18.4596 8.00366 18.4012 7.53344 18.3145 7.0498V7.05078ZM10.5654 4.24121C10.5571 4.25499 10.5834 4.31231 10.5596 4.33789C10.5487 4.34927 10.4663 4.35693 10.418 4.39453C10.331 4.46267 10.331 4.54593 10.292 4.58594C10.2553 4.62354 10.1891 4.61172 10.1738 4.62793C10.1575 4.64556 10.1665 4.72728 10.1143 4.7959C10.0359 4.89859 9.76264 4.97211 9.79785 5.16895L9.70117 5.17676C9.74803 5.31233 9.55257 5.41881 9.54785 5.43848C9.53666 5.48641 9.55983 5.54664 9.54785 5.59766C9.54097 5.62557 9.47675 5.6086 9.47168 5.67188C9.45794 5.84267 9.48833 5.88038 9.45312 6.09375C9.31873 6.90226 9.06444 7.73304 8.53125 8.31152C8.68964 7.89081 8.99863 7.48765 9.15918 7.02832C9.32774 6.54469 9.34038 6.1956 9.40723 5.71094C9.47211 5.24147 10.1888 4.55197 10.5654 4.24121ZM12.0918 7.20801C11.7877 7.51295 11.4265 7.5628 11.0625 7.75977C11.0227 7.78148 11.0549 7.83326 11.0127 7.86328C10.948 7.90915 10.346 8.18889 10.2754 8.20898C10.3005 8.10205 10.514 8.01648 10.6143 7.96094C11.0904 7.69639 11.5953 7.41771 12.0918 7.20801ZM13.1523 8.0166C13.1306 8.07166 13.1033 8.14457 13.083 8.2002C13.1032 8.14467 13.1305 8.07176 13.1523 8.0166ZM3.52344 7.76367C3.50443 7.82437 3.49557 7.89089 3.51953 7.9668C3.47128 7.81485 3.55938 7.70047 3.58203 7.5957L3.52344 7.76367ZM13.5088 6.20801C13.1361 6.66593 12.6602 6.96832 12.0918 7.20801C12.2567 7.04277 12.5204 6.95422 12.7061 6.80762L13.5088 6.20801ZM4.28809 5.57031C4.15727 5.82663 4.04113 6.09757 3.93945 6.37207C4.04113 6.09759 4.15729 5.82664 4.28809 5.57031ZM14.3076 7.07031C14.2681 7.13689 14.2264 7.14219 14.1992 7.17383L14.3076 7.07031ZM11.6729 6.96875L11.6904 7C11.6817 7.00423 11.6664 6.99664 11.6572 7V7.00098C11.6669 6.9975 11.6833 7.0056 11.6924 7.00098L11.6748 6.96777L11.6729 6.96875ZM9.69434 1.48242C9.58686 1.70851 9.45685 1.91922 9.36719 2.1543C8.95283 3.24153 9.10075 4.51012 8.98633 5.65527C8.98105 5.7096 9.00847 5.75471 8.93164 5.79395C8.93672 5.64777 8.95977 5.48225 8.96777 5.32812C9.01855 4.36863 8.90694 3.04338 9.31836 2.08105C9.34997 2.00715 9.38476 1.93551 9.42285 1.86621C9.49903 1.72758 9.58848 1.59865 9.69434 1.48242ZM17.835 5.23145C17.851 5.28462 17.8983 5.32526 17.9189 5.37695C17.9559 5.46961 17.987 5.56003 18.0137 5.64941L17.9189 5.37598C17.8982 5.32425 17.851 5.28371 17.835 5.23047V5.23145ZM4.60645 5.02246C4.5526 5.10325 4.50147 5.18744 4.45117 5.27344C4.50145 5.18743 4.55263 5.10327 4.60645 5.02246ZM15.5059 3.44824C15.5213 3.72574 15.5201 4.00373 15.5 4.27734C15.5201 4.00364 15.5222 3.72584 15.5068 3.44824L15.4697 3.13379C15.4853 3.23746 15.4999 3.3421 15.5059 3.44824ZM12.3096 2.89648C12.2842 2.92109 12.2717 2.98839 12.2188 3.03418C12.1561 3.0884 12.0052 3.13384 11.9912 3.14746C11.974 3.16723 11.9911 3.22274 11.9785 3.23535C11.9578 3.25329 11.8895 3.22965 11.8467 3.25C11.8236 3.26137 11.7268 3.40356 11.6895 3.42871C11.6337 3.46634 11.4521 3.53804 11.377 3.59766C11.1069 3.81103 10.8383 4.01716 10.5664 4.24121C10.6554 4.09324 10.9479 3.87726 11.0938 3.75977C11.4784 3.45038 11.897 3.17103 12.3096 2.89648ZM2.71191 3.59961C2.63234 3.69815 2.5569 3.80017 2.48438 3.89746C2.60531 3.7352 2.73867 3.56305 2.87305 3.40625L2.71191 3.59961ZM12.4189 2.79297C12.399 2.82325 12.3868 2.85055 12.3467 2.8623C12.3717 2.8368 12.3935 2.81674 12.4189 2.79297ZM15.5625 2.20801C15.5309 2.2599 15.5058 2.31181 15.4863 2.36328C15.5058 2.31175 15.5308 2.25997 15.5625 2.20801ZM15.8799 1.90918C15.8715 1.91299 15.8622 1.91458 15.8535 1.91797C15.8874 1.90483 15.9201 1.89021 15.9521 1.87402L15.8799 1.90918ZM16.0879 1.27539C16.133 1.28956 16.4784 1.43718 16.5127 1.45801C16.5214 1.46353 16.656 1.58513 16.6611 1.59375V1.59277C16.6537 1.58251 16.5247 1.46574 16.5137 1.45801C16.4806 1.43731 16.1329 1.28953 16.0879 1.27539ZM15.4346 0.964844C15.504 1.03311 15.6067 1.09172 15.6973 1.14258C15.6051 1.09085 15.5026 1.0323 15.4336 0.963867L15.4346 0.964844ZM7.5459 0.467773C7.79397 0.395231 8.04991 0.332711 8.30762 0.28418C8.0499 0.332729 7.794 0.395207 7.5459 0.467773ZM10.9727 0.179688V0.178711V0.179688Z" fill="white"/>
</svg>
