<svg width="22" height="22" viewBox="0 0 22 22" fill="none" xmlns="http://www.w3.org/2000/svg">
<path d="M7.69165 17.4132C7.9974 18.5054 8.92974 19.0688 9.96878 19.3449C12.7727 20.0894 15.9175 18.6395 17.6949 16.4788C19.6607 14.0893 20.0296 11.3401 19.3674 8.36017C19.2789 7.96231 19.1456 7.57545 19.052 7.17939L19.2953 7.61358C21.9611 12.9449 18.3983 19.2799 12.6855 20.2967C9.34321 20.8916 6.18005 19.6844 3.91724 17.2348C1.14759 14.2364 0.801668 9.82495 2.86081 6.32738C5.26766 2.23929 10.7051 0.581592 14.9322 2.86845C14.0702 3.20592 13.3522 3.76062 13.0132 4.64665H13.6145L15.8532 6.83423V7.51226H13.9471C13.888 7.51226 13.6751 7.32446 13.6846 7.23747L13.6772 5.01893C13.6426 4.90302 13.5446 4.78584 13.4244 4.75974L6.50089 4.74797C6.14474 4.76895 5.92905 5.03095 5.89963 5.37482V16.4299C5.91267 16.7937 6.15881 17.0742 6.52622 17.1079H15.2018C15.5547 17.0772 15.8297 16.8014 15.8763 16.4517L15.8776 12.001C15.8893 11.913 16.0822 11.7006 16.1603 11.6313V16.5566C16.1603 16.6668 15.9763 17.0179 15.8926 17.1077C15.7883 17.22 15.4531 17.4137 15.3032 17.4137H7.69139L7.69165 17.4132Z" fill="white"/>
<path d="M18.1966 7.78222C16.6978 9.61288 15.2982 11.5264 13.8424 13.3937C13.3358 14.0433 12.7642 14.8618 12.2195 15.4551C11.9488 15.7501 11.5801 15.8604 11.1912 15.743C10.8297 15.6337 10.0629 14.5908 9.79012 14.2529C9.22109 13.5475 8.38316 12.5931 7.9262 11.844C7.25943 10.7504 8.5968 9.80963 9.37512 10.6752C9.78909 11.1355 10.1893 11.759 10.5835 12.2567C10.8957 12.6507 11.2111 13.0429 11.542 13.4213C13.1242 11.3952 14.6391 9.31404 16.2382 7.30146C16.5097 6.95989 17.3062 5.87915 17.638 5.72717C18.1078 5.51225 18.697 5.71617 18.8843 6.20716C19.1412 6.88058 18.5786 7.31477 18.1961 7.78222H18.1966Z" fill="white"/>
<line x1="7.34413" y1="7.01573" x2="13.1482" y2="7.01573" stroke="white" stroke-width="0.621861" stroke-linecap="round"/>
<line x1="7.34413" y1="8.88096" x2="13.1482" y2="8.88096" stroke="white" stroke-width="0.621861" stroke-linecap="round"/>
</svg>
