<svg width="43" height="38" viewBox="0 0 43 38" fill="none" xmlns="http://www.w3.org/2000/svg">
<path style="mix-blend-mode:screen" d="M33.7659 1.18923C38.6022 1.18923 42.5591 9.16158 42.5591 18.9061C42.5591 28.6507 38.6022 36.6231 33.7659 36.6231H9.3316C4.49528 36.6231 0.538436 28.6507 0.538436 18.9061C0.538436 9.16158 4.49528 1.18923 9.3316 1.18923H33.7659ZM33.7659 0.45874H9.3316C4.2832 0.45874 0.175781 8.73428 0.175781 18.9061C0.175781 29.078 4.2832 37.3536 9.3316 37.3536H33.7659C38.8143 37.3536 42.9217 29.078 42.9217 18.9061C42.9217 8.73428 38.8143 0.45874 33.7659 0.45874Z" fill="url(#paint0_linear_4733_1471)"/>
<path style="mix-blend-mode:lighten" opacity="0.4" d="M42.5575 18.8495C42.5575 23.7228 41.5674 28.1501 39.9738 31.3645C38.5898 34.1475 35.1597 33.3347 33.6777 30.6026C24.7136 14.0774 17.1452 11.3278 6.70179 11.2408C4.02001 11.2185 1.92782 8.73733 3.12055 6.33528C4.71255 3.12823 6.91164 1.1333 9.3304 1.1333H33.7647C38.6002 1.1333 42.5575 9.10296 42.5575 18.8495Z" fill="url(#paint1_linear_4733_1471)"/>
<g opacity="0.1">
<path d="M33.379 1.18896H9.71826C4.64819 1.18896 0.538086 8.09189 0.538086 16.6071V21.204C0.538086 29.7192 4.64819 36.6221 9.71826 36.6221H33.379C38.449 36.6221 42.5591 29.7192 42.5591 21.204V16.6071C42.5591 8.09189 38.449 1.18896 33.379 1.18896Z" fill="white"/>
</g>
<defs>
<linearGradient id="paint0_linear_4733_1471" x1="-49.8118" y1="17.531" x2="42.928" y2="18.506" gradientUnits="userSpaceOnUse">
<stop offset="0.06" stop-color="#6F6D6E"/>
<stop offset="0.2" stop-color="#7C7A7B"/>
<stop offset="0.52" stop-color="#353132"/>
<stop offset="0.83" stop-color="#787677"/>
<stop offset="1" stop-color="#231F20"/>
</linearGradient>
<linearGradient id="paint1_linear_4733_1471" x1="-3.03787" y1="5.73962" x2="-3.03787" y2="38.7921" gradientUnits="userSpaceOnUse">
<stop stop-color="white"/>
<stop offset="0.02" stop-color="#F7F7F7"/>
<stop offset="0.17" stop-color="#BFBEBE"/>
<stop offset="0.32" stop-color="#8F8D8E"/>
<stop offset="0.46" stop-color="#686566"/>
<stop offset="0.61" stop-color="#4A4647"/>
<stop offset="0.75" stop-color="#343031"/>
<stop offset="0.88" stop-color="#272324"/>
<stop offset="1" stop-color="#231F20"/>
</linearGradient>
</defs>
</svg>
