<svg width="19" height="17" viewBox="0 0 19 17" fill="none" xmlns="http://www.w3.org/2000/svg">
<path d="M5.48486 15.0056C6.81364 14.9349 7.89458 15.8861 9.21436 15.9919C11.4716 16.1727 12.5794 14.3808 14.9312 15.2859C15.4918 15.5017 16.0661 15.9051 16.688 15.907L16.6929 15.946C16.6897 15.9766 16.6659 15.9868 16.646 16.0144C16.591 16.0909 16.2191 16.5002 16.1558 16.5037C15.8874 16.5189 14.7822 15.9261 14.3511 15.824C12.5782 15.4051 11.6535 16.5774 10.0298 16.6794C9.60914 16.7056 9.08792 16.693 8.67627 16.615C7.47066 16.3861 6.60627 15.623 5.27295 15.7361C4.49752 15.8018 3.83714 16.3127 3.09424 16.4978L2.55322 15.907C3.59819 15.8143 4.43515 15.0614 5.48486 15.0056ZM13.8823 12.5232C14.9883 12.6046 15.8515 13.3904 16.9683 13.4636C17.4046 13.4923 17.8053 13.4005 18.231 13.3367V13.3376L17.9243 14.1013C17.5551 14.1403 17.2199 14.2173 16.8442 14.1882C15.7879 14.1064 14.9404 13.3327 13.8823 13.2517C12.265 13.128 11.0857 14.3023 9.34326 14.1931C7.90097 14.1027 6.87027 13.1433 5.40186 13.2517C4.04283 13.3521 2.95501 14.5055 1.479 14.1316C1.20942 14.0627 1.14397 13.5628 1.01123 13.3367C1.8695 13.5658 2.68791 13.4736 3.50635 13.155C3.86146 13.0167 4.19915 12.7953 4.57568 12.6814C6.74208 12.0266 7.91189 13.6623 10.0269 13.5066C11.4391 13.4025 12.3664 12.4114 13.8823 12.5232ZM9.14014 0.92749C11.0296 0.827256 13.0239 1.35469 14.6118 2.36987C17.6068 4.28412 19.2769 7.90402 18.7036 11.4314C18.1446 11.6696 17.4928 11.7647 16.8862 11.7039C16.1531 11.6305 15.4996 11.1615 14.8042 10.9597C12.548 10.306 11.4339 11.861 9.25439 11.7107C7.97809 11.6227 6.99242 10.7783 5.69678 10.7732C3.85458 10.766 2.93057 12.1724 0.925293 11.5593C0.847331 11.5353 0.545362 11.4515 0.51709 11.4099C-0.350241 5.99046 3.7173 1.21552 9.14014 0.92749ZM11.4155 4.06714C10.3301 3.26654 8.85073 3.25672 7.69287 3.91382L7.72217 3.9978L8.27295 4.38257L8.67822 4.94019C8.45983 4.98215 8.23424 5.11272 8.03467 5.21851C7.60459 5.44597 6.48004 6.17229 6.08252 6.22241C5.9932 6.23352 5.89373 6.24217 5.80908 6.20386C5.0149 5.46108 4.08685 4.72215 2.93799 4.72729C3.16759 5.61355 3.65159 6.44781 4.35107 7.03979C3.57083 7.48711 3.12558 8.50183 2.93799 9.35327C3.20394 9.30316 3.46238 9.29336 3.72705 9.22144C4.29591 9.06637 4.97528 8.55892 5.42334 8.17554C5.87105 7.79234 5.74154 7.62684 6.42334 7.90308L8.24951 8.88159L7.09424 9.50269C8.03963 10.0943 9.4024 10.0857 10.2476 9.31812C12.469 9.9457 15.1753 9.15555 16.6411 7.35522C15.7982 7.63383 14.768 7.58728 14.1177 7.07104L15.1841 7.2605C15.748 7.27024 16.3526 7.18934 16.8931 7.01636C15.8438 5.55623 14.0354 4.5541 12.2495 4.34644C12.0829 4.32717 11.8466 4.37388 11.7065 4.33276C11.6298 4.30984 11.502 4.13092 11.4155 4.06714ZM14.7358 5.99097C15.3303 5.9152 15.2478 6.96297 14.5854 6.67944C14.2925 6.55393 14.3782 6.03637 14.7358 5.99097Z" fill="white"/>
</svg>
