<svg width="20" height="19" viewBox="0 0 20 19" fill="none" xmlns="http://www.w3.org/2000/svg">
<path d="M9.2358 0.232536C15.4209 -0.0658347 20.1943 5.44253 18.8174 11.5366C17.2631 18.4161 8.69174 21.1381 3.4511 16.3378C-2.65161 10.7483 0.976012 0.631002 9.2358 0.232536ZM9.35529 1.76342C2.11921 2.12669 -0.759854 11.2131 4.98486 15.5934C9.72167 19.2052 16.6572 16.3987 17.4429 10.4969C18.0871 5.65828 14.2106 1.51965 9.35553 1.76342H9.35529Z" fill="white"/>
<path d="M11.172 13.6287C11.3142 13.832 11.468 14.3153 11.7647 14.316C12.0391 14.3167 12.2014 13.7561 12.3758 13.5871C12.8415 13.4551 13.2824 13.2257 13.7577 13.127C14.4522 12.9829 15.1511 13.0868 15.7714 13.4199C14.8664 14.8244 13.3796 15.9113 11.7711 16.3794C8.75294 17.2578 5.56689 16.0916 3.76709 13.5578C3.73189 13.5085 3.44693 13.0964 3.47566 13.072C3.92274 13.015 4.31139 13.0363 4.74338 13.1555C5.36766 13.328 5.91938 13.6096 6.59874 13.5753C7.34778 13.5375 7.98451 13.0933 8.72565 13.0468C9.59753 12.9922 10.3597 13.3905 11.1722 13.6287H11.172Z" fill="white"/>
<path d="M6.82473 11.7081C7.65758 11.5048 8.33934 11.1164 9.2287 11.182C9.77515 11.2225 10.2706 11.5005 10.7905 11.6416L10.8436 13.0235C10.4799 12.9256 10.1576 12.7211 9.78689 12.6332C8.80413 12.3997 8.30725 12.6171 7.41716 12.9105C6.19375 13.314 5.86425 12.9378 4.76703 12.6528C4.25578 12.5202 3.76344 12.5506 3.25219 12.6617C3.14539 12.6265 2.78619 11.5345 2.75602 11.36C2.75554 11.3396 2.7553 11.3159 2.76776 11.2991C2.78332 11.2781 3.14251 11.2163 3.20358 11.2086C3.61521 11.1574 4.06876 11.1638 4.47608 11.245C5.046 11.3588 5.56923 11.6586 6.15472 11.7077C6.25793 10.54 6.29169 9.15619 5.46147 8.22611C5.42076 8.18038 5.09749 7.86476 5.05415 7.90404C5.40687 8.34369 5.71578 8.82046 5.81947 9.38703C5.30151 9.3274 4.8597 9.15714 4.46746 8.81352C3.94448 8.3559 3.69496 7.73833 3.4883 7.08962C3.45238 6.97684 3.27135 6.41218 3.31828 6.34729L3.34726 6.32837C4.21507 6.23402 5.23398 6.42895 5.76751 7.1787C6.07306 7.60806 6.16238 8.12913 6.34317 8.61261C6.35467 8.64302 6.34844 8.68588 6.3937 8.69354C6.4392 8.1787 6.52924 7.63823 6.78833 7.18589C7.13484 6.58053 7.77971 6.12794 8.4514 5.96606C8.5345 6.73881 8.57976 7.6241 8.04551 8.2515C7.63436 8.73449 6.82473 9.05729 6.82473 9.80585V11.7077V11.7081Z" fill="white"/>
<path d="M12.2316 8.28748L12.2045 12.7221C12.1789 12.8861 12.1245 13.0504 12.0163 13.1797L11.465 13.1807C11.3025 12.9302 11.3345 12.6728 11.2977 12.3912L11.2984 8.28748C9.23158 7.96971 8.46147 5.28509 10.0065 3.87322C11.9095 2.13401 14.8803 3.9386 14.2818 6.42613C14.0625 7.33849 13.1667 8.16775 12.2318 8.28748H12.2316ZM10.4454 4.42016C9.6334 5.22523 9.73493 6.61363 10.6688 7.27814C12.1655 8.34303 14.1664 6.86531 13.5237 5.11699C13.0659 3.87131 11.3949 3.47883 10.4454 4.42016Z" fill="white"/>
<path d="M16.6563 11.5649C16.4952 12.0512 16.3146 12.5424 16.0424 12.9739C16.0036 12.9863 15.5321 12.801 15.4363 12.773C15.171 12.6956 14.8829 12.6286 14.608 12.5965C13.9202 12.5165 13.2643 12.6734 12.6616 13C12.755 12.5469 12.6877 12.0757 12.7121 11.6152C13.4083 11.3609 13.9863 11.1178 14.7517 11.1849C15.3771 11.2397 16.0057 11.6195 16.6566 11.5647L16.6563 11.5649Z" fill="white"/>
<path d="M12.5841 4.87232C12.8281 4.80886 13.0721 5.05814 12.9706 5.3067C12.921 5.42811 12.5614 5.78682 12.4474 5.90775C12.3051 6.05862 11.7884 6.61369 11.6466 6.68553C11.5223 6.74875 11.4529 6.72312 11.3387 6.65655C11.2017 6.57681 10.7369 6.15224 10.6567 6.0227C10.5276 5.81436 10.6495 5.54856 10.8957 5.52821C11.132 5.50881 11.2972 5.81341 11.4826 5.9159L11.5135 5.90871C11.8377 5.62662 12.1315 5.23079 12.4584 4.96164C12.4914 4.93458 12.5458 4.88237 12.5844 4.87232H12.5841Z" fill="white"/>
</svg>
