<svg width="20" height="20" viewBox="0 0 20 20" fill="none" xmlns="http://www.w3.org/2000/svg">
<path d="M13.3306 17.2901L13.3001 17.2082L14.4157 13.8955L14.4692 13.8467L15.1315 14.5839C16.2513 13.579 17.0459 12.1903 17.3402 10.7403C18.0596 7.19629 15.8871 3.57898 12.337 2.43325C7.41791 0.845893 2.27029 4.06476 2.03375 9.07502C1.85911 12.7723 4.83987 16.1152 8.62886 16.6059C8.53127 16.88 8.36793 17.1307 8.30731 17.4184C8.11341 18.3386 9.0344 19.1508 9.97567 19.0701C10.6717 19.0107 11.3628 18.3381 11.3495 17.6545C11.3435 17.3426 11.0993 16.9679 10.9896 16.6797C11.4748 16.7172 11.851 17.2393 11.887 17.6782C11.953 18.4832 11.1674 19.2781 10.3938 19.4718C9.34054 19.7355 8.29011 19.1012 7.93543 18.1469C4.35138 17.3703 1.43046 14.7028 0.641224 11.2281C-0.51913 6.11964 3.08007 1.18611 8.46578 0.539228C14.9114 -0.235205 20.0935 4.8799 18.9097 11.0648C18.5699 12.8404 17.5755 14.4122 16.3047 15.7099C16.298 15.7432 16.333 15.779 16.3522 15.8049C16.549 16.0693 16.9077 16.3444 17.0821 16.6069C17.1867 16.7646 17.1029 16.8139 16.9478 16.8455C16.2919 16.9795 15.4972 17.0537 14.8218 17.1445C14.4232 17.1981 13.9005 17.3036 13.5161 17.3209C13.4519 17.3239 13.3871 17.3246 13.3309 17.2901H13.3306Z" fill="white"/>
<path d="M8.53531 9.78434V12.6381C8.53531 13.0337 9.23531 13.5878 9.54214 13.8348C9.65433 13.9251 9.75411 14.0361 9.903 13.9331C10.1501 13.6542 11.0145 13.1155 11.0145 12.7378V9.78459C11.0334 9.77785 11.0453 9.80954 11.0533 9.80954H11.5956C11.9249 9.80954 12.5154 9.50668 12.8418 9.39217C13.554 9.14245 14.1775 9.10029 14.9196 9.26868C15.624 9.42859 16.2596 9.86267 17.0062 9.83448C16.8904 11.3126 16.2341 12.771 15.1853 13.847C15.0781 13.7055 14.9708 13.5546 14.8501 13.4231C14.6986 13.258 14.3993 12.8928 14.1648 13.1362C14.1072 13.1961 14.0772 13.3201 14.0493 13.3987C13.8357 14.0002 13.7155 14.665 13.5129 15.2735C13.4896 15.3236 13.4436 15.3571 13.3994 15.3882C13.2363 15.5032 12.8788 15.6632 12.6852 15.7455C12.0857 16.0004 11.4028 16.1793 10.748 16.2105L9.87612 14.7346C9.85828 14.6992 9.82752 14.6887 9.78901 14.6927C9.69776 14.7019 8.97113 16.0476 8.85713 16.2152C8.13852 16.108 7.43283 15.9261 6.77082 15.638C4.42059 14.6149 2.68531 12.3674 2.49609 9.86192C3.14336 9.69603 3.70197 9.31932 4.37302 9.21878C5.48119 9.05239 5.92942 9.36323 6.89593 9.68555C7.44627 9.86916 7.96378 9.92654 8.53634 9.78484L8.53531 9.78434Z" fill="white"/>
<path d="M10.5913 6.54443V12.6862C10.5913 12.6977 10.5007 12.8459 10.4816 12.8707C10.3095 13.0918 10.0227 13.2622 9.84399 13.4852L9.79884 13.5041C9.76816 13.4968 9.74583 13.4762 9.72104 13.4582C9.61232 13.38 9.24469 13.0383 9.1534 12.935C9.11487 12.8913 8.99756 12.7083 8.99756 12.6616V6.54443H10.5913Z" fill="white"/>
<path d="M11.9838 4.93325C12.2373 4.92883 12.4933 4.9141 12.5757 5.20934C12.6189 5.36395 12.6192 5.77011 12.5907 5.93233C12.5645 6.08301 12.4805 6.16964 12.3387 6.21971L7.29369 6.22535C7.14423 6.21897 7.01662 6.07761 6.99306 5.93748C6.97073 5.80447 6.97122 5.37352 6.99797 5.2432C7.02472 5.11289 7.11797 4.99313 7.25025 4.95607C8.82778 4.94331 10.4085 4.96122 11.9838 4.93325Z" fill="white"/>
<path d="M10.6404 4.6321H8.94873V3.27127C8.94873 3.19348 9.12494 3.03543 9.21206 3.01972C9.3571 2.99346 10.2686 2.99224 10.3962 3.02537C10.4867 3.04893 10.6406 3.20501 10.6406 3.29582V4.6321H10.6404Z" fill="white"/>
</svg>
