<svg width="20" height="20" viewBox="0 0 20 20" fill="none" xmlns="http://www.w3.org/2000/svg">
<path d="M17.103 17.9118L13.1973 18.4003C13.0178 18.3831 13.0147 18.2741 13.0519 18.1249C13.155 17.7108 13.458 17.0973 13.617 16.6668C13.8777 15.961 14.1231 15.2493 14.3907 14.546C14.4074 14.5255 14.4223 14.5099 14.4513 14.5127C14.5946 14.5263 15.1471 15.3393 15.3132 15.4567C15.3853 15.3234 15.5199 15.2065 15.6204 15.0847C18.9487 11.0521 17.3953 4.95552 12.4838 3.13622C8.12141 1.52024 3.18065 4.00792 2.23306 8.61308C1.07651 14.2335 6.06188 18.8605 11.6 17.6214C11.7415 17.5896 12.1271 17.4055 12.1833 17.6006C12.2051 17.8547 12.2523 18.1062 12.2987 18.3562C12.323 18.4882 12.4717 19.014 12.4327 19.0935C12.3733 19.2148 11.5413 19.366 11.3747 19.3935C4.72972 20.4857 -0.865077 14.5778 0.649891 8.00263C1.97744 2.24042 8.39036 -0.631843 13.7175 1.79995C19.2428 4.32225 20.7667 11.4243 16.9269 16.109C16.8487 16.2043 16.3593 16.7179 16.3498 16.7604C16.3423 16.794 16.3613 16.8122 16.3777 16.8376L17.0776 17.6757L17.1033 17.9118H17.103Z" fill="white"/>
<path d="M13.8535 7.31152L13.1336 15.6458C13.0754 16.0391 12.7462 16.2934 12.3565 16.3029L7.02809 16.3016C6.63223 16.256 6.35508 15.9683 6.3238 15.5717L5.60645 7.31178H13.854L13.8535 7.31152ZM11.2633 10.5609L11.8045 9.24619C11.774 9.20619 11.7725 9.20671 11.7268 9.21799C11.6432 9.2385 11.3699 9.47104 11.3328 9.46258C11.0843 9.18312 10.9577 8.5496 10.5346 8.49191C10.2254 8.44987 9.29093 8.45397 8.97429 8.4896C8.77867 8.51165 8.66305 8.63523 8.54075 8.77316L7.80955 10.0164L7.81237 10.0746L8.91968 10.6653L9.74267 9.36054L10.1908 10.1423C10.1883 10.2489 9.85497 10.3633 9.83267 10.4871L11.2635 10.5607L11.2633 10.5609ZM10.6518 13.9195C10.8602 13.9465 11.17 13.9716 11.3794 13.9429C11.4704 13.9303 11.6045 13.8624 11.6768 13.8049C11.8527 13.6652 12.4237 12.6315 12.5516 12.3743C12.6388 12.1992 12.6954 12.0969 12.6685 11.8898C12.6398 11.669 12.2506 11.0275 12.1163 10.8029C12.0878 10.7553 11.9745 10.5507 11.9414 10.5407L10.8613 11.1575C10.8292 11.2116 10.9174 11.3521 10.9459 11.4098C11.1438 11.8093 11.4194 12.1772 11.5997 12.5874H10.6521V12.0879L10.5885 12.0497L9.816 13.2406L10.5375 14.4054C10.5823 14.4662 10.6523 14.4218 10.6523 14.3674V13.9193L10.6518 13.9195ZM7.91133 12.5876L8.44922 11.779C8.52306 11.74 8.72227 11.9626 8.79867 11.97C8.82713 11.9728 8.84995 11.9556 8.85713 11.9315C8.88712 11.8305 8.33821 10.8737 8.27027 10.705C8.18156 10.6642 8.09131 10.7163 8.00209 10.7191C7.69084 10.7289 7.30319 10.7099 7.00168 10.7432C6.95194 10.7486 6.91041 10.7586 6.87323 10.7942C6.83965 10.8306 6.87682 10.8483 6.8999 10.8717C6.96399 10.9368 7.24704 11.0611 7.24602 11.1403C7.13551 11.3731 6.95682 11.5959 6.86503 11.8362C6.77299 12.0772 6.81786 12.14 6.92477 12.3579C7.14756 12.8125 7.46497 13.2578 7.69546 13.7132C7.7393 13.7893 7.98055 13.9454 8.05234 13.9454H9.47399C9.48578 13.8985 9.49706 13.8552 9.50091 13.8057C9.5209 13.5514 9.53321 12.9425 9.50091 12.7017C9.49629 12.6679 9.46809 12.5876 9.43553 12.5876H7.91159H7.91133Z" fill="white"/>
<path d="M11.5487 5.56975H13.9436C14.0953 5.56975 14.3084 5.74793 14.3707 5.88535C14.4343 6.0256 14.4399 6.51888 14.4115 6.67783C14.3894 6.80039 14.2853 6.85115 14.172 6.87371L5.31087 6.87704C5.20319 6.88474 5.09115 6.79218 5.06013 6.69245C5.01039 6.53221 5.03141 6.04918 5.09833 5.89356C5.16089 5.74819 5.35548 5.56949 5.517 5.56949H7.91188V4.6601C7.91188 4.45063 8.23338 4.1422 8.44311 4.11554C9.24841 4.15887 10.1542 4.03709 10.9482 4.10836C11.2087 4.13169 11.5492 4.41525 11.5492 4.68574V5.56949L11.5487 5.56975ZM10.8828 5.56975V4.91648C10.8828 4.86879 10.7726 4.78855 10.7167 4.80085C10.0978 4.84469 9.40377 4.74419 8.79409 4.80008C8.71154 4.80778 8.60309 4.83828 8.60309 4.94212V5.56975H10.8826H10.8828Z" fill="white"/>
</svg>
