<svg width="20" height="20" viewBox="0 0 20 20" fill="none" xmlns="http://www.w3.org/2000/svg">
<path d="M13.6356 3.78751C13.8264 2.275 16.194 2.33727 16.313 3.83945C16.3784 4.6646 16.3053 5.64583 16.3109 6.49139C16.326 8.74055 16.2944 11.0162 16.3371 13.2752C16.7634 13.6647 17.0136 14.2183 17.0276 14.7972C17.0761 14.8081 17.0796 14.7824 17.1024 14.753C17.2579 14.5535 17.4503 14.156 17.5674 13.9196C18.8001 11.4336 18.83 8.49968 17.6331 5.99031C17.5269 5.76772 17.3027 5.45319 17.2335 5.25048C17.2192 5.20808 17.2052 5.17178 17.2129 5.12541C17.2526 5.08062 17.4641 5.38403 17.4884 5.41927C20.3131 9.45998 19.2466 15.0066 15.3132 17.866C9.52864 22.0713 1.39211 18.1675 0.49568 11.2563C-0.133652 6.40368 3.41922 1.85818 8.19367 1.10113C9.71837 0.859463 12.1676 0.950618 13.5299 1.74609C13.5595 1.76332 13.6801 1.81446 13.6616 1.85235C13.6454 1.88521 13.2503 2.02035 13.1753 2.05533C11.7508 2.71619 11.0451 4.09251 10.7462 5.57508C10.561 5.55918 10.3845 5.49903 10.2004 5.47306C9.88557 5.42881 9.45365 5.37237 9.14257 5.38906C8.9539 5.39913 8.75781 5.46935 8.56491 5.43888C8.49839 5.41609 8.42526 5.14077 8.38525 5.06208C7.3648 3.0612 4.49876 4.19346 5.10239 6.30457C5.1485 6.46621 5.27542 6.68403 5.30271 6.82102C5.3096 6.85547 5.3096 6.87747 5.28973 6.90767C5.23117 6.99724 4.62463 7.28262 4.47942 7.37669C4.10023 7.62233 3.83498 7.9305 3.64048 8.33964C3.58139 8.46391 3.55357 8.61893 3.48626 8.74188C0.895803 9.44594 1.2787 12.9543 3.92269 13.1287L8.12371 13.1276L8.09907 13.2219C7.40667 13.8112 6.73706 14.4814 6.46228 15.3744C5.91244 17.159 6.84623 18.3215 8.55775 18.7222C10.9484 19.2818 13.555 18.3048 15.3577 16.7443C15.3911 16.6685 15.1905 16.7313 15.1603 16.7327C14.5803 16.7549 14.1319 16.6879 13.6761 16.3068C12.7617 15.5424 12.6594 14.0028 13.6356 13.2471V11.6572C13.6356 11.6442 13.6995 11.5737 13.6088 11.5772C13.2148 12.3417 12.4546 12.8303 11.605 12.9389L3.84346 12.9434C2.61209 12.8313 1.86219 11.9362 1.94884 10.7022C2.01376 9.77504 2.78009 8.95413 3.72316 8.91253C3.82438 8.24292 4.30612 7.63796 4.92618 7.37325C5.41427 7.16471 5.94397 7.1602 6.45168 7.2964C7.11599 5.67763 9.08003 5.0324 10.6058 5.88935C11.4058 6.33876 11.9667 7.20233 12.0955 8.10937C12.1082 8.19946 12.073 8.36534 12.122 8.42734C12.277 8.49094 12.4389 8.52459 12.5929 8.59243C13.0823 8.80706 13.3966 9.18864 13.6083 9.67064C13.6989 9.67435 13.6351 9.60386 13.6351 9.59062V3.78751H13.6356ZM6.92228 2.03466C6.78661 1.89952 6.53859 1.9859 6.50918 2.17245C6.47791 2.37092 6.47791 3.26947 6.50918 3.46794C6.54919 3.7218 6.90214 3.73346 6.98402 3.49524C6.94719 3.07922 7.03517 2.57469 6.98588 2.1698C6.97978 2.11972 6.95753 2.06964 6.92228 2.03439V2.03466ZM9.22921 2.87889C9.1847 2.88896 9.16323 2.91466 9.13038 2.93904C8.93138 3.08664 8.47031 3.57261 8.29515 3.7732C8.18492 3.8996 8.09562 4.07449 8.26919 4.19876C8.38154 4.27905 8.46739 4.25441 8.57259 4.18313C8.68812 4.10496 9.40834 3.38447 9.48678 3.26894C9.63199 3.05484 9.47777 2.82245 9.22921 2.87889ZM4.31751 3.659L5.00382 4.33708C5.16413 4.41313 5.35094 4.28091 5.34352 4.10602C5.33928 4.00639 5.10557 3.76896 5.02448 3.68073C4.93571 3.58427 4.42377 3.05431 4.35461 3.02595C4.13468 2.93533 3.93965 3.13698 4.0308 3.34976C4.03902 3.36911 4.27406 3.61156 4.31778 3.659H4.31751ZM15.7819 13.4858V9.23289H15.2652C15.2202 9.23289 15.11 9.10808 15.098 9.05482C15.0132 8.66954 15.5652 8.82323 15.7804 8.7546C15.7578 8.47504 15.8151 8.13931 15.783 7.86691C15.7785 7.82822 15.7798 7.79881 15.7419 7.77549H15.2385C15.1953 7.77549 15.1092 7.67347 15.0983 7.62392C15.0109 7.22936 15.5461 7.36583 15.7804 7.2972C15.7578 7.01764 15.8151 6.68191 15.783 6.40951C15.7785 6.37082 15.7798 6.34141 15.7419 6.31809H15.212C15.0885 6.31809 15.0262 6.00621 15.1842 5.91929C15.2721 5.8708 15.7753 5.87133 15.7833 5.82575C15.7419 5.23484 15.8331 4.58193 15.7827 3.99844C15.7027 3.07233 14.3932 2.96978 14.1982 3.89986C14.1669 7.10085 14.2292 10.3119 14.1669 13.5073C13.502 13.9901 13.3261 14.8441 13.7776 15.5429C14.3423 16.4171 15.6248 16.3903 16.2012 15.5482C16.6951 14.8267 16.3771 14.0195 15.7817 13.4858H15.7819ZM3.16113 5.50221C2.92742 5.57852 2.93298 5.93254 3.18339 5.97202C3.38292 6.00356 4.27856 6.00329 4.47862 5.97202C4.74413 5.93069 4.71896 5.54063 4.45212 5.49824C4.07744 5.43861 3.55198 5.5348 3.16087 5.50247L3.16113 5.50221ZM4.27988 9.49655C3.03898 9.23104 2.10438 10.5941 2.76021 11.6686C3.05858 12.1575 3.55675 12.3297 4.10818 12.361C6.46254 12.26 8.92316 12.4908 11.2653 12.361C13.3144 12.2473 14.1438 9.67938 12.0038 9.02302L11.5282 9.0217C11.6191 8.18171 11.3549 7.27706 10.707 6.71609C9.25041 5.45504 7.20608 6.35148 6.74607 8.0932L6.32872 7.88811C5.47813 7.57516 4.48737 8.08817 4.31566 8.98831C4.28174 9.16611 4.29446 9.32563 4.28015 9.49628L4.27988 9.49655Z" fill="white"/>
</svg>
